<svg width="664" height="200" viewBox="0 0 664 200" fill="none" xmlns="http://www.w3.org/2000/svg">
<path d="M257.6 171.111V167.022C274.489 167.022 276.445 164.178 276.445 153.333V46.4887C276.445 35.6442 274.489 32.7998 257.6 32.7998V28.8887H306.489C335.111 28.8887 354.311 41.3331 354.311 68.5331C354.311 95.1998 335.822 109.6 310.756 109.778C303.111 109.778 297.245 108.533 291.733 106.578V153.333C291.733 164.178 293.867 167.022 310.933 167.022V171.111H257.6ZM308.445 102.666C328.178 102.666 338.667 88.7998 338.667 68.8887C338.667 46.3109 324.978 35.4665 306.667 35.4665C302.045 35.4665 298.489 36.1776 295.111 37.422C292.8 38.3109 291.733 39.9109 291.733 42.222V99.6442C296.533 101.244 301.689 102.666 308.445 102.666Z" fill="white"/>
<path d="M399.804 173.955C390.738 173.955 385.404 167.378 385.404 152.444V147.289C380.96 164.533 371.893 173.955 359.626 173.955C347.36 173.955 340.604 164.533 340.604 153.155C340.604 130.933 365.315 120.978 385.404 111.733V101.244C385.404 85.9554 380.071 80.4442 371.182 80.4442C363.893 80.4442 358.382 84.1776 358.382 90.3998C358.382 94.6665 360.871 96.622 360.871 100.533C360.871 104.622 358.204 107.644 353.404 107.644C347.893 107.644 345.049 103.378 345.049 97.1554C345.049 84.3554 356.96 74.0442 373.493 74.0442C388.782 74.0442 398.915 82.7554 398.915 101.778V155.289C398.915 164.533 400.871 166.666 403.893 166.666C407.626 166.666 410.471 163.289 410.649 151.555H414.56C414.204 164.355 410.649 173.955 399.804 173.955ZM354.293 149.6C354.293 157.244 357.849 162.578 364.604 162.578C372.249 162.578 380.249 155.644 385.404 138.578V117.244C370.115 125.066 354.293 133.778 354.293 149.6Z" fill="white"/>
<path d="M402.725 171.111V167.022C413.036 167.022 414.458 164.711 414.458 153.333V96.4442C414.458 84.8887 414.458 82.7554 403.97 87.022L402.37 83.1109L416.236 77.5998L425.303 73.8665L427.97 76.3554V92.7109H428.503C433.303 82.9331 441.481 74.0442 450.725 74.0442C456.592 74.0442 459.614 77.2442 459.614 82.3998C459.614 88.4442 456.058 91.9998 452.147 91.9998C449.303 91.9998 448.058 90.7554 446.103 88.622C443.97 86.6665 443.081 85.9554 441.125 85.9554C437.036 85.9554 432.236 91.6442 427.97 103.022V152.8C427.97 164.533 430.281 167.022 446.103 167.022V171.111H402.725Z" fill="white"/>
<path d="M507.04 173.955C497.974 173.955 492.64 167.378 492.64 152.444V147.289C488.196 164.533 479.129 173.955 466.863 173.955C454.596 173.955 447.84 164.533 447.84 153.155C447.84 130.933 472.551 120.978 492.64 111.733V101.244C492.64 85.9554 487.307 80.4442 478.418 80.4442C471.129 80.4442 465.618 84.1776 465.618 90.3998C465.618 94.6665 468.107 96.622 468.107 100.533C468.107 104.622 465.44 107.644 460.64 107.644C455.129 107.644 452.285 103.378 452.285 97.1554C452.285 84.3554 464.196 74.0442 480.729 74.0442C496.018 74.0442 506.151 82.7554 506.151 101.778V155.289C506.151 164.533 508.107 166.666 511.129 166.666C514.863 166.666 517.707 163.289 517.885 151.555H521.796C521.44 164.355 517.885 173.955 507.04 173.955ZM461.529 149.6C461.529 157.244 465.085 162.578 471.84 162.578C479.485 162.578 487.485 155.644 492.64 138.578V117.244C477.351 125.066 461.529 133.778 461.529 149.6Z" fill="white"/>
<path d="M534.838 153.333C534.838 164.711 536.438 167.022 546.926 167.022V171.111H509.238V167.022C519.726 167.022 521.326 164.711 521.326 153.333V47.9109C521.326 36.5331 521.504 34.5776 511.015 39.5554L509.238 35.9998L523.104 29.422L532.526 24.7998L534.838 27.1109V153.333Z" fill="white"/>
<path d="M563.803 153.333C563.803 164.711 565.403 167.022 575.892 167.022V171.111H538.203V167.022C548.692 167.022 550.292 164.711 550.292 153.333V47.9109C550.292 36.5331 550.47 34.5776 539.981 39.5554L538.203 35.9998L552.07 29.422L561.492 24.7998L563.803 27.1109V153.333Z" fill="white"/>
<path d="M613.622 112.444C613.622 95.7331 609.889 80.7998 598.689 80.7998C587.667 80.7998 582.333 94.8442 581.089 112.444H613.622ZM567.045 125.6C567.045 97.5109 578.778 74.222 598.689 74.222C617.711 74.222 627.489 92.8887 627.489 119.022H580.733V120.978C580.733 144.8 588.556 162.755 602.956 162.755C610.956 162.755 620.378 156.178 624.467 133.422H628.556C625.178 161.866 613.445 173.955 597.8 173.955C578.6 173.955 567.045 154.4 567.045 125.6Z" fill="white"/>
<path d="M645.518 153.333C645.518 164.711 647.118 167.022 657.607 167.022V171.111H619.918V167.022C630.407 167.022 632.007 164.711 632.007 153.333V47.9109C632.007 36.5331 632.185 34.5776 621.696 39.5554L619.918 35.9998L633.785 29.422L643.207 24.7998L645.518 27.1109V153.333Z" fill="white"/>
<g clip-path="url(#clip0_287_53)">
<path d="M197.825 75.1254C198.023 75.8987 197.459 76.6719 196.666 76.7255C194.12 76.9092 191.575 77.093 189.036 77.3226C180.248 78.1265 171.429 78.6241 162.641 79.5122C157.382 80.0404 152.1 80.2394 146.833 80.6758C141.733 81.0969 136.657 81.6711 131.558 82.1151C119.942 83.1256 108.31 84.0749 96.6866 85.1085C90.5432 85.652 84.3845 86.119 78.2716 86.9535C76.8538 87.1449 75.4361 87.3286 74.0184 87.4894C73.9955 87.0453 73.965 86.609 73.9346 86.1649C73.9269 86.0118 73.9117 85.8664 73.9041 85.7133C73.8888 85.4836 73.866 85.2463 73.8507 85.0166C73.7974 84.2663 73.7364 83.5237 73.6678 82.7811C79.7579 81.449 97.4641 79.3973 102.8 78.8155C109.431 78.0882 116.07 77.3992 122.716 76.7485C131.848 75.8451 140.979 74.9953 150.11 74.1302C157.13 73.4642 164.15 72.7828 171.178 72.1627C178.815 71.4967 186.452 70.8612 194.082 70.2182C195.439 70.1033 196.681 70.9837 197.055 72.3005C197.322 73.2345 197.573 74.1761 197.817 75.1254H197.825Z" fill="white"/>
<path d="M194.951 125.86C196.3 125.798 197.314 127.092 196.933 128.394C196.735 129.083 196.521 129.772 196.308 130.461C195.904 131.755 194.722 132.643 193.373 132.65C181.239 132.757 123.074 133.194 108.486 132.405C101.397 132.022 94.3008 131.647 87.258 130.721C83.2335 130.193 79.1633 129.818 75.2074 128.799C74.2699 128.562 73.34 128.317 72.4482 127.965C72.471 127.842 72.4863 127.72 72.5015 127.597C72.532 127.353 72.5701 127.108 72.6006 126.863C72.6768 126.327 72.753 125.783 72.8216 125.24C72.8445 125.063 72.8598 124.903 72.8826 124.742L73.0351 123.517C73.0503 123.349 73.0656 123.249 73.0808 123.119C77.6922 125.071 92.3572 125.775 96.0234 125.974C106.161 126.526 116.306 126.878 126.459 126.962C136.474 127.054 146.497 126.962 156.52 126.878C166.338 126.794 176.132 126.327 185.942 126.189C188.274 126.158 192.283 125.982 194.951 125.86Z" fill="white"/>
<path d="M193.434 61.8505C193.686 62.4706 193.266 63.1673 192.596 63.2285C185.728 63.8869 178.853 64.5912 171.978 65.1807C163.426 65.908 154.889 66.8037 146.36 67.6841C138.753 68.4803 131.146 69.3148 123.547 70.1875C116.367 71.0143 109.194 71.8641 102.029 72.7828C94.2777 73.7857 86.526 74.7962 78.8505 76.2891C77.1889 76.6106 75.5349 76.9781 73.8809 77.3379C73.6827 77.3762 73.4388 77.4145 73.2863 77.537C73.2482 77.5676 73.2101 77.6059 73.1644 77.6365C73.1491 77.4834 73.1339 77.3303 73.111 77.1772C73.0272 76.4728 72.9433 75.7685 72.8595 75.0718H72.8519C72.7909 74.5742 72.7299 74.0843 72.6537 73.5943C72.6004 73.1656 72.6156 73.2881 72.5699 72.9818C73.4617 72.7139 74.8565 72.155 75.7178 71.9024C80.0777 70.6086 84.5442 69.8966 88.9879 69.1157C97.2275 67.6765 105.49 66.398 113.798 65.3644C121.298 64.4381 128.783 63.2362 136.306 62.4936C145.003 61.6361 153.639 60.2887 162.351 59.5385C169.965 58.8877 177.565 57.9231 185.179 57.2341C186.223 57.1422 187.275 57.0351 188.32 56.9202C190.012 56.7365 191.62 57.6705 192.314 59.2322C192.695 60.0973 193.068 60.9701 193.426 61.8505H193.434Z" fill="white"/>
<path d="M186.841 48.6751C187.154 49.2033 186.826 49.877 186.216 49.9459C175.103 51.1632 127.884 56.8054 117.792 58.2753C111.565 59.1787 105.368 60.2811 99.156 61.2534C93.5994 62.1261 88.0886 63.2132 82.6083 64.4458C79.1631 65.219 75.6798 65.9999 72.4175 67.4238C72.1965 67.5157 71.9907 67.6152 71.7849 67.7301H71.7773C71.7392 67.4774 71.701 67.2248 71.6553 66.9722C71.6324 66.8267 71.6096 66.6812 71.5791 66.5358C71.4571 65.8315 71.3352 65.1271 71.2056 64.4228C71.137 64.0094 71.0532 63.596 70.9769 63.1826C70.9693 63.1596 70.9693 63.129 70.9617 63.106C72.7681 61.9041 74.8261 61.2916 76.8689 60.6562C83.6602 58.5509 90.5963 57.081 97.5706 55.7719C129.454 49.7851 159.714 46.2865 180.637 43.7372C182.413 43.5228 184.15 44.342 185.118 45.8501C185.599 46.5927 186.315 47.7947 186.841 48.6751Z" fill="white"/>
<path d="M189.806 140.046C191.193 140.038 192.116 141.485 191.529 142.74C191.155 143.544 190.767 144.348 190.37 145.137C189.783 146.308 188.594 147.051 187.291 147.028C176.17 146.844 124.157 145.933 115.467 145.29C107.281 144.693 82.6466 142.878 70.7179 138.162V138.147C70.8246 137.603 70.9313 137.029 71.0457 136.455C71.1143 136.103 71.1753 135.751 71.2362 135.391C71.282 135.115 71.3353 134.832 71.3811 134.556C71.4344 134.281 71.4801 134.021 71.5182 133.753L71.5945 133.293C71.968 133.423 72.6844 133.73 73.0503 133.852C80.238 136.256 87.7381 136.891 95.2002 137.665C113.044 139.51 130.963 140.061 148.891 140.329C150.705 140.352 180.263 140.115 189.799 140.046H189.806Z" fill="white"/>
<path d="M200.889 102.364C200.896 103.444 200.05 104.332 198.975 104.385C191.087 104.776 183.213 105.319 175.316 105.664C165.392 106.1 155.468 106.667 145.537 107.027C133.707 107.471 121.878 107.984 108.005 108.114C100.947 108.206 91.8616 108.428 82.7684 108.114C79.933 108.022 77.0899 108.03 74.2698 107.555L74.2469 107.524C74.3002 106.851 74.3307 106.185 74.3384 105.511C74.3612 104.768 74.3765 104.018 74.3841 103.26C74.3841 102.954 74.3612 102.908 74.3841 102.625C75.1768 102.648 76.5793 102.808 77.3567 102.839C84.4605 103.061 91.5644 102.816 98.6682 102.663C103.226 102.563 107.792 102.426 112.358 102.227C123.128 101.752 133.898 101.27 144.66 100.734C157.496 100.098 170.331 99.4246 183.167 98.7203C188.381 98.4293 193.457 98.0083 198.77 97.7021C199.814 97.6408 200.713 98.4523 200.782 99.5088C200.851 100.565 200.881 101.553 200.889 102.364Z" fill="white"/>
<path d="M200.294 88.5688C200.408 89.5794 199.646 90.4828 198.632 90.544C195.073 90.7737 187.222 91.2713 182.763 91.5699C171.711 92.2895 160.659 92.9709 149.614 93.7288C138.181 94.525 126.74 95.0226 115.307 95.7346C105.185 96.37 78.1493 97.5413 74.7727 97.5413C74.6507 97.5413 74.5211 97.5566 74.3992 97.5566C74.3992 97.3193 74.3916 97.082 74.3916 96.8446C74.3916 96.6839 74.3916 96.5307 74.3916 96.37C74.3763 95.8877 74.3687 95.413 74.3534 94.9307C74.3382 94.2187 74.3153 93.5144 74.2848 92.8177V92.7488H74.2925C74.3611 92.7412 74.4297 92.7412 74.4983 92.7335C77.1965 92.5268 79.8947 92.3507 82.593 92.1593C93.0886 91.4091 103.584 90.5976 114.088 89.9162C127.289 89.0665 140.475 88.0023 153.685 87.1832C165.537 86.4482 177.374 85.4453 189.211 84.5496C191.963 84.3429 194.73 84.251 197.481 83.9984C198.701 83.8836 199.799 84.7486 199.974 85.9659C200.096 86.831 200.202 87.7037 200.302 88.5765L200.294 88.5688Z" fill="white"/>
<path d="M199.608 116.367C199.448 117.538 198.48 118.426 197.306 118.495C195.111 118.617 192.908 118.77 190.705 118.839C177.733 119.268 164.767 119.926 151.787 120.034C149.973 120.049 131.032 120.447 123.379 120.386C112.937 120.302 102.494 120.294 92.0598 119.697C86.3584 119.375 80.6723 119.077 75.0395 118.074C74.567 117.99 74.0944 117.852 73.6294 117.722C73.6676 117.339 73.698 116.964 73.7285 116.581C73.7362 116.458 73.7514 116.336 73.759 116.214C73.82 115.509 73.8734 114.805 73.9191 114.101C73.9572 113.641 73.9877 113.189 74.0106 112.73C74.0106 112.723 74.0106 112.669 74.0106 112.661C75.0243 112.86 76.0457 113.212 77.0746 113.335C80.5656 113.756 84.0641 114.032 87.5703 114.123C98.2642 114.399 108.958 114.545 119.66 114.376C131.878 114.177 144.096 113.993 156.307 113.542C165.301 113.212 174.31 112.99 183.297 112.478C188.16 112.202 193.023 112.118 197.87 111.773C199.075 111.689 200.058 112.7 199.921 113.901C199.829 114.667 199.722 115.54 199.608 116.359V116.367Z" fill="white"/>
<path d="M183.198 157.286C182.847 157.799 182.481 158.312 182.123 158.817C181.086 160.264 179.417 161.122 177.649 161.122C176.864 161.122 176.071 161.122 175.286 161.122C167.725 160.999 160.156 160.747 152.595 160.425C137.854 159.805 123.128 158.886 108.463 157.225C100.52 156.322 92.601 155.235 84.7731 153.596C79.7806 152.555 74.7957 151.384 70.0776 149.332C69.4831 149.072 68.9114 148.796 68.3626 148.482H68.355C68.3855 148.367 68.416 148.26 68.4465 148.145C68.6294 147.449 68.8047 146.744 68.98 146.04C69.0943 145.558 69.2087 145.083 69.323 144.601C69.3916 144.318 69.4526 144.034 69.5212 143.751C70.9465 144.478 72.5319 144.915 74.1173 145.374C80.5885 147.234 87.1817 148.482 93.8434 149.409C104.484 150.894 115.17 151.858 125.887 152.555C139.264 153.428 152.648 153.956 166.055 154.124C170.255 154.178 177.321 154.201 181.605 154.216C183.167 154.216 184.089 155.992 183.205 157.279L183.198 157.286Z" fill="white"/>
<path d="M177.679 35.6987C178.099 36.204 177.794 36.9772 177.146 37.0614C168.914 38.1409 132.282 43.1324 128.273 43.8137C121.695 44.9314 115.117 46.0874 108.554 47.3047C104.11 48.1315 99.6744 49.0043 95.2688 50.0072C89.3388 51.3622 83.4011 52.6866 77.6159 54.6082C76.5565 54.9604 71.3506 56.7595 69.8109 57.571C69.7956 57.4868 69.7728 57.4102 69.7575 57.326C69.6889 57.0274 69.6279 56.7365 69.5593 56.4456C69.3612 55.5728 69.1554 54.7077 68.942 53.8427C68.8429 53.4522 68.9115 53.7202 68.7971 53.2761C69.2545 52.8091 70.9847 51.8598 71.5792 51.6148C76.6022 49.5478 81.6633 47.5956 86.9531 46.2788C91.8312 45.0692 96.7246 43.9285 101.61 42.7496C105.925 41.7007 110.277 40.8127 114.621 40.0088C119.103 39.182 123.585 38.3093 128.082 37.5437C132.922 36.7169 161.322 32.445 170.438 31.0823C172.199 30.822 173.967 31.4574 175.156 32.7819C176.018 33.7388 176.856 34.7034 177.672 35.691L177.679 35.6987Z" fill="white"/>
<path d="M171.49 171.327C171.162 171.656 170.827 171.985 170.492 172.314C168.678 174.075 166.208 174.994 163.693 174.887C163.502 174.879 163.304 174.871 163.113 174.864C153.57 174.412 144.035 173.807 134.515 172.98C125.132 172.169 115.765 171.112 106.45 169.727C98.4244 168.54 90.4364 167.124 82.5703 165.126C76.8766 163.679 71.221 162.056 66.0532 159.147C65.8245 159.016 65.5882 158.886 65.3672 158.748C65.634 157.952 65.8855 157.148 66.137 156.345C66.2513 155.977 66.3581 155.617 66.4648 155.25C66.602 154.829 66.7239 154.408 66.8459 153.979C67.7377 154.423 68.6828 154.79 69.5975 155.189C74.6433 157.409 79.9864 158.695 85.3372 159.943C91.1452 161.298 97.0295 162.247 102.921 163.112C110.986 164.299 119.103 165.141 127.228 165.868C139.081 166.925 161.2 167.866 170.286 168.226C171.864 168.287 172.618 170.209 171.498 171.327H171.49Z" fill="white"/>
<path d="M165.049 23.0132C165.682 23.5491 165.362 24.5826 164.539 24.6822C160.164 25.2181 155.819 25.9453 151.459 26.6344C145.239 27.6066 139.043 28.7167 132.846 29.8115C126.527 30.9292 120.239 32.246 113.951 33.5321C107.7 34.803 101.481 36.1963 95.3068 37.7963C87.5475 39.8021 79.7958 41.8845 72.4328 45.1764C70.6569 45.9726 68.8504 46.5468 67.5242 48.1085C67.5013 48.1315 67.4784 48.1621 67.4556 48.1851C67.4479 48.1698 67.4479 48.1468 67.4403 48.1315C67.3107 47.6492 67.1735 47.1669 67.0287 46.6922C66.9068 46.2559 66.7772 45.8118 66.6476 45.3831C66.6324 45.3372 66.6248 45.2989 66.6095 45.253C66.4876 44.8396 66.3656 44.4338 66.2436 44.0281C67.6614 41.6395 70.2758 40.5907 72.6996 39.4347C76.1753 37.7887 79.8339 36.6097 83.4697 35.3695C91.7549 32.5445 100.223 30.3703 108.729 28.4028C113.501 27.2927 118.257 26.1061 123.097 25.2793C128.334 24.3836 133.509 23.1051 138.738 22.1558C144.881 21.0381 151.055 20.0581 157.221 19.0093C158.632 18.772 160.095 19.1012 161.238 19.9739C162.534 20.9615 163.807 21.972 165.049 23.0209V23.0132Z" fill="white"/>
<path d="M154.355 185.076C153.997 185.306 153.639 185.528 153.281 185.75C150.765 187.304 147.8 187.94 144.866 187.656C138.791 187.074 132.709 186.5 126.649 185.674C121.756 185.007 116.847 184.364 111.969 183.591C104.545 182.405 97.1437 181.042 89.834 179.258C82.4025 177.444 75.0166 175.461 68.0119 172.299C65.8243 171.311 63.6825 170.232 61.7388 168.816C61.937 168.326 62.1276 167.828 62.3181 167.331C62.3486 167.246 62.3867 167.162 62.4172 167.07C62.5697 166.68 62.7145 166.289 62.8593 165.891C62.9355 165.7 63.0117 165.501 63.0803 165.309C63.2404 164.873 63.4005 164.437 63.5605 163.993C63.8883 164.199 64.2313 164.398 64.5667 164.597C70.39 167.966 76.7926 169.857 83.2561 171.579C89.4301 173.225 95.6726 174.473 101.953 175.599C110.36 177.107 118.813 178.225 127.297 179.189C133.052 179.848 138.814 180.383 144.584 180.896C146.87 181.103 150.445 181.348 153.464 181.555C155.301 181.677 155.91 184.089 154.355 185.076Z" fill="white"/>
<path d="M149.005 12.0273C149.569 12.3259 149.439 13.168 148.814 13.2828C146.032 13.7881 143.25 14.2934 140.468 14.8216C137.32 15.4111 134.164 15.993 131.032 16.6743C124.599 18.083 118.158 19.484 111.755 21.0151C107.365 22.0639 102.99 23.2046 98.6223 24.3836C93.9728 25.6468 89.3461 27.0018 84.8034 28.5483C78.538 30.6842 72.2878 32.9273 66.7008 36.6327C65.87 37.1762 65.1001 37.781 64.4599 38.5236H64.4523C64.4065 38.4088 64.3684 38.2787 64.3227 38.1562C64.0788 37.4518 63.8272 36.7399 63.5757 36.0432C63.408 35.5609 63.2327 35.0786 63.0498 34.6039C62.9736 34.3972 62.8974 34.1905 62.8211 33.9838C63.2175 33.5092 63.6977 33.0881 64.1779 32.69C67.5926 29.8651 71.5332 27.9205 75.5653 26.175C80.0548 24.2228 84.6509 22.5233 89.3004 21.0381C95.8555 18.9404 102.433 16.9346 109.118 15.3039C115.071 13.857 121.008 12.3412 126.977 10.9785C130.247 10.2359 133.524 9.56219 136.802 8.88849C139.53 8.32962 142.358 8.68944 144.858 9.922C146.215 10.588 147.716 11.346 149.012 12.035L149.005 12.0273Z" fill="white"/>
<path d="M129.256 193.176C131.032 193.436 131.2 195.932 129.477 196.445C128.806 196.644 127.968 196.874 127.084 197.096C122.975 198.152 118.684 198.282 114.507 197.532C114.484 197.532 114.469 197.532 114.446 197.524C107.922 196.346 101.397 195.113 94.9563 193.521C89.8342 192.25 84.7197 190.925 79.7044 189.264C74.689 187.61 69.7499 185.781 65.0013 183.476C62.4403 182.228 59.5438 180.529 57.3334 178.776L57.6002 178.355C57.806 177.934 57.9965 177.543 58.1795 177.137L58.4539 176.54C58.492 176.464 58.5225 176.379 58.5606 176.303C58.8426 175.683 59.1246 175.063 59.3914 174.435C59.4295 174.358 59.4676 174.274 59.4981 174.198C59.521 174.152 59.5438 174.098 59.5591 174.052C63.5302 177.061 68.1111 178.936 72.7377 180.72C76.3659 182.121 80.0474 183.346 83.7975 184.364C88.3174 185.582 92.8678 186.73 97.4487 187.725C103.02 188.935 108.615 190.014 114.248 190.941C118.745 191.676 123.265 192.296 127.777 192.962C128.273 193.038 128.76 193.107 129.256 193.176Z" fill="white"/>
<path d="M125.254 2.64145C126.108 2.85581 126.085 4.07306 125.231 4.27211C118.486 5.84918 111.786 7.58702 105.124 9.47032C98.3405 11.3766 91.6331 13.5355 85.0094 15.947C79.4072 17.9834 73.8659 20.1576 68.6599 23.0898C65.794 24.6975 62.9129 26.3588 60.8778 29.0382C60.8625 29.0076 60.8473 28.9693 60.832 28.9387C60.771 28.7933 60.7101 28.6478 60.6491 28.5023C60.5119 28.1655 60.3747 27.8286 60.2299 27.4994C59.9097 26.7415 59.239 25.2257 58.9036 24.4755C59.2009 24.1845 59.117 24.2688 59.3533 24.0085C61.1521 21.5357 63.8199 19.9509 66.4419 18.3279C71.6097 15.1432 77.1663 12.7623 82.799 10.5651C86.8845 8.96504 91.0462 7.55639 95.2078 6.14775C98.8436 4.91518 102.502 3.75152 106.184 2.67207C108.028 2.12852 109.873 1.60793 111.725 1.10265C113.257 0.681592 114.865 0.605035 116.443 0.850017C119.423 1.31701 122.366 1.91416 125.254 2.64145Z" fill="white"/>
<path d="M92.4943 0.000232374C92.6239 -0.00742331 92.662 0.176313 92.5476 0.222247C89.9256 1.17921 83.6755 3.54481 79.6358 5.18313C75.1006 7.02049 70.7102 9.17174 66.4876 11.6369C62.8061 13.7958 59.117 16.0312 56.655 19.6906C56.434 19.2236 56.2053 18.7643 55.969 18.305C55.7327 17.8227 55.4888 17.3404 55.2373 16.8657C54.9781 16.3528 54.7114 15.8552 54.4446 15.3499C55.6184 13.2216 57.5697 11.6139 59.5362 10.0751L59.5895 10.0368C62.5241 7.74778 65.8016 5.94104 69.323 4.76972C76.7012 2.29694 84.4606 0.673932 92.4943 0.000232374Z" fill="white"/>
<path d="M90.0779 199.148C90.5962 199.285 90.4438 200.051 89.9178 199.997C76.4876 198.527 63.8578 194.378 52.5618 188.1C52.7371 187.802 52.9048 187.496 53.0724 187.189C53.4612 186.493 53.8423 185.788 54.2234 185.076C54.4444 184.671 54.6502 184.273 54.8636 183.851H54.8713C57.7753 186.378 61.1672 188.2 64.6047 189.953C70.4585 192.939 76.6401 195.105 82.875 197.05C85.2607 197.792 87.6693 198.497 90.0779 199.155V199.148Z" fill="white"/>
<path d="M54.1248 14.7454H50.741C49.999 14.7454 49.7301 13.7821 50.3709 13.4064C50.4833 13.3405 50.6109 13.3062 50.741 13.3062H53.3473C53.4159 13.421 53.4769 13.5282 53.5379 13.643C53.736 14.0105 53.9266 14.3779 54.1248 14.7454Z" fill="white"/>
<path d="M55.9693 18.2977H45.1354C44.4271 18.2977 44.1394 17.3876 44.724 16.9858C44.8444 16.903 44.9877 16.8584 45.1336 16.8584H55.2376C55.4891 17.3331 55.7331 17.8154 55.9693 18.2977Z" fill="white"/>
<path d="M57.6995 21.8422H40.2798C39.5863 21.8422 39.2834 20.9734 39.8355 20.5519C39.9626 20.4548 40.1178 20.403 40.2775 20.403H57.0059C57.044 20.4719 57.0745 20.5331 57.105 20.602C57.3031 21.0154 57.5013 21.4288 57.6995 21.8422Z" fill="white"/>
<path d="M59.3152 25.3945H35.9433C35.2767 25.3945 34.9629 24.5718 35.4664 24.1331C35.598 24.0185 35.7672 23.9552 35.9414 23.9552H58.675C58.7664 24.1619 58.8655 24.3763 58.957 24.5906C59.079 24.8586 59.1933 25.1265 59.3152 25.3945Z" fill="white"/>
<path d="M60.8323 28.9391H32.0777C31.4294 28.9391 31.1062 28.1543 31.5734 27.7028C31.7082 27.5726 31.8887 27.4998 32.0758 27.4998H60.2302C60.375 27.829 60.5122 28.1658 60.6494 28.5027C60.7104 28.6481 60.7713 28.7936 60.8323 28.9391Z" fill="white"/>
<path d="M62.2577 32.4913H28.5845C27.9549 32.4913 27.6257 31.7382 28.0576 31.278C28.1933 31.1333 28.3826 31.052 28.5805 31.052H61.686C61.8842 31.5267 62.0671 32.009 62.2577 32.4913Z" fill="white"/>
<path d="M63.5763 36.0359H25.4179C24.8021 36.0359 24.4654 35.3175 24.8672 34.8488C25.0045 34.6885 25.2054 34.5966 25.416 34.5966H63.0504L63.3705 35.4694C63.4391 35.6531 63.5077 35.8445 63.5763 36.0359Z" fill="white"/>
<path d="M64.8188 39.5881H22.5276C21.9282 39.5881 21.5863 38.9028 21.9548 38.428C22.0918 38.2515 22.3029 38.1489 22.5257 38.1489H64.331C64.3614 38.2331 64.3919 38.3249 64.4224 38.4091C64.4377 38.4474 64.4453 38.478 64.4605 38.5163C64.5749 38.8761 64.6968 39.236 64.8188 39.5881Z" fill="white"/>
<path d="M65.962 43.1327H19.9013C19.3198 43.1327 18.9794 42.4737 19.3145 41.9965C19.4488 41.8053 19.6664 41.6934 19.8995 41.6934H65.5123C65.6648 42.1681 65.8172 42.6504 65.962 43.1327Z" fill="white"/>
<path d="M67.0291 46.6849H17.5049C16.9347 46.6849 16.5881 46.0516 16.899 45.5715C17.0313 45.3672 17.2577 45.2457 17.5004 45.2457H66.6099C66.6251 45.2916 66.6327 45.3299 66.648 45.3758C66.7775 45.8122 66.9071 46.2486 67.0291 46.6849Z" fill="white"/>
<path d="M68.0121 50.2295H15.3191C14.7626 50.2295 14.4158 49.6255 14.6992 49.1444C14.8291 48.9239 15.065 48.7902 15.3202 48.7902H67.6234C67.7606 49.2726 67.8902 49.7472 68.0121 50.2295Z" fill="white"/>
<path d="M68.9267 53.7817H13.3268C12.7844 53.7817 12.4356 53.2051 12.6917 52.7249C12.8169 52.4901 13.0618 52.3425 13.327 52.3425H68.5685C68.6447 52.6564 68.7209 52.9626 68.7972 53.2765C68.8429 53.4449 68.881 53.6133 68.9267 53.7817Z" fill="white"/>
<path d="M69.7575 57.3263H11.5246C10.9939 57.3263 10.6425 56.7773 10.8745 56.298C10.9957 56.0475 11.2503 55.8871 11.5276 55.8871H69.4221C69.5441 56.3617 69.6508 56.844 69.7575 57.3263Z" fill="white"/>
<path d="M70.5201 60.8786H9.90017C9.38108 60.8786 9.03032 60.3436 9.2393 59.8663C9.35371 59.6051 9.6113 59.4393 9.89548 59.4393H70.2228C70.2838 59.7073 70.3371 59.9675 70.3905 60.2355C70.4362 60.4499 70.4819 60.6642 70.5201 60.8786Z" fill="white"/>
<path d="M71.206 64.4232H8.42927C7.92193 64.4232 7.57332 63.9115 7.76099 63.4381C7.87029 63.1624 8.13573 62.9839 8.43119 62.9839H70.9392C70.9468 63.0298 70.9544 63.0681 70.962 63.1064C70.9697 63.1294 70.9697 63.16 70.9773 63.1829C71.0535 63.5963 71.1374 64.0098 71.206 64.4232Z" fill="white"/>
<path d="M71.8234 67.9754H7.11866C6.6246 67.9754 6.27531 67.4923 6.43765 67.0236C6.53925 66.7303 6.81504 66.5361 7.12421 66.5361H71.5795C71.61 66.6816 71.6329 66.827 71.6557 66.9725C71.7015 67.2251 71.7472 67.4778 71.7853 67.7304C71.8006 67.8146 71.8082 67.8912 71.8234 67.9754Z" fill="white"/>
<path d="M72.372 71.52H5.96489C5.48135 71.52 5.13222 71.0572 5.27472 70.5931C5.36818 70.2887 5.64991 70.0807 5.96703 70.0807H72.1586C72.1586 70.0807 72.1663 70.119 72.1663 70.1419C72.2348 70.6013 72.3035 71.0606 72.372 71.52Z" fill="white"/>
<path d="M72.8598 75.0722H4.94595C4.47465 75.0722 4.13041 74.6277 4.25311 74.1707C4.33815 73.8539 4.62476 73.6329 4.9514 73.6329H72.6693C72.7379 74.1152 72.7989 74.5975 72.8598 75.0722Z" fill="white"/>
<path d="M73.2714 78.6168H4.07806C3.61628 78.6168 3.27247 78.1882 3.37593 77.7362C3.45083 77.409 3.74186 77.1775 4.07611 77.1775H73.1113C73.1342 77.3306 73.1494 77.4837 73.1646 77.6369C73.1799 77.7747 73.1951 77.9048 73.2104 78.0426C73.2332 78.234 73.2561 78.4254 73.2714 78.6168Z" fill="white"/>
<path d="M73.622 82.169H3.34422C2.89153 82.169 2.54816 81.757 2.63461 81.3107C2.70048 80.9706 2.99844 80.7298 3.34334 80.7298H73.4925C73.5382 81.2121 73.5839 81.6944 73.622 82.169Z" fill="white"/>
<path d="M73.9041 85.7136H2.73868C2.29887 85.7136 1.96043 85.3198 2.0252 84.8828C2.07744 84.5304 2.37957 84.2743 2.73429 84.2743H73.7897C73.8126 84.5193 73.8355 84.772 73.8507 85.0169C73.866 85.2466 73.8888 85.4839 73.9041 85.7136Z" fill="white"/>
<path d="M74.125 89.2658H2.25882C1.83219 89.2658 1.49972 88.8944 1.54902 88.4688C1.59156 88.1015 1.90151 87.8266 2.26963 87.8266H74.0412C74.0412 87.8648 74.0488 87.9108 74.0488 87.9491C74.0793 88.3931 74.1022 88.8295 74.125 89.2658Z" fill="white"/>
<path d="M74.2852 92.7415V92.8104H1.9188C1.50073 92.8104 1.17152 92.4526 1.20486 92.034C1.23466 91.6598 1.54566 91.3712 1.9194 91.3712H74.2318C74.2547 91.8305 74.2699 92.2898 74.2852 92.7415Z" fill="white"/>
<path d="M74.3843 96.3626H1.69847C1.29043 96.3626 0.963513 96.0207 0.981511 95.6113C0.998513 95.2245 1.31655 94.9234 1.70202 94.9234H74.3461C74.3614 95.4057 74.369 95.8803 74.3843 96.3626Z" fill="white"/>
<path d="M74.4149 99.869V99.9072H1.60635C1.20748 99.9072 0.884158 99.5825 0.888969 99.1819C0.893726 98.7858 1.21583 98.468 1.61023 98.468H74.4072C74.4149 98.935 74.4149 99.402 74.4149 99.869Z" fill="white"/>
<path d="M74.3996 102.02C74.3996 102.288 74.3996 102.556 74.392 102.824C74.392 103.038 74.392 103.253 74.392 103.459H1.63719C1.24722 103.459 0.927059 103.148 0.916071 102.757C0.904705 102.352 1.22983 102.02 1.6332 102.02H74.3996Z" fill="white"/>
<path d="M74.331 105.565C74.3233 106.047 74.3081 106.529 74.2852 107.004H1.79286C1.41315 107.004 1.09648 106.71 1.07185 106.33C1.04488 105.913 1.37673 105.565 1.79237 105.565H74.331Z" fill="white"/>
<path d="M74.2091 109.117C74.2015 109.339 74.1862 109.561 74.1786 109.783C74.1633 110.043 74.1557 110.296 74.1405 110.556H2.06926C1.69833 110.556 1.38594 110.276 1.34994 109.905C1.30872 109.48 1.64378 109.117 2.06853 109.117H74.2091Z" fill="white"/>
<path d="M74.0183 112.662C74.0183 112.662 74.0107 112.7 74.0107 112.715V112.731C73.9878 113.19 73.9574 113.642 73.9192 114.101H2.46969C2.11067 114.101 1.80624 113.839 1.75898 113.481C1.7017 113.048 2.03879 112.662 2.47404 112.662H74.0183Z" fill="white"/>
<path d="M73.7595 116.214C73.7519 116.336 73.7366 116.459 73.729 116.581C73.6985 116.941 73.6604 117.293 73.6299 117.653H3.00688C2.65643 117.653 2.35664 117.403 2.29958 117.056C2.22723 116.615 2.56695 116.214 3.01131 116.214H73.7595Z" fill="white"/>
<path d="M73.439 119.758C73.3933 120.233 73.34 120.715 73.2942 121.198H3.67547C3.33268 121.198 3.0365 120.955 2.96755 120.618C2.87637 120.172 3.21706 119.758 3.67035 119.758H73.439Z" fill="white"/>
<path d="M73.0581 123.311C73.0048 123.755 72.9514 124.199 72.8981 124.65C72.8904 124.681 72.8904 124.719 72.8828 124.75H4.47488C4.14243 124.75 3.85186 124.526 3.77328 124.201C3.66304 123.746 4.00954 123.311 4.4759 123.311H73.0581Z" fill="white"/>
<path d="M72.6009 126.855C72.5704 127.1 72.5323 127.345 72.5019 127.59C72.4866 127.713 72.4714 127.835 72.4485 127.958C72.4409 128.073 72.418 128.18 72.4028 128.295H5.41432C5.09224 128.295 4.80914 128.083 4.72074 127.772C4.58994 127.312 4.93533 126.855 5.41187 126.855H72.6009Z" fill="white"/>
<path d="M72.0824 130.407C72.0138 130.89 71.9375 131.364 71.8537 131.847H6.49405C6.18413 131.847 5.90893 131.65 5.81273 131.354C5.66091 130.887 6.00958 130.407 6.49871 130.407H72.0824Z" fill="white"/>
<path d="M71.4955 133.952C71.465 134.151 71.4269 134.35 71.3888 134.557C71.343 134.832 71.2897 135.116 71.244 135.391H7.72184C7.41901 135.391 7.14851 135.204 7.04444 134.918C6.87306 134.448 7.2211 133.952 7.71978 133.952H71.4955Z" fill="white"/>
<path d="M70.8402 137.504C70.7487 137.987 70.6573 138.469 70.5582 138.944H9.11005C8.81822 138.944 8.5553 138.769 8.44361 138.499C8.24779 138.024 8.59659 137.504 9.10822 137.504H70.8402Z" fill="white"/>
<path d="M70.1161 141.049C70.017 141.516 69.9103 141.991 69.8112 142.458C69.8112 142.465 69.8035 142.48 69.8035 142.488H10.6433C10.3626 142.488 10.1075 142.326 9.991 142.07C9.7739 141.592 10.1247 141.049 10.6479 141.049H70.1161Z" fill="white"/>
<path d="M69.3159 144.601C69.2015 145.083 69.0872 145.558 68.9729 146.04H12.365C12.0927 146.04 11.8428 145.885 11.7191 145.642C11.4758 145.163 11.8233 144.601 12.3589 144.601H69.3159Z" fill="white"/>
<path d="M68.4392 148.146C68.4087 148.261 68.3859 148.368 68.3554 148.483H68.3478C68.2792 148.789 68.1953 149.103 68.1115 149.417C68.0962 149.47 68.081 149.531 68.0658 149.585H14.2505C13.9929 149.585 13.7548 149.448 13.6273 149.223C13.3545 148.742 13.7038 148.146 14.2551 148.146H68.4392Z" fill="white"/>
<path d="M67.4864 151.698C67.4331 151.92 67.3645 152.142 67.3035 152.364C67.2273 152.624 67.1587 152.877 67.0824 153.137H16.3329C16.0823 153.137 15.849 153.008 15.7174 152.794C15.4215 152.312 15.7712 151.698 16.3347 151.698H67.4864Z" fill="white"/>
<path d="M66.4574 155.243C66.3125 155.725 66.1677 156.207 66.0153 156.682H18.6135C18.3746 156.682 18.1505 156.564 18.0158 156.366C17.6899 155.886 18.037 155.243 18.6154 155.243H66.4574Z" fill="white"/>
<path d="M65.3447 158.795C65.2913 158.971 65.238 159.147 65.177 159.323C65.0779 159.629 64.9788 159.935 64.8721 160.234H21.1199C20.8905 160.234 20.675 160.126 20.5389 159.94C20.1892 159.464 20.5298 158.795 21.1193 158.795H65.3447Z" fill="white"/>
<path d="M64.1556 162.339C63.9879 162.822 63.8126 163.304 63.6449 163.779H23.8643C23.6476 163.779 23.4426 163.682 23.3054 163.513C22.9216 163.042 23.2575 162.339 23.8639 162.339H64.1556Z" fill="white"/>
<path d="M62.8673 165.892C62.7225 166.282 62.5701 166.68 62.4176 167.071C62.4024 167.124 62.3871 167.17 62.3643 167.224C62.349 167.262 62.3338 167.293 62.3262 167.331H26.8851C26.6801 167.331 26.485 167.244 26.348 167.091C25.9322 166.626 26.2627 165.892 26.8849 165.892H62.8673Z" fill="white"/>
<path d="M61.4953 169.436C61.3048 169.918 61.1066 170.393 60.9008 170.875H30.1954C30.0026 170.875 29.8186 170.799 29.6837 170.66C29.239 170.204 29.5619 169.436 30.1974 169.436H61.4953Z" fill="white"/>
<path d="M60.0166 172.988C59.8717 173.348 59.7193 173.693 59.5592 174.045C59.544 174.091 59.5211 174.144 59.4983 174.19C59.4678 174.267 59.4297 174.351 59.3915 174.428H33.863C33.6828 174.428 33.5091 174.36 33.3764 174.238C32.8944 173.793 33.2121 172.988 33.8667 172.988H60.0166Z" fill="white"/>
<path d="M58.4541 176.533L58.1797 177.13C58.0502 177.413 57.9206 177.689 57.7834 177.972H37.9352C37.7677 177.972 37.6046 177.914 37.4751 177.807C36.9524 177.376 37.2608 176.533 37.9371 176.533H58.4541Z" fill="white"/>
<path d="M56.7698 180.085C56.5412 180.568 56.2973 181.05 56.0533 181.524H42.5175C42.3632 181.524 42.2133 181.476 42.0882 181.386C41.5174 180.971 41.8129 180.085 42.517 180.085H56.7698Z" fill="white"/>
<path d="M54.9786 183.63C54.9405 183.706 54.91 183.775 54.8719 183.844C54.8262 183.928 54.7804 184.013 54.7347 184.097C54.567 184.426 54.3993 184.748 54.224 185.069H47.6894C47.5516 185.069 47.417 185.03 47.3005 184.956C46.6887 184.567 46.9685 183.63 47.6926 183.63H54.9786Z" fill="white"/>
<path d="M53.073 187.182C52.9053 187.488 52.7377 187.794 52.5624 188.093C52.115 187.849 52.2925 187.182 52.8016 187.182H53.073Z" fill="white"/>
</g>
<defs>
<clipPath id="clip0_287_53">
<rect width="200" height="200" fill="white" transform="translate(0.888916)"/>
</clipPath>
</defs>
</svg>
