<svg width="48" height="48" viewBox="0 0 48 48" fill="none" xmlns="http://www.w3.org/2000/svg">
<path d="M0 24C0 10.7452 10.7452 0 24 0C37.2548 0 48 10.7452 48 24C48 37.2548 37.2548 48 24 48C10.7452 48 0 37.2548 0 24Z" fill="#A897FF"/>
<path d="M22.1318 29.8274L19.0896 35.1128C18.8094 34.9294 18.5413 34.7256 18.2813 34.5056C18.1189 34.367 17.9605 34.2285 17.8102 34.0777L23.1837 24.7457C23.2203 24.6805 23.2487 24.6112 23.2609 24.5419H25.1739L23.1228 28.1036H21.3641C21.555 28.7801 21.8109 29.3546 22.1318 29.8274Z" fill="#7300FF"/>
<path d="M24.5079 31.4083L21.6729 36.3351C21.1408 36.1762 20.6291 35.9765 20.1417 35.732L23.0011 30.7644C23.4357 31.0945 23.9393 31.3105 24.5079 31.4083Z" fill="#7300FF"/>
<path d="M30.3933 26.8811L24.6867 36.8C24.0694 36.7837 23.4804 36.7266 22.9118 36.6247L25.889 31.4493C26.7379 31.3393 27.4283 30.9563 27.9604 30.3002C28.6062 29.4851 29.0002 28.3441 29.1464 26.8811H30.3933Z" fill="#7300FF"/>
<path d="M33.6787 26.8811L28.1468 36.4943C27.5051 36.641 26.8268 36.7307 26.1119 36.7755L31.8063 26.8811H33.6787Z" fill="#7300FF"/>
<path d="M35.6 26.8811C35.5432 28.1037 35.3523 29.2243 35.0273 30.2431C34.5846 31.6409 33.8941 32.8389 32.96 33.8414H32.9559C32.8463 33.9637 32.7366 34.0737 32.6229 34.1837C31.8268 34.9417 30.9048 35.5326 29.861 35.9605L35.0883 26.8811H35.6Z" fill="#7300FF"/>
<path d="M21.892 24.5418L16.9531 33.124C16.5754 32.6513 16.2464 32.1419 15.9621 31.5877L19.9018 24.7456C20.1374 24.3381 19.8449 23.8328 19.3779 23.8328H19.3698C19.1504 23.8328 18.9514 23.9469 18.8417 24.1384L15.3569 30.1899C15.1254 29.5379 14.9426 28.8411 14.8045 28.1035H14.6867L16.62 24.7456C16.8556 24.3381 16.5632 23.8328 16.0961 23.8328H16.088C15.8686 23.8328 15.6696 23.9469 15.56 24.1384L13.2773 28.1035H12.4V26.3675L13.3342 24.7456C13.3707 24.6804 13.3992 24.6111 13.4114 24.5418H14.5527V23.4293H12.4V19.8677H14.8411C15.365 17.1578 16.5266 15.0346 18.3178 13.4983C20.1333 11.9661 22.3916 11.2 25.0925 11.2C28.2728 11.2 30.7829 12.0842 32.6228 13.861C34.4627 15.6092 35.4537 18.0339 35.5999 21.1269H29.146C28.9998 19.6639 28.6058 18.5351 27.96 17.7446C27.3183 16.9295 26.4451 16.522 25.3444 16.522C24.3899 16.522 23.5776 16.8114 22.9074 17.386C22.2372 17.9606 21.7336 18.7878 21.4006 19.8677H26.4207L25.7018 23.4293H21.0066V24.5418H21.892Z" fill="#7300FF"/>
</svg>
