<svg width="410" height="408" viewBox="0 0 410 408" fill="none" xmlns="http://www.w3.org/2000/svg">
<g clip-path="url(#clip0_287_84)">
<path d="M301.491 75.6809C301.69 76.4541 301.126 77.2273 300.333 77.2809C297.787 77.4646 295.241 77.6484 292.703 77.878C283.915 78.6819 275.096 79.1795 266.308 80.0676C261.048 80.5958 255.766 80.7949 250.499 81.2312C245.4 81.6523 240.324 82.2265 235.225 82.6705C223.609 83.6811 211.977 84.6304 200.353 85.6639C194.21 86.2074 188.051 86.6744 181.938 87.5089C180.521 87.7003 179.103 87.884 177.685 88.0448C177.662 87.6008 177.632 87.1644 177.601 86.7204C177.594 86.5673 177.578 86.4218 177.571 86.2687C177.556 86.039 177.533 85.8017 177.517 85.572C177.464 84.8218 177.403 84.0791 177.335 83.3365C183.425 82.0045 201.131 79.9527 206.466 79.3709C213.098 78.6436 219.736 77.9546 226.383 77.3039C235.514 76.4005 244.646 75.5507 253.777 74.6856C260.797 74.0196 267.817 73.3382 274.844 72.7181C282.482 72.0521 290.119 71.4166 297.749 70.7736C299.106 70.6587 300.348 71.5391 300.722 72.8559C300.988 73.7899 301.24 74.7316 301.484 75.6809H301.491Z" fill="#0A131C"/>
<path d="M298.618 126.415C299.967 126.354 300.981 127.648 300.6 128.949C300.401 129.638 300.188 130.327 299.975 131.016C299.571 132.31 298.389 133.198 297.04 133.206C284.906 133.313 226.741 133.749 212.152 132.961C205.064 132.578 197.968 132.203 190.925 131.276C186.9 130.748 182.83 130.373 178.874 129.355C177.937 129.118 177.007 128.873 176.115 128.52C176.138 128.398 176.153 128.275 176.168 128.153C176.199 127.908 176.237 127.663 176.267 127.418C176.344 126.882 176.42 126.339 176.488 125.795C176.511 125.619 176.527 125.458 176.549 125.297L176.702 124.072C176.717 123.904 176.732 123.804 176.748 123.674C181.359 125.627 196.024 126.331 199.69 126.53C209.828 127.081 219.973 127.433 230.125 127.517C240.141 127.609 250.164 127.517 260.187 127.433C270.004 127.349 279.799 126.882 289.608 126.744C291.941 126.714 295.95 126.538 298.618 126.415Z" fill="#0A131C"/>
<path d="M297.101 62.4059C297.352 63.026 296.933 63.7227 296.262 63.7839C289.395 64.4423 282.52 65.1466 275.644 65.7361C267.092 66.4634 258.556 67.3591 250.026 68.2395C242.42 69.0357 234.813 69.8702 227.213 70.7429C220.033 71.5698 212.861 72.4195 205.696 73.3382C197.944 74.3411 190.193 75.3517 182.517 76.8445C180.856 77.1661 179.202 77.5335 177.548 77.8933C177.349 77.9316 177.106 77.9699 176.953 78.0924C176.915 78.123 176.877 78.1613 176.831 78.1919C176.816 78.0388 176.801 77.8857 176.778 77.7326C176.694 77.0283 176.61 76.3239 176.526 75.6273H176.519C176.458 75.1296 176.397 74.6397 176.32 74.1497C176.267 73.721 176.282 73.8435 176.237 73.5373C177.128 73.2693 178.523 72.7105 179.385 72.4578C183.744 71.164 188.211 70.452 192.655 69.6712C200.894 68.2319 209.157 66.9534 217.465 65.9199C224.965 64.9935 232.45 63.7916 239.973 63.049C248.67 62.1915 257.306 60.8441 266.018 60.0939C273.632 59.4432 281.231 58.4785 288.846 57.7895C289.89 57.6977 290.942 57.5905 291.986 57.4756C293.678 57.2919 295.287 58.2259 295.98 59.7877C296.361 60.6528 296.735 61.5255 297.093 62.4059H297.101Z" fill="#0A131C"/>
<path d="M290.508 49.2305C290.82 49.7587 290.492 50.4324 289.883 50.5013C278.77 51.7186 231.551 57.3608 221.459 58.8307C215.232 59.7341 209.035 60.8365 202.823 61.8088C197.266 62.6815 191.755 63.7686 186.275 65.0012C182.83 65.7744 179.347 66.5553 176.084 67.9793C175.863 68.0711 175.657 68.1706 175.452 68.2855H175.444C175.406 68.0328 175.368 67.7802 175.322 67.5276C175.299 67.3821 175.276 67.2367 175.246 67.0912C175.124 66.3869 175.002 65.6825 174.872 64.9782C174.804 64.5648 174.72 64.1514 174.644 63.738C174.636 63.715 174.636 63.6844 174.628 63.6614C176.435 62.4595 178.493 61.8471 180.536 61.2116C187.327 59.1063 194.263 57.6364 201.237 56.3273C233.121 50.3406 263.381 46.8419 284.303 44.2926C286.079 44.0782 287.817 44.8974 288.785 46.4055C289.265 47.1481 289.982 48.3501 290.508 49.2305Z" fill="#0A131C"/>
<path d="M293.473 140.601C294.86 140.593 295.782 142.04 295.195 143.296C294.822 144.1 294.433 144.904 294.037 145.692C293.45 146.863 292.261 147.606 290.958 147.583C279.837 147.399 227.823 146.488 219.134 145.845C210.948 145.248 186.313 143.434 174.385 138.718V138.702C174.491 138.159 174.598 137.585 174.712 137.011C174.781 136.658 174.842 136.306 174.903 135.946C174.949 135.671 175.002 135.388 175.048 135.112C175.101 134.836 175.147 134.576 175.185 134.308L175.261 133.849C175.635 133.979 176.351 134.285 176.717 134.408C183.905 136.811 191.405 137.447 198.867 138.22C216.71 140.065 234.63 140.616 252.557 140.884C254.371 140.907 283.93 140.67 293.465 140.601H293.473Z" fill="#0A131C"/>
<path d="M304.555 102.92C304.563 103.999 303.717 104.887 302.642 104.941C294.753 105.331 286.88 105.875 278.983 106.219C269.059 106.656 259.135 107.222 249.203 107.582C237.374 108.026 225.544 108.539 211.672 108.669C204.614 108.761 195.528 108.983 186.435 108.669C183.6 108.577 180.757 108.585 177.937 108.11L177.914 108.08C177.967 107.406 177.997 106.74 178.005 106.066C178.028 105.324 178.043 104.573 178.051 103.816C178.051 103.509 178.028 103.463 178.051 103.18C178.844 103.203 180.246 103.364 181.023 103.394C188.127 103.616 195.231 103.371 202.335 103.218C206.893 103.119 211.459 102.981 216.024 102.782C226.794 102.307 237.564 101.825 248.327 101.289C261.163 100.654 273.998 99.98 286.834 99.2757C292.047 98.9848 297.124 98.5637 302.436 98.2575C303.481 98.1962 304.38 99.0077 304.449 100.064C304.517 101.121 304.548 102.108 304.555 102.92Z" fill="#0A131C"/>
<path d="M303.961 89.1243C304.075 90.1348 303.313 91.0382 302.299 91.0994C298.74 91.3291 290.889 91.8267 286.43 92.1253C275.378 92.8449 264.326 93.5263 253.281 94.2842C241.848 95.0804 230.407 95.578 218.974 96.29C208.852 96.9254 181.816 98.0967 178.439 98.0967C178.317 98.0967 178.188 98.112 178.066 98.112C178.066 97.8747 178.058 97.6374 178.058 97.4C178.058 97.2393 178.058 97.0862 178.058 96.9254C178.043 96.4431 178.035 95.9684 178.02 95.4861C178.005 94.7741 177.982 94.0698 177.952 93.3732V93.3043H177.959C178.028 93.2966 178.096 93.2966 178.165 93.2889C180.863 93.0822 183.561 92.9062 186.26 92.7148C196.755 91.9645 207.251 91.153 217.754 90.4717C230.956 89.6219 244.142 88.5577 257.351 87.7386C269.204 87.0036 281.041 86.0007 292.878 85.105C295.63 84.8983 298.397 84.8064 301.148 84.5538C302.368 84.439 303.465 85.3041 303.641 86.5213C303.763 87.3864 303.869 88.2592 303.968 89.1319L303.961 89.1243Z" fill="#0A131C"/>
<path d="M303.275 116.922C303.115 118.093 302.147 118.981 300.973 119.05C298.778 119.173 296.575 119.326 294.372 119.395C281.399 119.824 268.434 120.482 255.454 120.589C253.639 120.604 234.698 121.003 227.046 120.941C216.604 120.857 206.161 120.849 195.727 120.252C190.025 119.931 184.339 119.632 178.706 118.629C178.234 118.545 177.761 118.407 177.296 118.277C177.334 117.894 177.365 117.519 177.395 117.136C177.403 117.014 177.418 116.891 177.426 116.769C177.487 116.065 177.54 115.36 177.586 114.656C177.624 114.197 177.654 113.745 177.677 113.286C177.677 113.278 177.677 113.224 177.677 113.217C178.691 113.416 179.712 113.768 180.741 113.89C184.232 114.311 187.731 114.587 191.237 114.679C201.931 114.955 212.625 115.1 223.326 114.932C235.545 114.732 247.763 114.549 259.973 114.097C268.968 113.768 277.977 113.546 286.963 113.033C291.826 112.757 296.689 112.673 301.537 112.329C302.741 112.244 303.725 113.255 303.587 114.457C303.496 115.222 303.389 116.095 303.275 116.914V116.922Z" fill="#0A131C"/>
<path d="M286.864 157.842C286.514 158.355 286.148 158.868 285.79 159.373C284.753 160.82 283.084 161.677 281.316 161.677C280.53 161.677 279.738 161.677 278.953 161.677C271.392 161.555 263.823 161.302 256.262 160.98C241.52 160.36 226.794 159.442 212.129 157.78C204.187 156.877 196.268 155.79 188.44 154.152C183.447 153.11 178.462 151.939 173.744 149.887C173.15 149.627 172.578 149.352 172.029 149.038H172.022C172.052 148.923 172.083 148.816 172.113 148.701C172.296 148.004 172.471 147.3 172.647 146.595C172.761 146.113 172.875 145.639 172.99 145.156C173.058 144.873 173.119 144.59 173.188 144.306C174.613 145.034 176.199 145.47 177.784 145.929C184.255 147.79 190.848 149.038 197.51 149.964C208.151 151.449 218.837 152.414 229.554 153.11C242.93 153.983 256.315 154.511 269.722 154.68C273.922 154.733 280.988 154.756 285.271 154.772C286.834 154.772 287.756 156.548 286.872 157.834L286.864 157.842Z" fill="#0A131C"/>
<path d="M281.346 36.2541C281.765 36.7594 281.46 37.5326 280.813 37.6168C272.581 38.6963 235.949 43.6878 231.939 44.3691C225.361 45.4869 218.784 46.6429 212.221 47.8601C207.777 48.6869 203.341 49.5597 198.936 50.5626C193.006 51.9176 187.068 53.2421 181.283 55.1636C180.223 55.5158 175.017 57.3149 173.478 58.1264C173.462 58.0422 173.44 57.9656 173.424 57.8814C173.356 57.5828 173.295 57.2919 173.226 57.001C173.028 56.1283 172.822 55.2632 172.609 54.3981C172.51 54.0076 172.578 54.2756 172.464 53.8316C172.921 53.3646 174.651 52.4153 175.246 52.1703C180.269 50.1032 185.33 48.151 190.62 46.8343C195.498 45.6247 200.391 44.484 205.277 43.305C209.591 42.2562 213.944 41.3681 218.288 40.5643C222.77 39.7374 227.252 38.8647 231.749 38.0991C236.589 37.2723 264.989 33.0004 274.105 31.6377C275.866 31.3774 277.634 32.0129 278.823 33.3373C279.684 34.2943 280.523 35.2589 281.338 36.2465L281.346 36.2541Z" fill="#0A131C"/>
<path d="M275.157 171.882C274.829 172.211 274.494 172.541 274.158 172.87C272.344 174.631 269.875 175.549 267.359 175.442C267.169 175.434 266.971 175.427 266.78 175.419C257.237 174.967 247.702 174.363 238.182 173.536C228.799 172.724 219.431 171.668 210.117 170.282C202.091 169.096 194.103 167.679 186.237 165.681C180.543 164.234 174.888 162.611 169.72 159.702C169.491 159.572 169.255 159.442 169.034 159.304C169.301 158.508 169.552 157.704 169.804 156.9C169.918 156.533 170.025 156.173 170.132 155.805C170.269 155.384 170.391 154.963 170.513 154.534C171.404 154.978 172.35 155.346 173.264 155.744C178.31 157.964 183.653 159.25 189.004 160.498C194.812 161.853 200.696 162.803 206.588 163.668C214.652 164.854 222.77 165.696 230.895 166.424C242.748 167.48 264.867 168.422 273.953 168.782C275.53 168.843 276.285 170.764 275.165 171.882H275.157Z" fill="#0A131C"/>
<path d="M268.716 23.5686C269.349 24.1045 269.029 25.1381 268.205 25.2376C263.83 25.7735 259.486 26.5008 255.126 27.1898C248.906 28.1621 242.709 29.2721 236.513 30.3669C230.194 31.4846 223.906 32.8014 217.617 34.0875C211.367 35.3584 205.148 36.7517 198.974 38.3518C191.214 40.3575 183.463 42.4399 176.1 45.7318C174.324 46.528 172.517 47.1022 171.191 48.664C171.168 48.6869 171.145 48.7176 171.122 48.7405C171.115 48.7252 171.115 48.7022 171.107 48.6869C170.977 48.2046 170.84 47.7223 170.695 47.2477C170.574 46.8113 170.444 46.3673 170.314 45.9385C170.299 45.8926 170.292 45.8543 170.276 45.8084C170.154 45.395 170.032 44.9892 169.91 44.5835C171.328 42.1949 173.943 41.1461 176.366 39.9901C179.842 38.3441 183.501 37.1651 187.136 35.9249C195.422 33.1 203.89 30.9258 212.396 28.9582C217.168 27.8482 221.924 26.6615 226.764 25.8347C232 24.939 237.176 23.6605 242.405 22.7112C248.548 21.5935 254.722 20.6135 260.888 19.5647C262.298 19.3274 263.762 19.6566 264.905 20.5293C266.201 21.5169 267.474 22.5275 268.716 23.5763V23.5686Z" fill="#0A131C"/>
<path d="M258.022 185.632C257.664 185.861 257.306 186.083 256.947 186.305C254.432 187.86 251.467 188.495 248.533 188.212C242.458 187.63 236.375 187.056 230.316 186.229C225.422 185.563 220.514 184.92 215.635 184.147C208.212 182.96 200.81 181.597 193.501 179.813C186.069 177.999 178.683 176.016 171.679 172.854C169.491 171.867 167.349 170.787 165.406 169.371C165.604 168.881 165.794 168.384 165.985 167.886C166.015 167.802 166.053 167.717 166.084 167.626C166.236 167.235 166.381 166.845 166.526 166.447C166.602 166.255 166.678 166.056 166.747 165.865C166.907 165.428 167.067 164.992 167.227 164.548C167.555 164.755 167.898 164.954 168.233 165.153C174.057 168.521 180.459 170.412 186.923 172.135C193.097 173.781 199.339 175.029 205.62 176.154C214.027 177.662 222.48 178.78 230.964 179.745C236.718 180.403 242.481 180.939 248.251 181.452C250.537 181.658 254.112 181.903 257.13 182.11C258.967 182.233 259.577 184.644 258.022 185.632Z" fill="#0A131C"/>
<path d="M252.671 12.5827C253.235 12.8813 253.106 13.7234 252.481 13.8383C249.699 14.3435 246.917 14.8488 244.135 15.3771C240.987 15.9665 237.831 16.5484 234.698 17.2297C228.265 18.6384 221.825 20.0394 215.422 21.5705C211.032 22.6193 206.657 23.76 202.289 24.939C197.64 26.2022 193.013 27.5573 188.47 29.1037C182.205 31.2396 175.955 33.4827 170.368 37.1881C169.537 37.7317 168.767 38.3365 168.127 39.0791H168.119C168.073 38.9642 168.035 38.8341 167.989 38.7116C167.746 38.0073 167.494 37.2953 167.242 36.5986C167.075 36.1163 166.899 35.634 166.717 35.1593C166.64 34.9526 166.564 34.7459 166.488 34.5392C166.884 34.0646 167.364 33.6435 167.845 33.2454C171.259 30.4205 175.2 28.4759 179.232 26.7304C183.722 24.7782 188.318 23.0787 192.967 21.5935C199.522 19.4958 206.1 17.49 212.785 15.8594C218.738 14.4124 224.675 12.8966 230.643 11.5339C233.913 10.7913 237.191 10.1176 240.468 9.44391C243.197 8.88504 246.025 9.24486 248.525 10.4774C249.882 11.1435 251.383 11.9014 252.679 12.5904L252.671 12.5827Z" fill="#0A131C"/>
<path d="M232.923 193.731C234.699 193.992 234.866 196.488 233.144 197C232.473 197.199 231.634 197.429 230.75 197.651C226.642 198.708 222.351 198.838 218.174 198.088C218.151 198.088 218.136 198.088 218.113 198.08C211.588 196.901 205.064 195.668 198.623 194.076C193.501 192.805 188.386 191.481 183.371 189.819C178.356 188.166 173.417 186.336 168.668 184.032C166.107 182.784 163.211 181.084 161 179.331L161.267 178.91C161.473 178.489 161.663 178.099 161.846 177.693L162.121 177.096C162.159 177.019 162.189 176.935 162.227 176.858C162.509 176.238 162.791 175.618 163.058 174.99C163.096 174.914 163.134 174.83 163.165 174.753C163.188 174.707 163.211 174.654 163.226 174.608C167.197 177.616 171.778 179.492 176.404 181.276C180.033 182.677 183.714 183.902 187.464 184.92C191.984 186.137 196.535 187.285 201.115 188.281C206.687 189.49 212.282 190.57 217.915 191.496C222.412 192.231 226.932 192.851 231.444 193.517C231.939 193.594 232.427 193.663 232.923 193.731Z" fill="#0A131C"/>
<path d="M228.921 3.19687C229.775 3.41123 229.752 4.62848 228.898 4.82753C222.153 6.4046 215.453 8.14244 208.791 10.0257C202.007 11.932 195.3 14.0909 188.676 16.5024C183.074 18.5389 177.533 20.7131 172.327 23.6452C169.461 25.2529 166.58 26.9142 164.544 29.5937C164.529 29.563 164.514 29.5248 164.499 29.4941C164.438 29.3487 164.377 29.2032 164.316 29.0578C164.179 28.7209 164.041 28.3841 163.897 28.0549C163.576 27.297 162.906 25.7811 162.57 25.0309C162.868 24.74 162.784 24.8242 163.02 24.5639C164.819 22.0911 167.487 20.5064 170.109 18.8834C175.276 15.6986 180.833 13.3177 186.466 11.1205C190.551 9.52046 194.713 8.11181 198.875 6.70317C202.51 5.4706 206.169 4.30694 209.85 3.22749C211.695 2.68394 213.54 2.16335 215.392 1.65807C216.924 1.23701 218.532 1.16046 220.11 1.40544C223.09 1.87243 226.032 2.46958 228.921 3.19687Z" fill="#0A131C"/>
<path d="M196.161 0.555652C196.291 0.547997 196.329 0.731733 196.214 0.777667C193.592 1.73463 187.342 4.10023 183.302 5.73855C178.767 7.57591 174.377 9.72716 170.154 12.1923C166.473 14.3512 162.784 16.5867 160.322 20.2461C160.101 19.7791 159.872 19.3197 159.636 18.8604C159.399 18.3781 159.156 17.8958 158.904 17.4211C158.645 16.9082 158.378 16.4106 158.111 15.9053C159.285 13.777 161.236 12.1693 163.203 10.6305L163.256 10.5923C166.191 8.3032 169.468 6.49646 172.99 5.32514C180.368 2.85236 188.127 1.22935 196.161 0.555652Z" fill="#0A131C"/>
<path d="M193.745 199.703C194.263 199.841 194.111 200.606 193.585 200.553C180.154 199.083 167.525 194.933 156.229 188.656C156.404 188.357 156.572 188.051 156.739 187.745C157.128 187.048 157.509 186.344 157.89 185.632C158.111 185.226 158.317 184.828 158.53 184.407H158.538C161.442 186.933 164.834 188.755 168.271 190.508C174.125 193.494 180.307 195.661 186.542 197.605C188.927 198.348 191.336 199.052 193.745 199.711V199.703Z" fill="#0A131C"/>
<path d="M157.792 15.3008H154.408C153.666 15.3008 153.397 14.3375 154.038 13.9618C154.15 13.8959 154.278 13.8616 154.408 13.8616H157.014C157.083 13.9764 157.144 14.0836 157.205 14.1984C157.403 14.5659 157.593 14.9334 157.792 15.3008Z" fill="#0A131C"/>
<path d="M159.636 18.8531H148.802C148.094 18.8531 147.806 17.9431 148.391 17.5412C148.511 17.4584 148.654 17.4138 148.8 17.4138H158.904C159.156 17.8885 159.4 18.3708 159.636 18.8531Z" fill="#0A131C"/>
<path d="M161.366 22.3977H143.947C143.253 22.3977 142.95 21.5288 143.502 21.1073C143.629 21.0102 143.785 20.9584 143.944 20.9584H160.673C160.711 21.0273 160.741 21.0885 160.772 21.1574C160.97 21.5708 161.168 21.9842 161.366 22.3977Z" fill="#0A131C"/>
<path d="M162.982 25.9499H139.61C138.943 25.9499 138.63 25.1272 139.133 24.6885C139.265 24.5739 139.434 24.5106 139.608 24.5106H162.342C162.433 24.7173 162.532 24.9317 162.624 25.1461C162.746 25.414 162.86 25.6819 162.982 25.9499Z" fill="#0A131C"/>
<path d="M164.499 29.4945H135.744C135.096 29.4945 134.773 28.7097 135.24 28.2582C135.375 28.128 135.555 28.0552 135.743 28.0552H163.897C164.042 28.3844 164.179 28.7213 164.316 29.0581C164.377 29.2036 164.438 29.349 164.499 29.4945Z" fill="#0A131C"/>
<path d="M165.924 33.0467H132.251C131.622 33.0467 131.292 32.2936 131.724 31.8334C131.86 31.6888 132.049 31.6074 132.247 31.6074H165.353C165.551 32.0821 165.734 32.5644 165.924 33.0467Z" fill="#0A131C"/>
<path d="M167.243 36.5913H129.085C128.469 36.5913 128.132 35.873 128.534 35.4042C128.671 35.2439 128.872 35.152 129.083 35.152H166.717L167.037 36.0248C167.106 36.2085 167.174 36.3999 167.243 36.5913Z" fill="#0A131C"/>
<path d="M168.486 40.1435H126.194C125.595 40.1435 125.253 39.4582 125.622 38.9834C125.759 38.8069 125.97 38.7043 126.192 38.7043H167.998C168.028 38.7885 168.059 38.8804 168.089 38.9646C168.104 39.0028 168.112 39.0335 168.127 39.0717C168.242 39.4316 168.364 39.7914 168.486 40.1435Z" fill="#0A131C"/>
<path d="M169.629 43.6881H123.568C122.987 43.6881 122.646 43.0292 122.981 42.5519C123.116 42.3607 123.333 42.2489 123.566 42.2489H169.179C169.332 42.7235 169.484 43.2058 169.629 43.6881Z" fill="#0A131C"/>
<path d="M170.696 47.2404H121.172C120.601 47.2404 120.255 46.607 120.566 46.127C120.698 45.9226 120.924 45.8011 121.167 45.8011H170.277C170.292 45.847 170.299 45.8853 170.315 45.9312C170.444 46.3676 170.574 46.804 170.696 47.2404Z" fill="#0A131C"/>
<path d="M171.679 50.7849H118.986C118.429 50.7849 118.083 50.1809 118.366 49.6999C118.496 49.4793 118.732 49.3457 118.987 49.3457H171.29C171.427 49.828 171.557 50.3026 171.679 50.7849Z" fill="#0A131C"/>
<path d="M172.593 54.3372H116.994C116.451 54.3372 116.102 53.7606 116.358 53.2804C116.484 53.0456 116.729 52.8979 116.994 52.8979H172.235C172.311 53.2118 172.388 53.518 172.464 53.8319C172.51 54.0003 172.548 54.1687 172.593 54.3372Z" fill="#0A131C"/>
<path d="M173.424 57.8817H115.191C114.661 57.8817 114.309 57.3328 114.541 56.8534C114.662 56.603 114.917 56.4425 115.194 56.4425H173.089C173.211 56.9171 173.318 57.3994 173.424 57.8817Z" fill="#0A131C"/>
<path d="M174.187 61.434H113.567C113.048 61.434 112.697 60.899 112.906 60.4218C113.02 60.1605 113.278 59.9947 113.562 59.9947H173.89C173.951 60.2627 174.004 60.523 174.057 60.7909C174.103 61.0053 174.149 61.2196 174.187 61.434Z" fill="#0A131C"/>
<path d="M174.873 64.9786H112.096C111.589 64.9786 111.24 64.4669 111.428 63.9935C111.537 63.7178 111.802 63.5393 112.098 63.5393H174.606C174.614 63.5852 174.621 63.6235 174.629 63.6618C174.636 63.6848 174.636 63.7154 174.644 63.7384C174.72 64.1518 174.804 64.5652 174.873 64.9786Z" fill="#0A131C"/>
<path d="M175.49 68.5308H110.785C110.291 68.5308 109.942 68.0477 110.104 67.5791C110.206 67.2858 110.482 67.0915 110.791 67.0915H175.246C175.277 67.237 175.3 67.3825 175.322 67.5279C175.368 67.7805 175.414 68.0332 175.452 68.2858C175.467 68.37 175.475 68.4466 175.49 68.5308Z" fill="#0A131C"/>
<path d="M176.039 72.0754H109.632C109.148 72.0754 108.799 71.6126 108.941 71.1485C109.035 70.8441 109.317 70.6361 109.634 70.6361H175.825C175.825 70.6361 175.833 70.6744 175.833 70.6974C175.902 71.1567 175.97 71.616 176.039 72.0754Z" fill="#0A131C"/>
<path d="M176.527 75.6276H108.613C108.141 75.6276 107.797 75.1832 107.92 74.7261C108.005 74.4093 108.292 74.1883 108.618 74.1883H176.336C176.405 74.6707 176.466 75.153 176.527 75.6276Z" fill="#0A131C"/>
<path d="M176.938 79.1722H107.745C107.283 79.1722 106.939 78.7436 107.043 78.2916C107.118 77.9644 107.409 77.7329 107.743 77.7329H176.778C176.801 77.886 176.816 78.0392 176.831 78.1923C176.847 78.3301 176.862 78.4602 176.877 78.598C176.9 78.7894 176.923 78.9808 176.938 79.1722Z" fill="#0A131C"/>
<path d="M177.289 82.7244H107.011C106.558 82.7244 106.215 82.3124 106.301 81.8661C106.367 81.5261 106.665 81.2852 107.01 81.2852H177.159C177.205 81.7675 177.251 82.2498 177.289 82.7244Z" fill="#0A131C"/>
<path d="M177.571 86.269H106.405C105.966 86.269 105.627 85.8752 105.692 85.4383C105.744 85.0859 106.046 84.8298 106.401 84.8298H177.456C177.479 85.0747 177.502 85.3274 177.517 85.5724C177.533 85.802 177.556 86.0394 177.571 86.269Z" fill="#0A131C"/>
<path d="M177.792 89.8213H105.926C105.499 89.8213 105.166 89.4498 105.216 89.0242C105.258 88.6569 105.568 88.382 105.936 88.382H177.708C177.708 88.4203 177.716 88.4662 177.716 88.5045C177.746 88.9485 177.769 89.3849 177.792 89.8213Z" fill="#0A131C"/>
<path d="M177.952 93.2969V93.3658H105.586C105.167 93.3658 104.838 93.008 104.872 92.5894C104.901 92.2152 105.212 91.9266 105.586 91.9266H177.899C177.921 92.3859 177.937 92.8453 177.952 93.2969Z" fill="#0A131C"/>
<path d="M178.051 96.9181H105.365C104.957 96.9181 104.63 96.5762 104.648 96.1667C104.665 95.7799 104.983 95.4788 105.369 95.4788H178.013C178.028 95.9611 178.036 96.4358 178.051 96.9181Z" fill="#0A131C"/>
<path d="M178.082 100.424V100.463H105.273C104.874 100.463 104.551 100.138 104.556 99.7373C104.56 99.3412 104.883 99.0234 105.277 99.0234H178.074C178.082 99.4904 178.082 99.9574 178.082 100.424Z" fill="#0A131C"/>
<path d="M178.066 102.576C178.066 102.844 178.066 103.112 178.059 103.379C178.059 103.594 178.059 103.808 178.059 104.015H105.304C104.914 104.015 104.594 103.704 104.583 103.312C104.571 102.907 104.897 102.576 105.3 102.576H178.066Z" fill="#0A131C"/>
<path d="M177.998 106.12C177.99 106.603 177.975 107.085 177.952 107.559H105.46C105.08 107.559 104.763 107.266 104.739 106.885C104.712 106.469 105.043 106.12 105.459 106.12H177.998Z" fill="#0A131C"/>
<path d="M177.876 109.672C177.868 109.894 177.853 110.116 177.845 110.338C177.83 110.599 177.822 110.851 177.807 111.112H105.736C105.365 111.112 105.053 110.831 105.017 110.46C104.975 110.036 105.311 109.672 105.735 109.672H177.876Z" fill="#0A131C"/>
<path d="M177.685 113.217C177.685 113.217 177.677 113.255 177.677 113.271V113.286C177.655 113.745 177.624 114.197 177.586 114.656H106.136C105.777 114.656 105.473 114.394 105.426 114.037C105.368 113.603 105.706 113.217 106.141 113.217H177.685Z" fill="#0A131C"/>
<path d="M177.426 116.769C177.419 116.892 177.403 117.014 177.396 117.137C177.365 117.497 177.327 117.849 177.297 118.209H106.674C106.323 118.209 106.023 117.958 105.966 117.611C105.894 117.171 106.234 116.769 106.678 116.769H177.426Z" fill="#0A131C"/>
<path d="M177.106 120.314C177.06 120.788 177.007 121.271 176.961 121.753H107.342C106.999 121.753 106.703 121.51 106.634 121.173C106.543 120.727 106.884 120.314 107.337 120.314H177.106Z" fill="#0A131C"/>
<path d="M176.725 123.866C176.672 124.31 176.618 124.754 176.565 125.206C176.557 125.236 176.557 125.275 176.55 125.305H108.142C107.809 125.305 107.519 125.081 107.44 124.757C107.33 124.302 107.676 123.866 108.143 123.866H176.725Z" fill="#0A131C"/>
<path d="M176.268 127.411C176.237 127.656 176.199 127.901 176.169 128.146C176.153 128.268 176.138 128.391 176.115 128.513C176.108 128.628 176.085 128.735 176.07 128.85H109.081C108.759 128.85 108.476 128.638 108.387 128.327C108.257 127.867 108.602 127.411 109.079 127.411H176.268Z" fill="#0A131C"/>
<path d="M175.749 130.963C175.681 131.445 175.604 131.92 175.52 132.402H110.161C109.851 132.402 109.576 132.206 109.479 131.91C109.328 131.443 109.676 130.963 110.165 130.963H175.749Z" fill="#0A131C"/>
<path d="M175.162 134.507C175.132 134.707 175.094 134.906 175.056 135.112C175.01 135.388 174.956 135.671 174.911 135.947H111.389C111.086 135.947 110.815 135.759 110.711 135.474C110.54 135.003 110.888 134.507 111.387 134.507H175.162Z" fill="#0A131C"/>
<path d="M174.507 138.06C174.415 138.542 174.324 139.024 174.225 139.499H112.777C112.485 139.499 112.222 139.325 112.11 139.054C111.915 138.579 112.263 138.06 112.775 138.06H174.507Z" fill="#0A131C"/>
<path d="M173.783 141.604C173.684 142.071 173.577 142.546 173.478 143.013C173.478 143.021 173.47 143.036 173.47 143.044H114.31C114.029 143.044 113.774 142.882 113.658 142.625C113.441 142.147 113.791 141.604 114.315 141.604H173.783Z" fill="#0A131C"/>
<path d="M172.983 145.157C172.868 145.639 172.754 146.113 172.64 146.596H116.032C115.759 146.596 115.51 146.441 115.386 146.197C115.143 145.718 115.49 145.157 116.026 145.157H172.983Z" fill="#0A131C"/>
<path d="M172.106 148.701C172.075 148.816 172.053 148.923 172.022 149.038H172.015C171.946 149.344 171.862 149.658 171.778 149.972C171.763 150.026 171.748 150.087 171.732 150.14H117.917C117.66 150.14 117.422 150.004 117.294 149.779C117.021 149.298 117.371 148.701 117.922 148.701H172.106Z" fill="#0A131C"/>
<path d="M171.153 152.253C171.1 152.475 171.031 152.697 170.97 152.919C170.894 153.18 170.825 153.432 170.749 153.693H120C119.749 153.693 119.516 153.564 119.384 153.349C119.088 152.868 119.438 152.253 120.001 152.253H171.153Z" fill="#0A131C"/>
<path d="M170.124 155.798C169.979 156.28 169.834 156.763 169.682 157.237H122.28C122.041 157.237 121.817 157.12 121.683 156.921C121.357 156.441 121.704 155.798 122.282 155.798H170.124Z" fill="#0A131C"/>
<path d="M169.011 159.35C168.958 159.526 168.905 159.702 168.844 159.878C168.745 160.185 168.646 160.491 168.539 160.789H124.787C124.557 160.789 124.342 160.681 124.206 160.496C123.856 160.019 124.197 159.35 124.786 159.35H169.011Z" fill="#0A131C"/>
<path d="M167.822 162.895C167.655 163.377 167.479 163.859 167.312 164.334H127.531C127.314 164.334 127.109 164.237 126.972 164.069C126.588 163.597 126.924 162.895 127.531 162.895H167.822Z" fill="#0A131C"/>
<path d="M166.534 166.447C166.389 166.837 166.237 167.236 166.084 167.626C166.069 167.68 166.054 167.725 166.031 167.779C166.016 167.817 166.001 167.848 165.993 167.886H130.552C130.347 167.886 130.152 167.8 130.015 167.646C129.599 167.181 129.929 166.447 130.552 166.447H166.534Z" fill="#0A131C"/>
<path d="M165.162 169.992C164.972 170.474 164.773 170.949 164.568 171.431H133.862C133.669 171.431 133.485 171.354 133.35 171.216C132.906 170.76 133.229 169.992 133.864 169.992H165.162Z" fill="#0A131C"/>
<path d="M163.683 173.544C163.538 173.904 163.386 174.248 163.226 174.6C163.211 174.646 163.188 174.7 163.165 174.746C163.135 174.822 163.096 174.907 163.058 174.983H137.53C137.35 174.983 137.176 174.916 137.043 174.793C136.561 174.348 136.879 173.544 137.533 173.544H163.683Z" fill="#0A131C"/>
<path d="M162.121 177.088L161.846 177.686C161.717 177.969 161.587 178.244 161.45 178.528H141.602C141.434 178.528 141.271 178.469 141.142 178.362C140.619 177.931 140.928 177.088 141.604 177.088H162.121Z" fill="#0A131C"/>
<path d="M160.437 180.641C160.208 181.123 159.964 181.605 159.72 182.08H146.184C146.03 182.08 145.88 182.032 145.755 181.941C145.184 181.527 145.48 180.641 146.184 180.641H160.437Z" fill="#0A131C"/>
<path d="M158.645 184.185C158.607 184.262 158.577 184.331 158.539 184.4C158.493 184.484 158.447 184.568 158.401 184.652C158.234 184.981 158.066 185.303 157.891 185.624H151.356C151.218 185.624 151.084 185.586 150.967 185.512C150.355 185.123 150.635 184.185 151.359 184.185H158.645Z" fill="#0A131C"/>
<path d="M156.74 187.737C156.572 188.044 156.404 188.35 156.229 188.648C155.782 188.405 155.959 187.737 156.468 187.737H156.74Z" fill="#0A131C"/>
</g>
<path d="M4.6001 405V400.911C21.489 400.911 23.4445 398.067 23.4445 387.222V280.378C23.4445 269.533 21.489 266.689 4.6001 266.689V262.778H53.489C82.1112 262.778 101.311 275.222 101.311 302.422C101.311 329.089 82.8223 343.489 57.7557 343.667C50.1112 343.667 44.2445 342.422 38.7334 340.467V387.222C38.7334 398.067 40.8668 400.911 57.9334 400.911V405H4.6001ZM55.4445 336.556C75.1779 336.556 85.6668 322.689 85.6668 302.778C85.6668 280.2 71.9779 269.356 53.6668 269.356C49.0445 269.356 45.489 270.067 42.1112 271.311C39.8001 272.2 38.7334 273.8 38.7334 276.111V333.533C43.5334 335.133 48.689 336.556 55.4445 336.556Z" fill="#0A131C"/>
<path d="M146.804 407.845C137.738 407.845 132.404 401.267 132.404 386.333V381.178C127.96 398.422 118.893 407.845 106.626 407.845C94.3598 407.845 87.6043 398.422 87.6043 387.045C87.6043 364.822 112.315 354.867 132.404 345.622V335.133C132.404 319.845 127.071 314.333 118.182 314.333C110.893 314.333 105.382 318.067 105.382 324.289C105.382 328.556 107.871 330.511 107.871 334.422C107.871 338.511 105.204 341.533 100.404 341.533C94.8931 341.533 92.0487 337.267 92.0487 331.045C92.0487 318.245 103.96 307.933 120.493 307.933C135.782 307.933 145.915 316.645 145.915 335.667V389.178C145.915 398.422 147.871 400.556 150.893 400.556C154.626 400.556 157.471 397.178 157.649 385.445H161.56C161.204 398.245 157.649 407.845 146.804 407.845ZM101.293 383.489C101.293 391.133 104.849 396.467 111.604 396.467C119.249 396.467 127.249 389.533 132.404 372.467V351.133C117.115 358.956 101.293 367.667 101.293 383.489Z" fill="#0A131C"/>
<path d="M149.725 405V400.911C160.036 400.911 161.458 398.6 161.458 387.222V330.333C161.458 318.778 161.458 316.645 150.97 320.911L149.37 317L163.236 311.489L172.303 307.756L174.97 310.245V326.6H175.503C180.303 316.822 188.481 307.933 197.725 307.933C203.592 307.933 206.614 311.133 206.614 316.289C206.614 322.333 203.058 325.889 199.147 325.889C196.303 325.889 195.058 324.645 193.103 322.511C190.97 320.556 190.081 319.845 188.125 319.845C184.036 319.845 179.236 325.533 174.97 336.911V386.689C174.97 398.422 177.281 400.911 193.103 400.911V405H149.725Z" fill="#0A131C"/>
<path d="M254.04 407.845C244.974 407.845 239.64 401.267 239.64 386.333V381.178C235.196 398.422 226.129 407.845 213.863 407.845C201.596 407.845 194.84 398.422 194.84 387.045C194.84 364.822 219.551 354.867 239.64 345.622V335.133C239.64 319.845 234.307 314.333 225.418 314.333C218.129 314.333 212.618 318.067 212.618 324.289C212.618 328.556 215.107 330.511 215.107 334.422C215.107 338.511 212.44 341.533 207.64 341.533C202.129 341.533 199.285 337.267 199.285 331.045C199.285 318.245 211.196 307.933 227.729 307.933C243.018 307.933 253.151 316.645 253.151 335.667V389.178C253.151 398.422 255.107 400.556 258.129 400.556C261.863 400.556 264.707 397.178 264.885 385.445H268.796C268.44 398.245 264.885 407.845 254.04 407.845ZM208.529 383.489C208.529 391.133 212.085 396.467 218.84 396.467C226.485 396.467 234.485 389.533 239.64 372.467V351.133C224.351 358.956 208.529 367.667 208.529 383.489Z" fill="#0A131C"/>
<path d="M281.838 387.222C281.838 398.6 283.438 400.911 293.926 400.911V405H256.238V400.911C266.726 400.911 268.326 398.6 268.326 387.222V281.8C268.326 270.422 268.504 268.467 258.015 273.445L256.238 269.889L270.104 263.311L279.526 258.689L281.838 261V387.222Z" fill="#0A131C"/>
<path d="M310.803 387.222C310.803 398.6 312.403 400.911 322.892 400.911V405H285.203V400.911C295.692 400.911 297.292 398.6 297.292 387.222V281.8C297.292 270.422 297.47 268.467 286.981 273.445L285.203 269.889L299.07 263.311L308.492 258.689L310.803 261V387.222Z" fill="#0A131C"/>
<path d="M360.622 346.333C360.622 329.622 356.889 314.689 345.689 314.689C334.667 314.689 329.333 328.733 328.089 346.333H360.622ZM314.045 359.489C314.045 331.4 325.778 308.111 345.689 308.111C364.711 308.111 374.489 326.778 374.489 352.911H327.733V354.867C327.733 378.689 335.556 396.645 349.956 396.645C357.956 396.645 367.378 390.067 371.467 367.311H375.556C372.178 395.756 360.445 407.845 344.8 407.845C325.6 407.845 314.045 388.289 314.045 359.489Z" fill="#0A131C"/>
<path d="M392.518 387.222C392.518 398.6 394.118 400.911 404.607 400.911V405H366.918V400.911C377.407 400.911 379.007 398.6 379.007 387.222V281.8C379.007 270.422 379.185 268.467 368.696 273.445L366.918 269.889L380.785 263.311L390.207 258.689L392.518 261V387.222Z" fill="#0A131C"/>
<defs>
<clipPath id="clip0_287_84">
<rect width="200" height="200" fill="white" transform="translate(104.556 0.55542)"/>
</clipPath>
</defs>
</svg>
