<svg width="48" height="48" viewBox="0 0 48 48" fill="none" xmlns="http://www.w3.org/2000/svg">
<path d="M0 24C0 10.7452 10.7452 0 24 0C37.2548 0 48 10.7452 48 24C48 37.2548 37.2548 48 24 48C10.7452 48 0 37.2548 0 24Z" fill="#A897FF"/>
<path d="M41.8362 19.4231C41.8727 19.5653 41.7689 19.7076 41.6231 19.7175C41.1546 19.7513 40.6862 19.7851 40.2192 19.8273C38.6021 19.9752 36.9795 20.0668 35.3624 20.2302C34.3947 20.3274 33.4228 20.364 32.4537 20.4443C31.5154 20.5218 30.5814 20.6275 29.6431 20.7092C27.5058 20.8951 25.3656 21.0698 23.2268 21.2599C22.0964 21.3599 20.9632 21.4459 19.8384 21.5994C19.5776 21.6346 19.3167 21.6684 19.0559 21.698C19.0517 21.6163 19.0461 21.536 19.0404 21.4543C19.039 21.4262 19.0362 21.3994 19.0348 21.3712C19.032 21.329 19.0278 21.2853 19.025 21.243C19.0152 21.105 19.004 20.9683 18.9914 20.8317C20.1119 20.5866 23.3699 20.2091 24.3516 20.102C25.5718 19.9682 26.7933 19.8414 28.0163 19.7217C29.6964 19.5555 31.3766 19.3991 33.0568 19.2399C34.3484 19.1174 35.6401 18.992 36.9332 18.8779C38.3385 18.7554 39.7437 18.6384 41.1476 18.5201C41.3973 18.499 41.6259 18.661 41.6946 18.9033C41.7437 19.0751 41.7899 19.2484 41.8348 19.4231H41.8362Z" fill="#7300FF"/>
<path d="M41.3075 28.7582C41.5557 28.7469 41.7422 28.9849 41.6721 29.2244C41.6357 29.3512 41.5964 29.478 41.5571 29.6047C41.4828 29.8428 41.2654 30.0062 41.0172 30.0076C38.7844 30.0273 28.0822 30.1076 25.3978 29.9625C24.0935 29.8921 22.7878 29.8231 21.492 29.6526C20.7514 29.5554 20.0025 29.4864 19.2746 29.2991C19.1021 29.2554 18.931 29.2103 18.7669 29.1455C18.7712 29.123 18.774 29.1005 18.7768 29.0779C18.7824 29.0328 18.7894 28.9878 18.795 28.9427C18.809 28.8441 18.823 28.7441 18.8357 28.6441C18.8399 28.6117 18.8427 28.5821 18.8469 28.5525L18.8749 28.3271C18.8777 28.2961 18.8805 28.2778 18.8834 28.2539C19.7318 28.6131 22.4302 28.7427 23.1048 28.7793C24.9701 28.8807 26.8368 28.9455 28.7049 28.961C30.5477 28.9779 32.392 28.961 34.2362 28.9455C36.0426 28.93 37.8448 28.8441 39.6498 28.8187C40.0789 28.8131 40.8166 28.7807 41.3075 28.7582Z" fill="#7300FF"/>
<path d="M41.0283 16.9805C41.0746 17.0946 40.9975 17.2228 40.8741 17.234C39.6104 17.3552 38.3454 17.4848 37.0804 17.5932C35.5068 17.727 33.936 17.8919 32.3667 18.0539C30.967 18.2004 29.5673 18.3539 28.1691 18.5145C26.8479 18.6666 25.5282 18.823 24.2099 18.992C22.7836 19.1765 21.3573 19.3625 19.945 19.6372C19.6392 19.6963 19.3349 19.7639 19.0306 19.8302C18.9941 19.8372 18.9492 19.8442 18.9212 19.8668C18.9142 19.8724 18.9071 19.8795 18.8987 19.8851C18.8959 19.8569 18.8931 19.8287 18.8889 19.8006C18.8735 19.671 18.8581 19.5414 18.8426 19.4132H18.8412C18.83 19.3216 18.8188 19.2315 18.8048 19.1413C18.7949 19.0624 18.7978 19.085 18.7893 19.0286C18.9534 18.9793 19.2101 18.8765 19.3686 18.83C20.1708 18.592 20.9926 18.461 21.8103 18.3173C23.3263 18.0524 24.8466 17.8172 26.3753 17.627C27.7553 17.4566 29.1326 17.2354 30.5168 17.0988C32.117 16.941 33.706 16.6931 35.3091 16.5551C36.7101 16.4353 38.1084 16.2578 39.5095 16.1311C39.7016 16.1141 39.8951 16.0944 40.0873 16.0733C40.3986 16.0395 40.6946 16.2113 40.8222 16.4987C40.8923 16.6579 40.961 16.8185 41.0269 16.9805H41.0283Z" fill="#7300FF"/>
<path d="M39.8152 14.5562C39.8727 14.6534 39.8124 14.7773 39.7002 14.79C37.6554 15.014 28.9671 16.0522 27.1102 16.3226C25.9644 16.4889 24.8242 16.6917 23.6812 16.8706C22.6588 17.0312 21.6448 17.2312 20.6364 17.458C20.0025 17.6003 19.3616 17.744 18.7613 18.006C18.7206 18.0229 18.6828 18.0412 18.6449 18.0623H18.6435C18.6365 18.0158 18.6295 17.9693 18.6211 17.9229C18.6169 17.8961 18.6126 17.8693 18.607 17.8426C18.5846 17.713 18.5622 17.5834 18.5383 17.4538C18.5257 17.3777 18.5103 17.3016 18.4962 17.2256C18.4948 17.2213 18.4948 17.2157 18.4934 17.2115C18.8258 16.9903 19.2045 16.8776 19.5804 16.7607C20.83 16.3733 22.1062 16.1029 23.3895 15.862C29.256 14.7604 34.8238 14.1167 38.6736 13.6476C39.0004 13.6082 39.3202 13.7589 39.4983 14.0364C39.5866 14.173 39.7185 14.3942 39.8152 14.5562Z" fill="#7300FF"/>
<path d="M40.3608 31.3684C40.6161 31.367 40.7858 31.6332 40.6778 31.8642C40.609 32.0121 40.5375 32.16 40.4646 32.3051C40.3566 32.5206 40.1378 32.6573 39.898 32.6531C37.8518 32.6192 28.2813 32.4516 26.6825 32.3333C25.1762 32.2234 20.6435 31.8896 18.4486 31.0218V31.019C18.4682 30.919 18.4879 30.8134 18.5089 30.7077C18.5215 30.6429 18.5327 30.5781 18.544 30.5119C18.5524 30.4612 18.5622 30.4091 18.5706 30.3584C18.5804 30.3077 18.5888 30.2598 18.5958 30.2105L18.6099 30.1259C18.6786 30.1499 18.8104 30.2062 18.8777 30.2288C20.2003 30.6711 21.5803 30.788 22.9533 30.9303C26.2365 31.2698 29.5337 31.3712 32.8323 31.4205C33.1661 31.4247 38.6049 31.381 40.3594 31.3684H40.3608Z" fill="#7300FF"/>
<path d="M42.4 24.435C42.4014 24.6336 42.2457 24.797 42.048 24.8069C40.5964 24.8787 39.1477 24.9788 37.6947 25.0421C35.8687 25.1224 34.0427 25.2267 32.2152 25.2929C30.0386 25.3746 27.862 25.469 25.3095 25.4929C24.0108 25.5098 22.339 25.5507 20.6659 25.4929C20.1442 25.476 19.621 25.4774 19.1021 25.3901L19.0979 25.3844C19.1077 25.2605 19.1133 25.1379 19.1147 25.014C19.1189 24.8773 19.1218 24.7393 19.1232 24.5998C19.1232 24.5435 19.1189 24.535 19.1232 24.4829C19.269 24.4871 19.5271 24.5167 19.6701 24.5224C20.9772 24.5632 22.2843 24.5181 23.5914 24.49C24.4301 24.4716 25.2702 24.4463 26.1103 24.4097C28.092 24.3223 30.0737 24.2336 32.054 24.135C34.4157 24.0181 36.7775 23.8941 39.1392 23.7645C40.0985 23.711 41.0326 23.6335 42.0101 23.5772C42.2022 23.5659 42.3677 23.7152 42.3804 23.9096C42.393 24.104 42.3986 24.2857 42.4 24.435Z" fill="#7300FF"/>
<path d="M42.2906 21.8966C42.3116 22.0826 42.1714 22.2488 41.9848 22.2601C41.3299 22.3023 39.8853 22.3939 39.0649 22.4488C37.0313 22.5812 34.9977 22.7066 32.9655 22.8461C30.8618 22.9926 28.7567 23.0841 26.653 23.2151C24.7905 23.3321 19.8159 23.5476 19.1947 23.5476C19.1722 23.5476 19.1484 23.5504 19.1259 23.5504C19.1259 23.5067 19.1245 23.4631 19.1245 23.4194C19.1245 23.3898 19.1245 23.3616 19.1245 23.3321C19.1217 23.2433 19.1203 23.156 19.1175 23.0672C19.1147 22.9362 19.1105 22.8066 19.1049 22.6784V22.6658H19.1063C19.1189 22.6644 19.1315 22.6644 19.1442 22.6629C19.6406 22.6249 20.1371 22.5925 20.6336 22.5573C22.5648 22.4192 24.496 22.2699 26.4286 22.1446C28.8577 21.9882 31.284 21.7924 33.7145 21.6417C35.8953 21.5064 38.0733 21.3219 40.2514 21.1571C40.7577 21.1191 41.2668 21.1022 41.7731 21.0557C41.9975 21.0346 42.1994 21.1937 42.2317 21.4177C42.2541 21.5769 42.2737 21.7375 42.292 21.8981L42.2906 21.8966Z" fill="#7300FF"/>
<path d="M42.1644 27.0114C42.1349 27.227 41.9568 27.3904 41.7408 27.403C41.3369 27.4256 40.9316 27.4537 40.5263 27.4664C38.1393 27.5453 35.7537 27.6665 33.3653 27.6862C33.0315 27.689 29.5463 27.7622 28.1382 27.751C26.2169 27.7355 24.2955 27.7341 22.3755 27.6242C21.3264 27.565 20.2802 27.5101 19.2438 27.3256C19.1568 27.3101 19.0699 27.2847 18.9843 27.2608C18.9913 27.1903 18.9969 27.1213 19.0025 27.0509C19.0039 27.0283 19.0067 27.0058 19.0081 26.9833C19.0194 26.8537 19.0292 26.7241 19.0376 26.5945C19.0446 26.51 19.0502 26.4268 19.0544 26.3423C19.0544 26.3409 19.0544 26.3311 19.0544 26.3296C19.241 26.3663 19.4289 26.4311 19.6182 26.4536C20.2606 26.5311 20.9043 26.5818 21.5494 26.5987C23.5171 26.6494 25.4848 26.6762 27.4538 26.6452C29.702 26.6086 31.9502 26.5748 34.1969 26.4916C35.8518 26.4311 37.5096 26.3902 39.1631 26.2958C40.0579 26.2451 40.9526 26.2296 41.8446 26.1662C42.0662 26.1507 42.2471 26.3367 42.2219 26.5578C42.205 26.6987 42.1854 26.8593 42.1644 27.01V27.0114Z" fill="#7300FF"/>
<path d="M39.1449 34.5406C39.0803 34.635 39.013 34.7294 38.9471 34.8224C38.7564 35.0886 38.4492 35.2464 38.1239 35.2464C37.9794 35.2464 37.8335 35.2464 37.6891 35.2464C36.2978 35.2238 34.9052 35.1774 33.5139 35.1182C30.8015 35.0041 28.092 34.8351 25.3936 34.5294C23.9322 34.3632 22.4751 34.1631 21.0347 33.8617C20.1161 33.6701 19.1989 33.4546 18.3308 33.0771C18.2214 33.0292 18.1162 32.9785 18.0152 32.9207H18.0138C18.0194 32.8996 18.025 32.8799 18.0306 32.8587C18.0643 32.7305 18.0965 32.6009 18.1288 32.4713C18.1498 32.3826 18.1709 32.2953 18.1919 32.2065C18.2045 32.1544 18.2158 32.1023 18.2284 32.0502C18.4906 32.184 18.7824 32.2643 19.0741 32.3488C20.2648 32.6911 21.4779 32.9207 22.7037 33.0912C24.6615 33.3644 26.6278 33.5419 28.5997 33.6701C31.061 33.8307 33.5237 33.9279 35.9907 33.9589C36.7635 33.9687 38.0636 33.973 38.8517 33.9758C39.1392 33.9758 39.3089 34.3026 39.1463 34.5392L39.1449 34.5406Z" fill="#7300FF"/>
<path d="M38.1295 12.1685C38.2066 12.2615 38.1505 12.4038 38.0313 12.4193C36.5166 12.6179 29.7764 13.5363 29.0386 13.6617C27.8283 13.8674 26.618 14.0801 25.4105 14.304C24.5928 14.4562 23.7766 14.6168 22.9659 14.8013C21.8748 15.0506 20.7823 15.2943 19.7178 15.6479C19.5229 15.7127 18.565 16.0437 18.2817 16.193C18.2789 16.1775 18.2747 16.1635 18.2719 16.148C18.2592 16.093 18.248 16.0395 18.2354 15.986C18.1989 15.8254 18.1611 15.6662 18.1218 15.507C18.1036 15.4352 18.1162 15.4845 18.0952 15.4028C18.1793 15.3169 18.4977 15.1422 18.6071 15.0971C19.5313 14.7168 20.4625 14.3576 21.4358 14.1153C22.3334 13.8927 23.2338 13.6828 24.1328 13.4659C24.9266 13.2729 25.7274 13.1095 26.5268 12.9616C27.3515 12.8095 28.1761 12.6489 29.0036 12.508C29.8942 12.3559 35.1198 11.5699 36.7971 11.3191C37.1211 11.2712 37.4465 11.3881 37.6653 11.6318C37.8237 11.8079 37.978 11.9854 38.1281 12.1671L38.1295 12.1685Z" fill="#7300FF"/>
<path d="M36.9907 37.1241C36.9304 37.1847 36.8687 37.2452 36.8069 37.3058C36.4732 37.6298 36.0188 37.7988 35.5559 37.7791C35.5209 37.7777 35.4844 37.7763 35.4493 37.7749C33.6935 37.6918 31.939 37.5805 30.1873 37.4284C28.4608 37.2791 26.7372 37.0847 25.0234 36.8297C23.5466 36.6114 22.0768 36.3508 20.6294 35.9831C19.5818 35.7169 18.5411 35.4182 17.5903 34.8829C17.5482 34.859 17.5047 34.8351 17.464 34.8097C17.5131 34.6632 17.5594 34.5153 17.6057 34.3674C17.6267 34.2998 17.6464 34.2336 17.666 34.1659C17.6912 34.0885 17.7137 34.011 17.7361 33.9321C17.9002 34.0138 18.0741 34.0814 18.2424 34.1547C19.1709 34.5632 20.154 34.7998 21.1385 35.0294C22.2072 35.2788 23.2899 35.4534 24.374 35.6126C25.8578 35.831 27.3515 35.9859 28.8465 36.1197C31.0274 36.3141 35.0973 36.4874 36.7691 36.5536C37.0594 36.5649 37.1982 36.9184 36.9921 37.1241H36.9907Z" fill="#7300FF"/>
<path d="M35.8056 9.83441C35.922 9.93301 35.8631 10.1232 35.7116 10.1415C34.9066 10.2401 34.1072 10.3739 33.305 10.5007C32.1605 10.6796 31.0203 10.8838 29.8801 11.0853C28.7175 11.2909 27.5604 11.5332 26.4034 11.7699C25.2534 12.0037 24.1089 12.2601 22.9729 12.5545C21.5452 12.9236 20.1189 13.3067 18.7641 13.9124C18.4373 14.0589 18.105 14.1646 17.8609 14.4519C17.8567 14.4562 17.8525 14.4618 17.8483 14.466C17.8469 14.4632 17.8469 14.459 17.8455 14.4562C17.8217 14.3674 17.7964 14.2787 17.7698 14.1913C17.7473 14.1111 17.7235 14.0294 17.6996 13.9505C17.6968 13.942 17.6954 13.935 17.6926 13.9265C17.6702 13.8505 17.6478 13.7758 17.6253 13.7011C17.8862 13.2616 18.3672 13.0687 18.8132 12.856C19.4527 12.5531 20.1259 12.3362 20.7949 12.108C22.3194 11.5882 23.8775 11.1881 25.4427 10.8261C26.3206 10.6218 27.1958 10.4035 28.0864 10.2514C29.0499 10.0866 30.0021 9.85131 30.9642 9.67664C32.0946 9.47098 33.2306 9.29067 34.3652 9.09769C34.6247 9.05402 34.894 9.11459 35.1043 9.27518C35.3427 9.45689 35.577 9.64283 35.8056 9.83582V9.83441Z" fill="#7300FF"/>
<path d="M33.8379 39.654C33.772 39.6963 33.706 39.7371 33.6401 39.778C33.1773 40.0639 32.6317 40.1809 32.0918 40.1287C30.974 40.0217 29.8549 39.916 28.7399 39.7639C27.8395 39.6413 26.9363 39.523 26.0387 39.3808C24.6727 39.1624 23.3109 38.9117 21.9659 38.5835C20.5985 38.2496 19.2395 37.8848 17.9507 37.303C17.5482 37.1213 17.1541 36.9227 16.7964 36.6621C16.8329 36.5719 16.868 36.4804 16.903 36.3888C16.9086 36.3733 16.9156 36.3578 16.9213 36.3409C16.9493 36.2691 16.9759 36.1972 17.0026 36.124C17.0166 36.0887 17.0306 36.0521 17.0433 36.0169C17.0727 35.9366 17.1022 35.8563 17.1316 35.7746C17.1919 35.8127 17.255 35.8493 17.3167 35.8859C18.3882 36.5057 19.5663 36.8536 20.7556 37.1706C21.8916 37.4734 23.0402 37.7031 24.1959 37.9101C25.7428 38.1876 27.2981 38.3933 28.8591 38.5708C29.918 38.6919 30.9782 38.7905 32.0399 38.8849C32.4606 38.9229 33.1184 38.968 33.6738 39.0061C34.0118 39.0286 34.124 39.4723 33.8379 39.654Z" fill="#7300FF"/>
<path d="M32.8533 7.813C32.9571 7.86794 32.9333 8.02289 32.8183 8.04402C32.3064 8.13699 31.7945 8.22996 31.2826 8.32716C30.7033 8.43562 30.1227 8.54268 29.5463 8.66805C28.3626 8.92724 27.1775 9.18502 25.9994 9.46675C25.1916 9.65974 24.3866 9.86963 23.583 10.0866C22.7275 10.319 21.8762 10.5683 21.0403 10.8529C19.8875 11.2459 18.7374 11.6586 17.7094 12.3404C17.5566 12.4404 17.4149 12.5517 17.2971 12.6883H17.2957C17.2873 12.6672 17.2803 12.6432 17.2719 12.6207C17.227 12.4911 17.1807 12.3601 17.1344 12.2319C17.1036 12.1432 17.0713 12.0544 17.0376 11.9671C17.0236 11.9291 17.0096 11.891 16.9956 11.853C17.0685 11.7657 17.1569 11.6882 17.2452 11.6149C17.8735 11.0951 18.5986 10.7373 19.3405 10.4162C20.1666 10.057 21.0123 9.74426 21.8678 9.47098C23.0739 9.08501 24.2842 8.71594 25.5142 8.4159C26.6095 8.14967 27.702 7.87076 28.8002 7.62002C29.4018 7.48338 30.0049 7.35942 30.608 7.23546C31.1101 7.13263 31.6304 7.19883 32.0904 7.42562C32.34 7.54818 32.6163 7.68763 32.8547 7.81441L32.8533 7.813Z" fill="#7300FF"/>
<path d="M29.2196 41.1444C29.5463 41.1923 29.5772 41.6515 29.2602 41.7459C29.1368 41.7825 28.9825 41.8247 28.8199 41.8656C28.0639 42.06 27.2743 42.0839 26.5058 41.9459C26.5016 41.9459 26.4988 41.9459 26.4946 41.9445C25.294 41.7276 24.0935 41.5008 22.9084 41.2078C21.966 40.9739 21.0249 40.7302 20.1021 40.4246C19.1793 40.1203 18.2705 39.7836 17.3967 39.3596C16.9255 39.13 16.3925 38.8173 15.9858 38.4947L16.0349 38.4172C16.0728 38.3398 16.1078 38.2679 16.1415 38.1933L16.192 38.0834C16.199 38.0693 16.2046 38.0538 16.2116 38.0397C16.2635 37.9256 16.3154 37.8115 16.3645 37.696C16.3715 37.6819 16.3785 37.6664 16.3841 37.6523C16.3883 37.6439 16.3926 37.634 16.3954 37.6256C17.126 38.1792 17.9689 38.5243 18.8202 38.8525C19.4878 39.1103 20.1652 39.3357 20.8552 39.523C21.6869 39.747 22.5242 39.9583 23.367 40.1414C24.3923 40.364 25.4217 40.5626 26.4581 40.733C27.2856 40.8683 28.1172 40.9824 28.9475 41.1049C29.0386 41.119 29.1284 41.1317 29.2196 41.1444Z" fill="#7300FF"/>
<path d="M28.4833 6.086C28.6403 6.12544 28.6361 6.34942 28.4791 6.38604C27.2379 6.67622 26.0051 6.99599 24.7793 7.34251C23.5311 7.69327 22.297 8.0905 21.0782 8.53423C20.0474 8.90893 19.0278 9.30898 18.0699 9.84849C17.5426 10.1443 17.0124 10.45 16.638 10.943C16.6352 10.9374 16.6324 10.9303 16.6296 10.9247C16.6184 10.8979 16.6071 10.8712 16.5959 10.8444C16.5707 10.7824 16.5454 10.7204 16.5188 10.6599C16.4599 10.5204 16.3365 10.2415 16.2747 10.1035C16.3294 10.0499 16.314 10.0654 16.3575 10.0175C16.6885 9.56254 17.1793 9.27095 17.6618 8.97232C18.6127 8.38632 19.6351 7.94823 20.6715 7.54395C21.4232 7.24954 22.189 6.99035 22.9547 6.73116C23.6237 6.50437 24.2969 6.29026 24.9743 6.09164C25.3137 5.99162 25.6531 5.89583 25.9939 5.80286C26.2758 5.72539 26.5717 5.7113 26.862 5.75638C27.4104 5.84231 27.9517 5.95218 28.4833 6.086Z" fill="#7300FF"/>
<path d="M22.4554 5.60002C22.4793 5.59861 22.4863 5.63242 22.4653 5.64087C21.9828 5.81695 20.8328 6.25222 20.0895 6.55367C19.255 6.89175 18.4472 7.28758 17.6702 7.74116C16.9928 8.1384 16.314 8.54972 15.861 9.22305C15.8203 9.13713 15.7783 9.05261 15.7348 8.96809C15.6913 8.87935 15.6464 8.7906 15.6001 8.70326C15.5525 8.60889 15.5034 8.51732 15.4543 8.42435C15.6703 8.03275 16.0293 7.73693 16.3911 7.4538L16.401 7.44675C16.9409 7.02557 17.544 6.69313 18.1919 6.4776C19.5495 6.02261 20.9772 5.72398 22.4554 5.60002Z" fill="#7300FF"/>
<path d="M22.0108 42.2431C22.1062 42.2685 22.0781 42.4093 21.9814 42.3995C19.5102 42.129 17.1863 41.3655 15.1078 40.2104C15.1401 40.1555 15.171 40.0992 15.2018 40.0428C15.2733 39.9146 15.3435 39.785 15.4136 39.654C15.4543 39.5794 15.4921 39.5061 15.5314 39.4286H15.5328C16.0671 39.8935 16.6912 40.2288 17.3238 40.5513C18.4009 41.1007 19.5383 41.4994 20.6855 41.8572C21.1245 41.9938 21.5676 42.1234 22.0108 42.2445V42.2431Z" fill="#7300FF"/>
<path d="M15.3954 8.31323H14.7728C14.6363 8.31323 14.5868 8.13597 14.7047 8.06685C14.7254 8.05472 14.7489 8.0484 14.7728 8.0484H15.2524C15.265 8.06953 15.2762 8.08925 15.2874 8.11038C15.3239 8.178 15.359 8.24561 15.3954 8.31323Z" fill="#7300FF"/>
<path d="M15.7348 8.96684H13.7414C13.6111 8.96684 13.5581 8.7994 13.6657 8.72545C13.6878 8.71021 13.7142 8.70201 13.7411 8.70201H15.6002C15.6465 8.78935 15.6914 8.8781 15.7348 8.96684Z" fill="#7300FF"/>
<path d="M16.0532 9.61904H12.848C12.7204 9.61904 12.6646 9.45917 12.7662 9.38161C12.7896 9.36374 12.8181 9.35421 12.8475 9.35421H15.9256C15.9326 9.36689 15.9382 9.37816 15.9438 9.39084C15.9803 9.46691 16.0167 9.54297 16.0532 9.61904Z" fill="#7300FF"/>
<path d="M16.3505 10.2727H12.05C11.9274 10.2727 11.8696 10.1213 11.9623 10.0406C11.9865 10.0195 12.0176 10.0078 12.0497 10.0078H16.2327C16.2495 10.0459 16.2677 10.0853 16.2846 10.1247C16.307 10.174 16.328 10.2233 16.3505 10.2727Z" fill="#7300FF"/>
<path d="M16.6296 10.9249H11.3388C11.2195 10.9249 11.16 10.7805 11.246 10.6974C11.2708 10.6734 11.304 10.66 11.3384 10.66H16.5188C16.5455 10.7206 16.5707 10.7826 16.596 10.8446C16.6072 10.8713 16.6184 10.8981 16.6296 10.9249Z" fill="#7300FF"/>
<path d="M16.8919 11.5785H10.696C10.5802 11.5785 10.5196 11.4399 10.5991 11.3552C10.624 11.3286 10.6589 11.3136 10.6953 11.3136H16.7867C16.8232 11.401 16.8568 11.4897 16.8919 11.5785Z" fill="#7300FF"/>
<path d="M17.1345 12.2307H10.1134C10.0001 12.2307 9.93811 12.0985 10.012 12.0122C10.0373 11.9827 10.0743 11.9658 10.113 11.9658H17.0377L17.0966 12.1264C17.1093 12.1602 17.1219 12.1955 17.1345 12.2307Z" fill="#7300FF"/>
<path d="M17.3631 12.8843H9.58156C9.47127 12.8843 9.40835 12.7582 9.47616 12.6708C9.50137 12.6383 9.54021 12.6195 9.58121 12.6195H17.2734C17.279 12.635 17.2846 12.6519 17.2902 12.6674C17.293 12.6744 17.2944 12.68 17.2972 12.6871C17.3183 12.7533 17.3407 12.8195 17.3631 12.8843Z" fill="#7300FF"/>
<path d="M17.5735 13.5365H9.09831C8.99133 13.5365 8.92868 13.4152 8.99035 13.3274C9.01506 13.2922 9.0551 13.2717 9.09798 13.2717H17.4907C17.5188 13.359 17.5468 13.4477 17.5735 13.5365Z" fill="#7300FF"/>
<path d="M17.7698 14.1901H8.65738C8.55247 14.1901 8.48868 14.0736 8.54589 13.9852C8.57024 13.9476 8.61189 13.9253 8.65655 13.9253H17.6927C17.6955 13.9337 17.6969 13.9408 17.6997 13.9492C17.7235 14.0295 17.7474 14.1098 17.7698 14.1901Z" fill="#7300FF"/>
<path d="M17.9507 14.8423H8.25519C8.1528 14.8423 8.08899 14.7312 8.14112 14.6426C8.16503 14.6021 8.20844 14.5775 8.25539 14.5775H17.8792C17.9044 14.6662 17.9283 14.7536 17.9507 14.8423Z" fill="#7300FF"/>
<path d="M18.119 15.4959H7.8886C7.78881 15.4959 7.72462 15.3898 7.77175 15.3015C7.79479 15.2583 7.83984 15.2311 7.88864 15.2311H18.0531C18.0671 15.2888 18.0811 15.3452 18.0952 15.4029C18.1036 15.4339 18.1106 15.4649 18.119 15.4959Z" fill="#7300FF"/>
<path d="M18.2719 16.1481H7.557C7.45936 16.1481 7.3947 16.0471 7.43739 15.9589C7.45969 15.9128 7.50654 15.8833 7.55755 15.8833H18.2101C18.2326 15.9706 18.2522 16.0594 18.2719 16.1481Z" fill="#7300FF"/>
<path d="M18.4122 16.8017H7.25811C7.16259 16.8017 7.09805 16.7033 7.13651 16.6155C7.15756 16.5674 7.20496 16.5369 7.25724 16.5369H18.3575C18.3687 16.5862 18.3785 16.6341 18.3883 16.6834C18.3967 16.7228 18.4052 16.7623 18.4122 16.8017Z" fill="#7300FF"/>
<path d="M18.5384 17.4539H6.98746C6.89411 17.4539 6.82997 17.3598 6.8645 17.2727C6.88461 17.2219 6.93345 17.1891 6.98781 17.1891H18.4893C18.4907 17.1976 18.4921 17.2046 18.4935 17.2116C18.4949 17.2159 18.4949 17.2215 18.4963 17.2257C18.5103 17.3018 18.5257 17.3779 18.5384 17.4539Z" fill="#7300FF"/>
<path d="M18.652 18.1075H6.74631C6.6554 18.1075 6.59113 18.0187 6.621 17.9324C6.6397 17.8785 6.69044 17.8427 6.74733 17.8427H18.6071C18.6127 17.8695 18.6169 17.8962 18.6211 17.923C18.6295 17.9695 18.638 18.016 18.645 18.0625C18.6478 18.078 18.6492 18.092 18.652 18.1075Z" fill="#7300FF"/>
<path d="M18.7529 18.7597H6.53402C6.44504 18.7597 6.3808 18.6746 6.40702 18.5892C6.42422 18.5332 6.47606 18.4949 6.53441 18.4949H18.7137C18.7137 18.4949 18.7151 18.502 18.7151 18.5062C18.7277 18.5907 18.7403 18.6752 18.7529 18.7597Z" fill="#7300FF"/>
<path d="M18.8427 19.4134H6.34653C6.25981 19.4134 6.19647 19.3316 6.21905 19.2475C6.23469 19.1892 6.28743 19.1485 6.34753 19.1485H18.8076C18.8202 19.2373 18.8315 19.326 18.8427 19.4134Z" fill="#7300FF"/>
<path d="M18.9184 20.0656H6.18684C6.10187 20.0656 6.03861 19.9867 6.05765 19.9035C6.07143 19.8433 6.12498 19.8007 6.18648 19.8007H18.889C18.8932 19.8289 18.896 19.8571 18.8988 19.8853C18.9016 19.9106 18.9044 19.9346 18.9072 19.9599C18.9114 19.9951 18.9156 20.0303 18.9184 20.0656Z" fill="#7300FF"/>
<path d="M18.9829 20.7192H6.05181C5.96852 20.7192 5.90534 20.6434 5.92124 20.5612C5.93336 20.4987 5.98819 20.4543 6.05165 20.4543H18.9591C18.9675 20.5431 18.9759 20.6318 18.9829 20.7192Z" fill="#7300FF"/>
<path d="M19.0348 21.3714H5.94039C5.85947 21.3714 5.7972 21.2989 5.80911 21.2185C5.81873 21.1537 5.87432 21.1065 5.93959 21.1065H19.0138C19.018 21.1516 19.0222 21.1981 19.025 21.2432C19.0278 21.2854 19.032 21.3291 19.0348 21.3714Z" fill="#7300FF"/>
<path d="M19.0755 22.025H5.8521C5.7736 22.025 5.71243 21.9566 5.7215 21.8783C5.72932 21.8107 5.78635 21.7602 5.85409 21.7602H19.0601C19.0601 21.7672 19.0615 21.7757 19.0615 21.7827C19.0671 21.8644 19.0713 21.9447 19.0755 22.025Z" fill="#7300FF"/>
<path d="M19.1049 22.6645V22.6772H5.78953C5.71261 22.6772 5.65204 22.6113 5.65817 22.5343C5.66365 22.4655 5.72088 22.4124 5.78964 22.4124H19.0951C19.0993 22.4969 19.1021 22.5814 19.1049 22.6645Z" fill="#7300FF"/>
<path d="M19.1232 23.3308H5.74899C5.67392 23.3308 5.61376 23.2679 5.61707 23.1925C5.6202 23.1214 5.67872 23.066 5.74965 23.066H19.1162C19.119 23.1547 19.1204 23.2421 19.1232 23.3308Z" fill="#7300FF"/>
<path d="M19.1288 23.976V23.983H5.73204C5.65865 23.983 5.59916 23.9232 5.60005 23.8495C5.60092 23.7767 5.66019 23.7182 5.73276 23.7182H19.1274C19.1288 23.8041 19.1288 23.89 19.1288 23.976Z" fill="#7300FF"/>
<path d="M19.126 24.3718C19.126 24.4211 19.126 24.4704 19.1246 24.5197C19.1246 24.5591 19.1246 24.5986 19.1246 24.6366H5.73772C5.66596 24.6366 5.60705 24.5794 5.60503 24.5073C5.60294 24.4328 5.66276 24.3718 5.73698 24.3718H19.126Z" fill="#7300FF"/>
<path d="M19.1134 25.024C19.112 25.1127 19.1092 25.2015 19.105 25.2888H5.76636C5.6965 25.2888 5.63823 25.2348 5.6337 25.1648C5.62873 25.0881 5.68979 25.024 5.76627 25.024H19.1134Z" fill="#7300FF"/>
<path d="M19.0909 25.6776C19.0895 25.7185 19.0867 25.7593 19.0853 25.8002C19.0825 25.848 19.0811 25.8945 19.0783 25.9424H5.81722C5.74897 25.9424 5.69149 25.8908 5.68486 25.8225C5.67728 25.7444 5.73893 25.6776 5.81708 25.6776H19.0909Z" fill="#7300FF"/>
<path d="M19.0558 26.3298C19.0558 26.3298 19.0544 26.3368 19.0544 26.3397V26.3425C19.0502 26.427 19.0446 26.5101 19.0376 26.5946H5.8909C5.82484 26.5946 5.76882 26.5464 5.76013 26.4806C5.74959 26.4009 5.81161 26.3298 5.8917 26.3298H19.0558Z" fill="#7300FF"/>
<path d="M19.0082 26.9834C19.0068 27.006 19.004 27.0285 19.0026 27.051C18.997 27.1172 18.99 27.182 18.9844 27.2482H5.98974C5.92526 27.2482 5.8701 27.2022 5.8596 27.1383C5.84629 27.0573 5.9088 26.9834 5.99056 26.9834H19.0082Z" fill="#7300FF"/>
<path d="M18.9493 27.6356C18.9408 27.723 18.931 27.8117 18.9226 27.9004H6.11276C6.04969 27.9004 5.99519 27.8558 5.9825 27.7937C5.96573 27.7117 6.02841 27.6356 6.11182 27.6356H18.9493Z" fill="#7300FF"/>
<path d="M18.8792 28.2892C18.8694 28.3709 18.8595 28.4526 18.8497 28.5357C18.8483 28.5414 18.8483 28.5484 18.8469 28.5541H6.25985C6.19868 28.5541 6.14522 28.5128 6.13076 28.4531C6.11047 28.3694 6.17423 28.2892 6.26004 28.2892H18.8792Z" fill="#7300FF"/>
<path d="M18.795 28.9414C18.7894 28.9865 18.7824 29.0316 18.7768 29.0767C18.774 29.0992 18.7712 29.1217 18.767 29.1443C18.7656 29.1654 18.7614 29.1851 18.7586 29.2063H6.43271C6.37345 29.2063 6.32136 29.1673 6.30509 29.1101C6.28103 29.0254 6.34458 28.9414 6.43226 28.9414H18.795Z" fill="#7300FF"/>
<path d="M18.6996 29.595C18.687 29.6838 18.673 29.7711 18.6576 29.8599H6.63138C6.57436 29.8599 6.52372 29.8237 6.50602 29.7693C6.47808 29.6833 6.54224 29.595 6.63224 29.595H18.6996Z" fill="#7300FF"/>
<path d="M18.5916 30.2472C18.586 30.2839 18.579 30.3205 18.572 30.3585C18.5636 30.4092 18.5538 30.4614 18.5454 30.5121H6.85729C6.80157 30.5121 6.7518 30.4776 6.73265 30.425C6.70112 30.3385 6.76516 30.2472 6.85692 30.2472H18.5916Z" fill="#7300FF"/>
<path d="M18.4711 30.9009C18.4542 30.9896 18.4374 31.0783 18.4192 31.1657H7.11273C7.05903 31.1657 7.01065 31.1336 6.9901 31.0838C6.95407 30.9965 7.01825 30.9009 7.11239 30.9009H18.4711Z" fill="#7300FF"/>
<path d="M18.3378 31.5531C18.3196 31.639 18.3 31.7263 18.2817 31.8123C18.2817 31.8137 18.2803 31.8165 18.2803 31.8179H7.39483C7.34319 31.8179 7.29625 31.7881 7.27482 31.7409C7.23487 31.6529 7.29942 31.5531 7.3957 31.5531H18.3378Z" fill="#7300FF"/>
<path d="M18.1906 32.2067C18.1696 32.2954 18.1485 32.3828 18.1275 32.4715H7.71163C7.66153 32.4715 7.61555 32.443 7.59279 32.3982C7.54802 32.31 7.61196 32.2067 7.71051 32.2067H18.1906Z" fill="#7300FF"/>
<path d="M18.0293 32.8589C18.0237 32.88 18.0195 32.8997 18.0139 32.9209H18.0125C17.9998 32.9772 17.9844 33.035 17.969 33.0927C17.9662 33.1026 17.9634 33.1138 17.9606 33.1237H8.05857C8.01116 33.1237 7.96737 33.0985 7.9439 33.0572C7.89371 32.9686 7.95798 32.8589 8.05942 32.8589H18.0293Z" fill="#7300FF"/>
<path d="M17.854 33.5125C17.8442 33.5533 17.8315 33.5942 17.8203 33.635C17.8063 33.6829 17.7937 33.7294 17.7796 33.7773H8.44173C8.39563 33.7773 8.35269 33.7536 8.32848 33.7142C8.27403 33.6255 8.33838 33.5125 8.44206 33.5125H17.854Z" fill="#7300FF"/>
<path d="M17.6646 34.1647C17.638 34.2534 17.6113 34.3422 17.5833 34.4295H8.86137C8.81741 34.4295 8.77616 34.4079 8.75139 34.3714C8.69142 34.2831 8.75529 34.1647 8.86171 34.1647H17.6646Z" fill="#7300FF"/>
<path d="M17.4599 34.8183C17.4501 34.8507 17.4403 34.8831 17.429 34.9155C17.4108 34.9718 17.3926 35.0282 17.3729 35.0831H9.32254C9.28032 35.0831 9.24067 35.0632 9.21563 35.0291C9.15128 34.9414 9.21396 34.8183 9.32243 34.8183H17.4599Z" fill="#7300FF"/>
<path d="M17.2411 35.4705C17.2103 35.5592 17.178 35.648 17.1471 35.7353H9.8275C9.78763 35.7353 9.74992 35.7175 9.72468 35.6865C9.65405 35.5998 9.71586 35.4705 9.82744 35.4705H17.2411Z" fill="#7300FF"/>
<path d="M17.0041 36.1241C16.9774 36.196 16.9494 36.2692 16.9213 36.341C16.9185 36.3509 16.9157 36.3594 16.9115 36.3692C16.9087 36.3763 16.9059 36.3819 16.9045 36.3889H10.3833C10.3456 36.3889 10.3097 36.373 10.2845 36.3448C10.208 36.2593 10.2688 36.1241 10.3833 36.1241H17.0041Z" fill="#7300FF"/>
<path d="M16.7516 36.7763C16.7166 36.8651 16.6801 36.9524 16.6422 37.0411H10.9924C10.9569 37.0411 10.9231 37.027 10.8983 37.0016C10.8165 36.9177 10.8759 36.7763 10.9928 36.7763H16.7516Z" fill="#7300FF"/>
<path d="M16.4795 37.4299C16.4529 37.4961 16.4248 37.5595 16.3954 37.6243C16.3926 37.6328 16.3884 37.6426 16.3842 37.6511C16.3785 37.6652 16.3715 37.6807 16.3645 37.6948H11.6673C11.6341 37.6948 11.6021 37.6823 11.5777 37.6598C11.489 37.578 11.5475 37.4299 11.6679 37.4299H16.4795Z" fill="#7300FF"/>
<path d="M16.192 38.0821L16.1415 38.192C16.1177 38.2441 16.0939 38.2948 16.0686 38.347H12.4165C12.3857 38.347 12.3557 38.3362 12.3319 38.3165C12.2357 38.2372 12.2925 38.0821 12.4169 38.0821H16.192Z" fill="#7300FF"/>
<path d="M15.8821 38.7357C15.84 38.8245 15.7952 38.9132 15.7503 39.0006H13.2597C13.2313 39.0006 13.2037 38.9917 13.1807 38.975C13.0757 38.8988 13.1301 38.7357 13.2596 38.7357H15.8821Z" fill="#7300FF"/>
<path d="M15.5525 39.3879C15.5455 39.402 15.5399 39.4147 15.5329 39.4274C15.5245 39.4429 15.5161 39.4584 15.5077 39.4739C15.4768 39.5344 15.4459 39.5936 15.4137 39.6528H14.2113C14.186 39.6528 14.1612 39.6457 14.1398 39.632C14.0272 39.5604 14.0787 39.3879 14.2119 39.3879H15.5525Z" fill="#7300FF"/>
<path d="M15.2019 40.0416C15.1711 40.0979 15.1402 40.1543 15.1079 40.2092C15.0256 40.1643 15.0583 40.0416 15.152 40.0416H15.2019Z" fill="#7300FF"/>
</svg>
