<?xml version="1.0" encoding="UTF-8"?>
<svg id="Calque_1" xmlns="http://www.w3.org/2000/svg" version="1.1" viewBox="0 0 48 48">
  <!-- Generator: Adobe Illustrator 29.4.0, SVG Export Plug-In . SVG Version: 2.1.0 Build 152)  -->
  <defs>
    <style>
      .st0 {
        fill: #a897ff;
      }

      .st1 {
        fill: #7300ff;
      }
    </style>
  </defs>
  <path class="st1" d="M0,24C0,10.7,10.7,0,24,0s24,10.7,24,24-10.7,24-24,24S0,37.3,0,24Z"/>
  <path class="st0" d="M41.8,19.4c0,.1,0,.3-.2.3-.5,0-.9,0-1.4.1-1.6.1-3.2.2-4.9.4-1,0-1.9.1-2.9.2-.9,0-1.9.2-2.8.3-2.1.2-4.3.4-6.4.6-1.1.1-2.3.2-3.4.3-.3,0-.5,0-.8,0,0,0,0-.2,0-.2,0,0,0,0,0,0,0,0,0,0,0-.1,0-.1,0-.3,0-.4,1.1-.2,4.4-.6,5.4-.7,1.2-.1,2.4-.3,3.7-.4,1.7-.2,3.4-.3,5-.5,1.3-.1,2.6-.2,3.9-.4,1.4-.1,2.8-.2,4.2-.4.2,0,.5.1.5.4,0,.2,0,.3.1.5h0Z"/>
  <path class="st0" d="M41.3,28.8c.2,0,.4.2.4.5,0,.1,0,.3-.1.4,0,.2-.3.4-.5.4-2.2,0-12.9,0-15.6,0-1.3,0-2.6-.1-3.9-.3-.7,0-1.5-.2-2.2-.4-.2,0-.3,0-.5-.2,0,0,0,0,0,0,0,0,0,0,0-.1,0,0,0-.2,0-.3,0,0,0,0,0,0v-.2s0,0,0,0c.8.4,3.5.5,4.2.5,1.9.1,3.7.2,5.6.2,1.8,0,3.7,0,5.5,0,1.8,0,3.6-.1,5.4-.1.4,0,1.2,0,1.7,0Z"/>
  <path class="st0" d="M41,17c0,.1,0,.2-.2.3-1.3.1-2.5.3-3.8.4-1.6.1-3.1.3-4.7.5-1.4.1-2.8.3-4.2.5-1.3.2-2.6.3-4,.5-1.4.2-2.9.4-4.3.6-.3,0-.6.1-.9.2,0,0,0,0-.1,0,0,0,0,0,0,0,0,0,0,0,0,0,0-.1,0-.3,0-.4h0c0,0,0-.2,0-.3,0,0,0,0,0-.1.2,0,.4-.2.6-.2.8-.2,1.6-.4,2.4-.5,1.5-.3,3-.5,4.6-.7,1.4-.2,2.8-.4,4.1-.5,1.6-.2,3.2-.4,4.8-.5,1.4-.1,2.8-.3,4.2-.4.2,0,.4,0,.6,0,.3,0,.6.1.7.4,0,.2.1.3.2.5h0Z"/>
  <path class="st0" d="M39.8,14.6c0,0,0,.2-.1.2-2,.2-10.7,1.3-12.6,1.5-1.1.2-2.3.4-3.4.5-1,.2-2,.4-3,.6-.6.1-1.3.3-1.9.5,0,0,0,0-.1,0h0s0,0,0-.1c0,0,0,0,0,0,0-.1,0-.3,0-.4,0,0,0-.2,0-.2,0,0,0,0,0,0,.3-.2.7-.3,1.1-.5,1.2-.4,2.5-.7,3.8-.9,5.9-1.1,11.4-1.7,15.3-2.2.3,0,.6.1.8.4,0,.1.2.4.3.5Z"/>
  <path class="st0" d="M40.4,31.4c.3,0,.4.3.3.5,0,.1-.1.3-.2.4-.1.2-.3.4-.6.3-2,0-11.6-.2-13.2-.3-1.5-.1-6-.4-8.2-1.3h0c0-.1,0-.2,0-.3,0,0,0-.1,0-.2,0,0,0-.1,0-.2,0,0,0,0,0-.1h0c0,0,.2,0,.3,0,1.3.4,2.7.6,4.1.7,3.3.3,6.6.4,9.9.5.3,0,5.8,0,7.5,0h0Z"/>
  <path class="st0" d="M42.4,24.4c0,.2-.2.4-.4.4-1.5,0-2.9.2-4.4.2-1.8,0-3.7.2-5.5.3-2.2,0-4.4.2-6.9.2-1.3,0-3,0-4.6,0-.5,0-1,0-1.6-.1h0c0-.1,0-.3,0-.4,0-.1,0-.3,0-.4,0,0,0,0,0-.1.1,0,.4,0,.5,0,1.3,0,2.6,0,3.9,0,.8,0,1.7,0,2.5,0,2,0,4-.2,5.9-.3,2.4-.1,4.7-.2,7.1-.4,1,0,1.9-.1,2.9-.2.2,0,.4.1.4.3,0,.2,0,.4,0,.5Z"/>
  <path class="st0" d="M42.3,21.9c0,.2-.1.4-.3.4-.7,0-2.1.1-2.9.2-2,.1-4.1.3-6.1.4-2.1.1-4.2.2-6.3.4-1.9.1-6.8.3-7.5.3s0,0,0,0c0,0,0,0,0-.1h0c0-.2,0-.3,0-.4,0-.1,0-.3,0-.4h0s0,0,0,0c0,0,0,0,0,0,.5,0,1,0,1.5-.1,1.9-.1,3.9-.3,5.8-.4,2.4-.2,4.9-.4,7.3-.5,2.2-.1,4.4-.3,6.5-.5.5,0,1,0,1.5-.1.2,0,.4.1.5.4,0,.2,0,.3,0,.5h0Z"/>
  <path class="st0" d="M42.2,27c0,.2-.2.4-.4.4-.4,0-.8,0-1.2,0-2.4,0-4.8.2-7.2.2-.3,0-3.8,0-5.2,0-1.9,0-3.8,0-5.8-.1-1,0-2.1-.1-3.1-.3,0,0-.2,0-.3,0,0,0,0-.1,0-.2,0,0,0,0,0,0,0-.1,0-.3,0-.4,0,0,0-.2,0-.3h0c.2,0,.4,0,.6.1.6,0,1.3.1,1.9.1,2,0,3.9,0,5.9,0,2.2,0,4.5,0,6.7-.2,1.7,0,3.3-.1,5-.2.9,0,1.8,0,2.7-.1.2,0,.4.2.4.4,0,.1,0,.3,0,.5h0Z"/>
  <path class="st0" d="M39.1,34.5c0,0-.1.2-.2.3-.2.3-.5.4-.8.4h-.4c-1.4,0-2.8,0-4.2-.1-2.7-.1-5.4-.3-8.1-.6-1.5-.2-2.9-.4-4.4-.7-.9-.2-1.8-.4-2.7-.8-.1,0-.2,0-.3-.2h0s0,0,0,0c0-.1,0-.3,0-.4,0,0,0-.2,0-.3,0,0,0-.1,0-.2.3.1.6.2.8.3,1.2.3,2.4.6,3.6.7,2,.3,3.9.5,5.9.6,2.5.2,4.9.3,7.4.3.8,0,2.1,0,2.9,0,.3,0,.5.3.3.6h0Z"/>
  <path class="st0" d="M38.1,12.2c0,0,0,.2,0,.3-1.5.2-8.3,1.1-9,1.2-1.2.2-2.4.4-3.6.6-.8.2-1.6.3-2.4.5-1.1.2-2.2.5-3.2.8-.2,0-1.2.4-1.4.5,0,0,0,0,0,0,0,0,0-.1,0-.2,0-.2,0-.3-.1-.5,0,0,0,0,0-.1,0,0,.4-.3.5-.3.9-.4,1.9-.7,2.8-1,.9-.2,1.8-.4,2.7-.6.8-.2,1.6-.4,2.4-.5.8-.2,1.6-.3,2.5-.5.9-.2,6.1-.9,7.8-1.2.3,0,.6,0,.9.3.2.2.3.4.5.5h0Z"/>
  <path class="st0" d="M37,37.1c0,0-.1.1-.2.2-.3.3-.8.5-1.3.5,0,0,0,0-.1,0-1.8,0-3.5-.2-5.3-.3-1.7-.1-3.5-.3-5.2-.6-1.5-.2-2.9-.5-4.4-.8-1-.3-2.1-.6-3-1.1,0,0,0,0-.1,0,0-.1,0-.3.1-.4,0,0,0-.1,0-.2,0,0,0-.2,0-.2.2,0,.3.1.5.2.9.4,1.9.6,2.9.9,1.1.2,2.2.4,3.2.6,1.5.2,3,.4,4.5.5,2.2.2,6.3.4,7.9.4.3,0,.4.4.2.6h0Z"/>
  <path class="st0" d="M35.8,9.8c.1,0,0,.3,0,.3-.8,0-1.6.2-2.4.4-1.1.2-2.3.4-3.4.6-1.2.2-2.3.4-3.5.7-1.1.2-2.3.5-3.4.8-1.4.4-2.9.8-4.2,1.4-.3.1-.7.3-.9.5,0,0,0,0,0,0,0,0,0,0,0,0,0,0,0-.2,0-.3,0,0,0-.2,0-.2,0,0,0,0,0,0,0,0,0-.2,0-.2.3-.4.7-.6,1.2-.8.6-.3,1.3-.5,2-.7,1.5-.5,3.1-.9,4.6-1.3.9-.2,1.8-.4,2.6-.6,1-.2,1.9-.4,2.9-.6,1.1-.2,2.3-.4,3.4-.6.3,0,.5,0,.7.2.2.2.5.4.7.6h0Z"/>
  <path class="st0" d="M33.8,39.7c0,0-.1,0-.2.1-.5.3-1,.4-1.5.4-1.1-.1-2.2-.2-3.4-.4-.9-.1-1.8-.2-2.7-.4-1.4-.2-2.7-.5-4.1-.8-1.4-.3-2.7-.7-4-1.3-.4-.2-.8-.4-1.2-.6,0,0,0-.2.1-.3,0,0,0,0,0,0,0,0,0-.1,0-.2,0,0,0,0,0-.1,0,0,0-.2,0-.2,0,0,.1,0,.2.1,1.1.6,2.2,1,3.4,1.3,1.1.3,2.3.5,3.4.7,1.5.3,3.1.5,4.7.7,1.1.1,2.1.2,3.2.3.4,0,1.1,0,1.6.1.3,0,.5.5.2.6Z"/>
  <path class="st0" d="M32.9,7.8c.1,0,0,.2,0,.2-.5,0-1,.2-1.5.3-.6.1-1.2.2-1.7.3-1.2.3-2.4.5-3.5.8-.8.2-1.6.4-2.4.6-.9.2-1.7.5-2.5.8-1.2.4-2.3.8-3.3,1.5-.2.1-.3.2-.4.3h0s0,0,0,0c0-.1,0-.3-.1-.4,0,0,0-.2,0-.3,0,0,0,0,0-.1,0,0,.2-.2.2-.2.6-.5,1.4-.9,2.1-1.2.8-.4,1.7-.7,2.5-.9,1.2-.4,2.4-.8,3.6-1.1,1.1-.3,2.2-.5,3.3-.8.6-.1,1.2-.3,1.8-.4.5-.1,1,0,1.5.2.2.1.5.3.8.4h0Z"/>
  <path class="st0" d="M29.2,41.1c.3,0,.4.5,0,.6-.1,0-.3,0-.4.1-.8.2-1.5.2-2.3,0,0,0,0,0,0,0-1.2-.2-2.4-.4-3.6-.7-.9-.2-1.9-.5-2.8-.8-.9-.3-1.8-.6-2.7-1.1-.5-.2-1-.5-1.4-.9h0c0-.2,0-.2.1-.3h0c0-.1,0-.1,0-.2,0-.1.1-.2.2-.3,0,0,0,0,0,0,0,0,0,0,0,0,.7.6,1.6.9,2.4,1.2.7.3,1.3.5,2,.7.8.2,1.7.4,2.5.6,1,.2,2.1.4,3.1.6.8.1,1.7.2,2.5.4,0,0,.2,0,.3,0Z"/>
  <path class="st0" d="M28.5,6.1c.2,0,.2.3,0,.3-1.2.3-2.5.6-3.7,1-1.2.4-2.5.7-3.7,1.2-1,.4-2.1.8-3,1.3-.5.3-1.1.6-1.4,1.1,0,0,0,0,0,0,0,0,0,0,0,0,0,0,0-.1,0-.2,0-.1-.2-.4-.2-.6,0,0,0,0,0,0,.3-.5.8-.7,1.3-1,1-.6,2-1,3-1.4.8-.3,1.5-.6,2.3-.8.7-.2,1.3-.4,2-.6.3-.1.7-.2,1-.3.3,0,.6,0,.9,0,.5,0,1.1.2,1.6.3Z"/>
  <path class="st0" d="M22.5,5.6s0,0,0,0c-.5.2-1.6.6-2.4.9-.8.3-1.6.7-2.4,1.2-.7.4-1.4.8-1.8,1.5,0,0,0-.2-.1-.3,0,0,0-.2-.1-.3,0,0,0-.2-.1-.3.2-.4.6-.7.9-1h0c.5-.4,1.1-.8,1.8-1,1.4-.5,2.8-.8,4.3-.9Z"/>
  <path class="st0" d="M22,42.2c0,0,0,.2,0,.2-2.5-.3-4.8-1-6.9-2.2,0,0,0-.1,0-.2,0-.1.1-.3.2-.4,0,0,0-.1.1-.2h0c.5.5,1.2.8,1.8,1.1,1.1.5,2.2.9,3.4,1.3.4.1.9.3,1.3.4h0Z"/>
  <path class="st0" d="M15.4,8.3h-.6c-.1,0-.2-.2,0-.2,0,0,0,0,0,0h.5s0,0,0,0c0,0,0,.1.1.2Z"/>
  <path class="st0" d="M15.7,9h-2c-.1,0-.2-.2,0-.2,0,0,0,0,0,0h1.9c0,0,0,.2.1.3Z"/>
  <path class="st0" d="M16.1,9.6h-3.2c-.1,0-.2-.2,0-.2,0,0,0,0,0,0h3.1s0,0,0,0c0,0,0,.2.1.2Z"/>
  <path class="st0" d="M16.4,10.3h-4.3c-.1,0-.2-.2,0-.2,0,0,0,0,0,0h4.2s0,0,0,.1c0,0,0,0,0,.1Z"/>
  <path class="st0" d="M16.6,10.9h-5.3c-.1,0-.2-.1,0-.2,0,0,0,0,0,0h5.2c0,0,0,.1,0,.2,0,0,0,0,0,0Z"/>
  <path class="st0" d="M16.9,11.6h-6.2c-.1,0-.2-.1,0-.2,0,0,0,0,0,0h6.1c0,0,0,.2.1.3Z"/>
  <path class="st0" d="M17.1,12.2h-7c-.1,0-.2-.1-.1-.2,0,0,0,0,.1,0h6.9v.2c0,0,0,0,0,.1Z"/>
  <path class="st0" d="M17.4,12.9h-7.8c-.1,0-.2-.1-.1-.2,0,0,0,0,.1,0h7.7s0,0,0,0c0,0,0,0,0,0,0,0,0,.1,0,.2Z"/>
  <path class="st0" d="M17.6,13.5h-8.5c-.1,0-.2-.1-.1-.2,0,0,0,0,.1,0h8.4c0,0,0,.2,0,.3Z"/>
  <path class="st0" d="M17.8,14.2h-9.1c-.1,0-.2-.1-.1-.2,0,0,0,0,.1,0h9s0,0,0,0c0,0,0,.2,0,.2Z"/>
  <path class="st0" d="M18,14.8h-9.7c-.1,0-.2-.1-.1-.2,0,0,0,0,.1,0h9.6c0,0,0,.2,0,.3Z"/>
  <path class="st0" d="M18.1,15.5H7.9c0,0-.2-.1-.1-.2,0,0,0,0,.1,0h10.2c0,0,0,.1,0,.2,0,0,0,0,0,0Z"/>
  <path class="st0" d="M18.3,16.1H7.6c0,0-.2-.1-.1-.2,0,0,0,0,.1,0h10.7c0,0,0,.2,0,.3Z"/>
  <path class="st0" d="M18.4,16.8H7.3c0,0-.2,0-.1-.2,0,0,0,0,.1,0h11.1s0,0,0,.1c0,0,0,0,0,.1Z"/>
  <path class="st0" d="M18.5,17.5H7c0,0-.2,0-.1-.2,0,0,0,0,.1,0h11.5s0,0,0,0c0,0,0,0,0,0,0,0,0,.2,0,.2Z"/>
  <path class="st0" d="M18.7,18.1H6.7c0,0-.2,0-.1-.2,0,0,0,0,.1,0h11.9s0,0,0,0c0,0,0,0,0,.1,0,0,0,0,0,0Z"/>
  <path class="st0" d="M18.8,18.8H6.5c0,0-.2,0-.1-.2,0,0,0,0,.1,0h12.2s0,0,0,0c0,0,0,.2,0,.3Z"/>
  <path class="st0" d="M18.8,19.4H6.3c0,0-.2,0-.1-.2,0,0,0,0,.1,0h12.5c0,0,0,.2,0,.3Z"/>
  <path class="st0" d="M18.9,20.1H6.2c0,0-.1,0-.1-.2,0,0,0-.1.1-.1h12.7s0,0,0,0c0,0,0,0,0,0,0,0,0,0,0,.1Z"/>
  <path class="st0" d="M19,20.7H6.1c0,0-.1,0-.1-.2,0,0,0-.1.1-.1h12.9c0,0,0,.2,0,.3Z"/>
  <path class="st0" d="M19,21.4H5.9c0,0-.1,0-.1-.2,0,0,0-.1.1-.1h13.1s0,0,0,.1c0,0,0,0,0,.1Z"/>
  <path class="st0" d="M19.1,22H5.9c0,0-.1,0-.1-.1,0,0,0-.1.1-.1h13.2s0,0,0,0c0,0,0,.2,0,.2Z"/>
  <path class="st0" d="M19.1,22.7h0s-13.3,0-13.3,0c0,0-.1,0-.1-.1,0,0,0-.1.1-.1h13.3c0,0,0,.2,0,.3Z"/>
  <path class="st0" d="M19.1,23.3H5.7c0,0-.1,0-.1-.1,0,0,0-.1.1-.1h13.4c0,0,0,.2,0,.3Z"/>
  <path class="st0" d="M19.1,24h0s-13.4,0-13.4,0c0,0-.1,0-.1-.1,0,0,0-.1.1-.1h13.4c0,0,0,.2,0,.3Z"/>
  <path class="st0" d="M19.1,24.4s0,0,0,.1h0c0,.1-13.4.1-13.4.1,0,0-.1,0-.1-.1,0,0,0-.1.1-.1h13.4Z"/>
  <path class="st0" d="M19.1,25c0,0,0,.2,0,.3H5.8c0,0-.1,0-.1-.1,0,0,0-.1.1-.1h13.3Z"/>
  <path class="st0" d="M19.1,25.7s0,0,0,.1c0,0,0,0,0,.1H5.8c0,0-.1,0-.1-.1,0,0,0-.1.1-.1h13.3Z"/>
  <path class="st0" d="M19.1,26.3s0,0,0,0h0c0,0,0,.2,0,.3H5.9c0,0-.1,0-.1-.1,0,0,0-.2.1-.2h13.2Z"/>
  <path class="st0" d="M19,27s0,0,0,0c0,0,0,.1,0,.2H6c0,0-.1,0-.1-.1,0,0,0-.2.1-.2h13Z"/>
  <path class="st0" d="M18.9,27.6c0,0,0,.2,0,.3H6.1c0,0-.1,0-.1-.1,0,0,0-.2.1-.2h12.8Z"/>
  <path class="st0" d="M18.9,28.3c0,0,0,.2,0,.2,0,0,0,0,0,0H6.3c0,0-.1,0-.1-.1,0,0,0-.2.1-.2h12.6Z"/>
  <path class="st0" d="M18.8,28.9s0,0,0,.1c0,0,0,0,0,0,0,0,0,0,0,0H6.4c0,0-.1,0-.1,0,0,0,0-.2.1-.2h12.4Z"/>
  <path class="st0" d="M18.7,29.6c0,0,0,.2,0,.3H6.6c0,0-.1,0-.1,0,0,0,0-.2.1-.2h12.1Z"/>
  <path class="st0" d="M18.6,30.2s0,0,0,.1c0,0,0,.1,0,.2H6.9c0,0-.1,0-.1,0,0,0,0-.2.1-.2h11.7Z"/>
  <path class="st0" d="M18.5,30.9c0,0,0,.2,0,.3H7.1c0,0-.1,0-.1,0,0,0,0-.2.1-.2h11.4Z"/>
  <path class="st0" d="M18.3,31.6c0,0,0,.2,0,.3,0,0,0,0,0,0H7.4c0,0,0,0-.1,0,0,0,0-.2.1-.2h10.9Z"/>
  <path class="st0" d="M18.2,32.2c0,0,0,.2,0,.3H7.7c0,0,0,0-.1,0,0,0,0-.2.1-.2h10.5Z"/>
  <path class="st0" d="M18,32.9s0,0,0,0h0c0,0,0,.1,0,.2,0,0,0,0,0,0h-9.9s0,0-.1,0c0,0,0-.2.1-.2h10Z"/>
  <path class="st0" d="M17.9,33.5s0,0,0,.1c0,0,0,0,0,.1h-9.3s0,0-.1,0c0,0,0-.2.1-.2h9.4Z"/>
  <path class="st0" d="M17.7,34.2c0,0,0,.2,0,.3h-8.7s0,0-.1,0c0,0,0-.2.1-.2h8.8Z"/>
  <path class="st0" d="M17.5,34.8s0,0,0,0c0,0,0,.1,0,.2h-8.1s0,0-.1,0c0,0,0-.2.1-.2h8.1Z"/>
  <path class="st0" d="M17.2,35.5c0,0,0,.2,0,.3h-7.3s0,0-.1,0c0,0,0-.2.1-.2h7.4Z"/>
  <path class="st0" d="M17,36.1c0,0,0,.1,0,.2,0,0,0,0,0,0,0,0,0,0,0,0h-6.5s0,0,0,0c0,0,0-.2,0-.2h6.6Z"/>
  <path class="st0" d="M16.8,36.8c0,0,0,.2-.1.3h-5.6s0,0,0,0c0,0,0-.2,0-.2h5.8Z"/>
  <path class="st0" d="M16.5,37.4c0,0,0,.1,0,.2,0,0,0,0,0,0,0,0,0,0,0,0h-4.7s0,0,0,0c0,0,0-.2,0-.2h4.8Z"/>
  <path class="st0" d="M16.2,38.1h0c0,.2,0,.2,0,.3h-3.7s0,0,0,0c0,0,0-.2,0-.2h3.8Z"/>
  <path class="st0" d="M15.9,38.7c0,0,0,.2-.1.3h-2.5s0,0,0,0c-.1,0,0-.2,0-.2h2.6Z"/>
  <path class="st0" d="M15.6,39.4s0,0,0,0c0,0,0,0,0,0,0,0,0,.1,0,.2h-1.2s0,0,0,0c-.1,0,0-.2,0-.2h1.3Z"/>
  <path class="st0" d="M15.2,40c0,0,0,.1,0,.2,0,0,0-.2,0-.2h0Z"/>
</svg>