<svg width="48" height="48" viewBox="0 0 48 48" fill="none" xmlns="http://www.w3.org/2000/svg">
<path d="M0 24C0 10.7452 10.7452 0 24 0V0C37.2548 0 48 10.7452 48 24V24C48 37.2548 37.2548 48 24 48V48C10.7452 48 0 37.2548 0 24V24Z" fill="#7300FF"/>
<path d="M41.8363 19.4231C41.8728 19.5653 41.769 19.7076 41.6231 19.7175C41.1547 19.7513 40.6863 19.7851 40.2192 19.8273C38.6022 19.9752 36.9795 20.0668 35.3625 20.2302C34.3948 20.3274 33.4229 20.364 32.4537 20.4443C31.5155 20.5218 30.5814 20.6275 29.6432 20.7092C27.5058 20.8951 25.3657 21.0698 23.2269 21.2599C22.0965 21.3599 20.9633 21.4459 19.8385 21.5994C19.5777 21.6346 19.3168 21.6684 19.0559 21.698C19.0517 21.6163 19.0461 21.536 19.0405 21.4543C19.0391 21.4262 19.0363 21.3994 19.0349 21.3712C19.0321 21.329 19.0279 21.2853 19.0251 21.243C19.0153 21.105 19.004 20.9683 18.9914 20.8317C20.112 20.5866 23.3699 20.2091 24.3517 20.102C25.5718 19.9682 26.7934 19.8414 28.0163 19.7217C29.6965 19.5555 31.3767 19.3991 33.0568 19.2399C34.3485 19.1174 35.6402 18.992 36.9332 18.8779C38.3385 18.7554 39.7438 18.6384 41.1477 18.5201C41.3973 18.499 41.6259 18.661 41.6946 18.9033C41.7437 19.0751 41.79 19.2484 41.8349 19.4231H41.8363Z" fill="#A897FF"/>
<path d="M41.3075 28.7582C41.5558 28.7469 41.7423 28.9849 41.6722 29.2244C41.6357 29.3512 41.5965 29.478 41.5572 29.6047C41.4829 29.8428 41.2655 30.0062 41.0172 30.0076C38.7845 30.0273 28.0822 30.1076 25.3979 29.9625C24.0936 29.8921 22.7879 29.8231 21.492 29.6526C20.7515 29.5554 20.0026 29.4864 19.2747 29.2991C19.1022 29.2554 18.9311 29.2103 18.767 29.1455C18.7712 29.123 18.774 29.1005 18.7768 29.0779C18.7824 29.0328 18.7894 28.9878 18.7951 28.9427C18.8091 28.8441 18.8231 28.7441 18.8357 28.6441C18.8399 28.6117 18.8427 28.5821 18.8469 28.5525L18.875 28.3271C18.8778 28.2961 18.8806 28.2778 18.8834 28.2539C19.7319 28.6131 22.4303 28.7427 23.1049 28.7793C24.9701 28.8807 26.8368 28.9455 28.7049 28.961C30.5478 28.9779 32.392 28.961 34.2363 28.9455C36.0427 28.93 37.8448 28.8441 39.6498 28.8187C40.079 28.8131 40.8167 28.7807 41.3075 28.7582Z" fill="#A897FF"/>
<path d="M41.0284 16.9805C41.0747 17.0946 40.9976 17.2228 40.8741 17.234C39.6105 17.3552 38.3455 17.4848 37.0804 17.5932C35.5069 17.727 33.9361 17.8919 32.3667 18.0539C30.9671 18.2004 29.5674 18.3539 28.1691 18.5145C26.848 18.6666 25.5283 18.823 24.21 18.992C22.7836 19.1765 21.3573 19.3625 19.945 19.6372C19.6393 19.6963 19.335 19.7639 19.0306 19.8302C18.9942 19.8372 18.9493 19.8442 18.9212 19.8668C18.9142 19.8724 18.9072 19.8795 18.8988 19.8851C18.896 19.8569 18.8932 19.8287 18.889 19.8006C18.8735 19.671 18.8581 19.5414 18.8427 19.4132H18.8413C18.8301 19.3216 18.8189 19.2315 18.8048 19.1413C18.795 19.0624 18.7978 19.085 18.7894 19.0286C18.9535 18.9793 19.2101 18.8765 19.3686 18.83C20.1708 18.592 20.9927 18.461 21.8103 18.3173C23.3264 18.0524 24.8467 17.8172 26.3754 17.627C27.7554 17.4566 29.1326 17.2354 30.5169 17.0988C32.1171 16.941 33.7061 16.6931 35.3091 16.5551C36.7102 16.4353 38.1085 16.2578 39.5095 16.1311C39.7017 16.1141 39.8952 16.0944 40.0873 16.0733C40.3987 16.0395 40.6946 16.2113 40.8222 16.4987C40.8924 16.6579 40.9611 16.8185 41.027 16.9805H41.0284Z" fill="#A897FF"/>
<path d="M39.8153 14.5562C39.8728 14.6534 39.8125 14.7773 39.7003 14.79C37.6555 15.014 28.9672 16.0522 27.1103 16.3226C25.9645 16.4889 24.8243 16.6917 23.6812 16.8706C22.6588 17.0312 21.6449 17.2312 20.6365 17.458C20.0026 17.6003 19.3616 17.744 18.7614 18.006C18.7207 18.0229 18.6828 18.0412 18.645 18.0623H18.6436C18.6365 18.0158 18.6295 17.9693 18.6211 17.9229C18.6169 17.8961 18.6127 17.8693 18.6071 17.8426C18.5847 17.713 18.5622 17.5834 18.5384 17.4538C18.5258 17.3777 18.5103 17.3016 18.4963 17.2256C18.4949 17.2213 18.4949 17.2157 18.4935 17.2115C18.8259 16.9903 19.2046 16.8776 19.5804 16.7607C20.83 16.3733 22.1063 16.1029 23.3895 15.862C29.2561 14.7604 34.8239 14.1167 38.6737 13.6476C39.0004 13.6082 39.3202 13.7589 39.4983 14.0364C39.5867 14.173 39.7185 14.3942 39.8153 14.5562Z" fill="#A897FF"/>
<path d="M40.3609 31.3684C40.6161 31.367 40.7858 31.6332 40.6778 31.8642C40.6091 32.0121 40.5376 32.16 40.4647 32.3051C40.3567 32.5206 40.1379 32.6573 39.8981 32.6531C37.8518 32.6192 28.2814 32.4516 26.6826 32.3333C25.1763 32.2234 20.6435 31.8896 18.4486 31.0218V31.019C18.4683 30.919 18.4879 30.8134 18.5089 30.7077C18.5216 30.6429 18.5328 30.5781 18.544 30.5119C18.5524 30.4612 18.5622 30.4091 18.5707 30.3584C18.5805 30.3077 18.5889 30.2598 18.5959 30.2105L18.6099 30.1259C18.6786 30.1499 18.8105 30.2062 18.8778 30.2288C20.2003 30.6711 21.5804 30.788 22.9534 30.9303C26.2366 31.2698 29.5338 31.3712 32.8324 31.4205C33.1662 31.4247 38.605 31.381 40.3595 31.3684H40.3609Z" fill="#A897FF"/>
<path d="M42.4 24.435C42.4015 24.6336 42.2458 24.797 42.048 24.8069C40.5965 24.8787 39.1477 24.9788 37.6948 25.0421C35.8687 25.1224 34.0427 25.2267 32.2153 25.2929C30.0387 25.3746 27.862 25.469 25.3095 25.4929C24.0108 25.5098 22.3391 25.5507 20.6659 25.4929C20.1442 25.476 19.6211 25.4774 19.1022 25.3901L19.098 25.3844C19.1078 25.2605 19.1134 25.1379 19.1148 25.014C19.119 24.8773 19.1218 24.7393 19.1232 24.5998C19.1232 24.5435 19.119 24.535 19.1232 24.4829C19.2691 24.4871 19.5271 24.5167 19.6702 24.5224C20.9773 24.5632 22.2844 24.5181 23.5915 24.49C24.4302 24.4716 25.2703 24.4463 26.1103 24.4097C28.092 24.3223 30.0737 24.2336 32.054 24.135C34.4158 24.0181 36.7775 23.8941 39.1393 23.7645C40.0986 23.711 41.0326 23.6335 42.0102 23.5772C42.2023 23.5659 42.3678 23.7152 42.3804 23.9096C42.393 24.104 42.3986 24.2857 42.4 24.435Z" fill="#A897FF"/>
<path d="M42.2906 21.8966C42.3117 22.0826 42.1714 22.2488 41.9849 22.2601C41.3299 22.3023 39.8854 22.3939 39.0649 22.4488C37.0314 22.5812 34.9978 22.7066 32.9656 22.8461C30.8619 22.9926 28.7568 23.0841 26.6531 23.2151C24.7906 23.3321 19.816 23.5476 19.1947 23.5476C19.1723 23.5476 19.1484 23.5504 19.126 23.5504C19.126 23.5067 19.1246 23.4631 19.1246 23.4194C19.1246 23.3898 19.1246 23.3616 19.1246 23.3321C19.1218 23.2433 19.1204 23.156 19.1176 23.0672C19.1148 22.9362 19.1106 22.8066 19.105 22.6784V22.6658H19.1064C19.119 22.6644 19.1316 22.6644 19.1442 22.6629C19.6407 22.6249 20.1372 22.5925 20.6337 22.5573C22.5649 22.4192 24.4961 22.2699 26.4287 22.1446C28.8577 21.9882 31.284 21.7924 33.7145 21.6417C35.8954 21.5064 38.0734 21.3219 40.2514 21.1571C40.7577 21.1191 41.2668 21.1022 41.7731 21.0557C41.9975 21.0346 42.1995 21.1937 42.2317 21.4177C42.2542 21.5769 42.2738 21.7375 42.292 21.8981L42.2906 21.8966Z" fill="#A897FF"/>
<path d="M42.1644 27.0114C42.135 27.227 41.9569 27.3904 41.7409 27.403C41.337 27.4256 40.9317 27.4537 40.5263 27.4664C38.1393 27.5453 35.7537 27.6665 33.3653 27.6862C33.0315 27.689 29.5464 27.7622 28.1383 27.751C26.2169 27.7355 24.2955 27.7341 22.3755 27.6242C21.3265 27.565 20.2802 27.5101 19.2438 27.3256C19.1569 27.3101 19.0699 27.2847 18.9844 27.2608C18.9914 27.1903 18.997 27.1213 19.0026 27.0509C19.004 27.0283 19.0068 27.0058 19.0082 26.9833C19.0194 26.8537 19.0292 26.7241 19.0377 26.5945C19.0447 26.51 19.0503 26.4268 19.0545 26.3423C19.0545 26.3409 19.0545 26.3311 19.0545 26.3296C19.241 26.3663 19.4289 26.4311 19.6183 26.4536C20.2606 26.5311 20.9043 26.5818 21.5495 26.5987C23.5172 26.6494 25.4848 26.6762 27.4539 26.6452C29.7021 26.6086 31.9502 26.5748 34.197 26.4916C35.8519 26.4311 37.5096 26.3902 39.1631 26.2958C40.0579 26.2451 40.9527 26.2296 41.8447 26.1662C42.0663 26.1508 42.2472 26.3367 42.2219 26.5578C42.2051 26.6987 42.1855 26.8593 42.1644 27.01V27.0114Z" fill="#A897FF"/>
<path d="M39.1449 34.5406C39.0804 34.635 39.0131 34.7294 38.9472 34.8224C38.7564 35.0886 38.4493 35.2464 38.1239 35.2464C37.9795 35.2464 37.8336 35.2464 37.6891 35.2464C36.2979 35.2238 34.9052 35.1774 33.514 35.1182C30.8016 35.0041 28.092 34.8351 25.3937 34.5294C23.9323 34.3632 22.4751 34.1631 21.0348 33.8617C20.1162 33.6701 19.199 33.4546 18.3308 33.0771C18.2214 33.0292 18.1162 32.9785 18.0153 32.9207H18.0139C18.0195 32.8996 18.0251 32.8799 18.0307 32.8587C18.0644 32.7305 18.0966 32.6009 18.1289 32.4713C18.1499 32.3826 18.1709 32.2953 18.192 32.2065C18.2046 32.1544 18.2158 32.1023 18.2284 32.0502C18.4907 32.184 18.7824 32.2643 19.0741 32.3488C20.2648 32.6911 21.478 32.9207 22.7037 33.0911C24.6616 33.3644 26.6278 33.5419 28.5997 33.6701C31.0611 33.8307 33.5238 33.9279 35.9908 33.9589C36.7635 33.9687 38.0636 33.973 38.8518 33.9758C39.1393 33.9758 39.309 34.3026 39.1463 34.5392L39.1449 34.5406Z" fill="#A897FF"/>
<path d="M38.1295 12.1685C38.2067 12.2615 38.1506 12.4038 38.0314 12.4193C36.5167 12.6179 29.7764 13.5363 29.0387 13.6617C27.8284 13.8674 26.618 14.0801 25.4105 14.304C24.5929 14.4562 23.7766 14.6168 22.966 14.8013C21.8749 15.0506 20.7824 15.2943 19.7179 15.6479C19.5229 15.7127 18.565 16.0437 18.2817 16.193C18.2789 16.1775 18.2747 16.1635 18.2719 16.148C18.2593 16.093 18.2481 16.0395 18.2355 15.986C18.199 15.8254 18.1611 15.6662 18.1219 15.507C18.1036 15.4352 18.1163 15.4845 18.0952 15.4028C18.1794 15.3169 18.4977 15.1422 18.6071 15.0971C19.5313 14.7168 20.4626 14.3576 21.4359 14.1153C22.3335 13.8927 23.2339 13.6828 24.1329 13.4659C24.9267 13.2729 25.7275 13.1095 26.5269 12.9616C27.3515 12.8095 28.1762 12.6489 29.0036 12.508C29.8942 12.3559 35.1198 11.5699 36.7972 11.3191C37.1212 11.2712 37.4465 11.3881 37.6653 11.6318C37.8238 11.8079 37.9781 11.9854 38.1281 12.1671L38.1295 12.1685Z" fill="#A897FF"/>
<path d="M36.9907 37.1241C36.9304 37.1847 36.8687 37.2452 36.807 37.3058C36.4732 37.6298 36.0188 37.7988 35.556 37.7791C35.5209 37.7777 35.4845 37.7763 35.4494 37.7749C33.6935 37.6918 31.939 37.5805 30.1873 37.4284C28.4609 37.2791 26.7373 37.0847 25.0234 36.8297C23.5466 36.6114 22.0768 36.3508 20.6295 35.9831C19.5818 35.7169 18.5412 35.4182 17.5903 34.8829C17.5483 34.859 17.5048 34.8351 17.4641 34.8097C17.5132 34.6632 17.5595 34.5153 17.6058 34.3674C17.6268 34.2998 17.6464 34.2336 17.6661 34.1659C17.6913 34.0885 17.7137 34.011 17.7362 33.9321C17.9003 34.0138 18.0742 34.0814 18.2425 34.1547C19.1709 34.5632 20.154 34.7998 21.1386 35.0294C22.2073 35.2788 23.29 35.4534 24.3741 35.6126C25.8579 35.831 27.3515 35.9859 28.8466 36.1197C31.0274 36.3141 35.0974 36.4874 36.7691 36.5536C37.0594 36.5649 37.1983 36.9184 36.9921 37.1241H36.9907Z" fill="#A897FF"/>
<path d="M35.8056 9.83441C35.922 9.93301 35.8631 10.1232 35.7117 10.1415C34.9066 10.2401 34.1072 10.3739 33.305 10.5007C32.1606 10.6796 31.0204 10.8838 29.8802 11.0853C28.7175 11.2909 27.5605 11.5332 26.4034 11.7699C25.2534 12.0037 24.109 12.2601 22.973 12.5545C21.5453 12.9236 20.119 13.3067 18.7642 13.9124C18.4374 14.0589 18.105 14.1646 17.861 14.4519C17.8568 14.4562 17.8526 14.4618 17.8484 14.466C17.847 14.4632 17.847 14.459 17.8456 14.4562C17.8217 14.3674 17.7965 14.2787 17.7698 14.1913C17.7474 14.1111 17.7235 14.0294 17.6997 13.9505C17.6969 13.942 17.6955 13.935 17.6927 13.9265C17.6703 13.8505 17.6478 13.7758 17.6254 13.7011C17.8862 13.2616 18.3673 13.0687 18.8133 12.856C19.4528 12.5531 20.126 12.3362 20.795 12.108C22.3195 11.5882 23.8776 11.1881 25.4428 10.8261C26.3207 10.6218 27.1958 10.4035 28.0864 10.2514C29.0499 10.0866 30.0022 9.85131 30.9643 9.67664C32.0947 9.47098 33.2307 9.29067 34.3653 9.09769C34.6247 9.05402 34.894 9.11459 35.1044 9.27518C35.3428 9.45689 35.577 9.64283 35.8056 9.83582V9.83441Z" fill="#A897FF"/>
<path d="M33.8379 39.654C33.772 39.6963 33.7061 39.7371 33.6402 39.778C33.1774 40.0639 32.6318 40.1809 32.0919 40.1287C30.9741 40.0217 29.8549 39.916 28.7399 39.7639C27.8396 39.6414 26.9364 39.523 26.0388 39.3808C24.6728 39.1624 23.311 38.9117 21.966 38.5835C20.5986 38.2496 19.2396 37.8848 17.9507 37.303C17.5482 37.1213 17.1541 36.9227 16.7965 36.6621C16.833 36.5719 16.868 36.4804 16.9031 36.3888C16.9087 36.3733 16.9157 36.3578 16.9213 36.3409C16.9494 36.2691 16.976 36.1972 17.0027 36.124C17.0167 36.0887 17.0307 36.0521 17.0433 36.0169C17.0728 35.9366 17.1022 35.8563 17.1317 35.7746C17.192 35.8127 17.2551 35.8493 17.3168 35.8859C18.3883 36.5057 19.5664 36.8536 20.7557 37.1706C21.8917 37.4734 23.0403 37.7031 24.1959 37.9101C25.7429 38.1876 27.2982 38.3933 28.8592 38.5708C29.918 38.6919 30.9783 38.7905 32.04 38.8849C32.4607 38.9229 33.1185 38.968 33.6738 39.0061C34.0118 39.0286 34.124 39.4723 33.8379 39.654Z" fill="#A897FF"/>
<path d="M32.8534 7.813C32.9572 7.86794 32.9333 8.02289 32.8183 8.04402C32.3064 8.13699 31.7945 8.22996 31.2826 8.32716C30.7034 8.43562 30.1228 8.54268 29.5464 8.66805C28.3627 8.92724 27.1776 9.18502 25.9995 9.46675C25.1917 9.65974 24.3867 9.86962 23.583 10.0866C22.7275 10.319 21.8762 10.5683 21.0404 10.8529C19.8875 11.2459 18.7375 11.6586 17.7095 12.3404C17.5566 12.4404 17.415 12.5517 17.2972 12.6883H17.2958C17.2873 12.6672 17.2803 12.6432 17.2719 12.6207C17.227 12.4911 17.1808 12.3601 17.1345 12.2319C17.1036 12.1432 17.0714 12.0544 17.0377 11.9671C17.0237 11.9291 17.0097 11.891 16.9956 11.853C17.0686 11.7657 17.1569 11.6882 17.2453 11.6149C17.8736 11.0951 18.5987 10.7374 19.3406 10.4162C20.1666 10.057 21.0123 9.74426 21.8678 9.47098C23.0739 9.08501 24.2843 8.71594 25.5142 8.4159C26.6096 8.14967 27.7021 7.87076 28.8002 7.62002C29.4019 7.48338 30.005 7.35942 30.608 7.23546C31.1101 7.13263 31.6304 7.19883 32.0904 7.42562C32.3401 7.54818 32.6164 7.68763 32.8548 7.81441L32.8534 7.813Z" fill="#A897FF"/>
<path d="M29.2196 41.1444C29.5464 41.1923 29.5773 41.6515 29.2603 41.7459C29.1369 41.7825 28.9826 41.8247 28.8199 41.8656C28.064 42.06 27.2744 42.0839 26.5058 41.9459C26.5016 41.9459 26.4988 41.9459 26.4946 41.9445C25.2941 41.7276 24.0936 41.5008 22.9085 41.2078C21.966 40.9739 21.025 40.7302 20.1022 40.4246C19.1793 40.1203 18.2705 39.7836 17.3968 39.3596C16.9256 39.13 16.3926 38.8173 15.9859 38.4947L16.035 38.4172C16.0728 38.3398 16.1079 38.2679 16.1416 38.1933L16.1921 38.0834C16.1991 38.0693 16.2047 38.0538 16.2117 38.0397C16.2636 37.9256 16.3155 37.8115 16.3646 37.696C16.3716 37.6819 16.3786 37.6664 16.3842 37.6523C16.3884 37.6439 16.3926 37.634 16.3954 37.6256C17.1261 38.1792 17.969 38.5243 18.8203 38.8525C19.4879 39.1103 20.1653 39.3357 20.8553 39.523C21.6869 39.747 22.5242 39.9583 23.3671 40.1414C24.3923 40.364 25.4217 40.5626 26.4582 40.733C27.2856 40.8683 28.1173 40.9824 28.9475 41.1049C29.0387 41.119 29.1285 41.1317 29.2196 41.1444Z" fill="#A897FF"/>
<path d="M28.4833 6.086C28.6404 6.12544 28.6362 6.34942 28.4791 6.38604C27.2379 6.67622 26.0052 6.99599 24.7794 7.34251C23.5312 7.69327 22.297 8.0905 21.0783 8.53423C20.0475 8.90893 19.0279 9.30898 18.07 9.84849C17.5426 10.1443 17.0125 10.45 16.6381 10.943C16.6352 10.9374 16.6324 10.9303 16.6296 10.9247C16.6184 10.8979 16.6072 10.8712 16.596 10.8444C16.5707 10.7824 16.5455 10.7204 16.5188 10.6599C16.4599 10.5204 16.3365 10.2415 16.2748 10.1035C16.3295 10.0499 16.3141 10.0654 16.3576 10.0175C16.6885 9.56254 17.1794 9.27095 17.6619 8.97232C18.6127 8.38632 19.6351 7.94823 20.6716 7.54395C21.4233 7.24954 22.189 6.99035 22.9548 6.73116C23.6238 6.50437 24.297 6.29026 24.9743 6.09164C25.3137 5.99162 25.6531 5.89583 25.9939 5.80286C26.2758 5.72539 26.5718 5.7113 26.8621 5.75638C27.4104 5.84231 27.9518 5.95218 28.4833 6.086Z" fill="#A897FF"/>
<path d="M22.4555 5.60002C22.4793 5.59861 22.4863 5.63242 22.4653 5.64087C21.9829 5.81695 20.8328 6.25222 20.0895 6.55367C19.2551 6.89175 18.4472 7.28758 17.6703 7.74116C16.9929 8.1384 16.3141 8.54972 15.8611 9.22305C15.8204 9.13713 15.7783 9.05261 15.7348 8.96809C15.6914 8.87935 15.6465 8.7906 15.6002 8.70326C15.5525 8.60889 15.5034 8.51732 15.4544 8.42435C15.6703 8.03275 16.0294 7.73693 16.3912 7.4538L16.401 7.44675C16.941 7.02557 17.544 6.69313 18.192 6.4776C19.5496 6.02261 20.9773 5.72398 22.4555 5.60002Z" fill="#A897FF"/>
<path d="M22.0109 42.2431C22.1062 42.2685 22.0782 42.4093 21.9814 42.3995C19.5103 42.129 17.1864 41.3655 15.1079 40.2104C15.1402 40.1555 15.171 40.0992 15.2019 40.0428C15.2734 39.9146 15.3435 39.785 15.4136 39.654C15.4543 39.5794 15.4922 39.5061 15.5315 39.4286H15.5329C16.0672 39.8935 16.6913 40.2288 17.3238 40.5513C18.4009 41.1007 19.5383 41.4994 20.6855 41.8572C21.1245 41.9938 21.5677 42.1234 22.0109 42.2445V42.2431Z" fill="#A897FF"/>
<path d="M15.3955 8.31317H14.7729C14.6364 8.31317 14.5869 8.13591 14.7048 8.06679C14.7255 8.05466 14.7489 8.04834 14.7729 8.04834H15.2524C15.2651 8.06947 15.2763 8.08919 15.2875 8.11032C15.324 8.17794 15.359 8.24555 15.3955 8.31317Z" fill="#A897FF"/>
<path d="M15.7349 8.96678H13.7415C13.6111 8.96678 13.5582 8.79933 13.6657 8.72539C13.6879 8.71015 13.7143 8.70195 13.7411 8.70195H15.6003C15.6465 8.78929 15.6914 8.87803 15.7349 8.96678Z" fill="#A897FF"/>
<path d="M16.0532 9.61898H12.848C12.7204 9.61898 12.6647 9.45911 12.7663 9.38155C12.7897 9.36368 12.8182 9.35415 12.8476 9.35415H15.9256C15.9326 9.36683 15.9382 9.3781 15.9438 9.39078C15.9803 9.46684 16.0168 9.54291 16.0532 9.61898Z" fill="#A897FF"/>
<path d="M16.3505 10.2726H12.0501C11.9275 10.2726 11.8697 10.1212 11.9624 10.0405C11.9866 10.0194 12.0177 10.0078 12.0498 10.0078H16.2327C16.2496 10.0458 16.2678 10.0852 16.2846 10.1247C16.3071 10.174 16.3281 10.2233 16.3505 10.2726Z" fill="#A897FF"/>
<path d="M16.6297 10.9248H11.3388C11.2195 10.9248 11.1601 10.7804 11.246 10.6973C11.2708 10.6734 11.3041 10.66 11.3385 10.66H16.5189C16.5455 10.7205 16.5708 10.7825 16.596 10.8445C16.6072 10.8713 16.6185 10.898 16.6297 10.9248Z" fill="#A897FF"/>
<path d="M16.892 11.5784H10.6961C10.5802 11.5784 10.5197 11.4398 10.5991 11.3552C10.6241 11.3285 10.6589 11.3136 10.6954 11.3136H16.7868C16.8232 11.4009 16.8569 11.4897 16.892 11.5784Z" fill="#A897FF"/>
<path d="M17.1346 12.2306H10.1134C10.0001 12.2306 9.93817 12.0984 10.0121 12.0122C10.0374 11.9827 10.0743 11.9658 10.1131 11.9658H17.0378L17.0967 12.1264C17.1093 12.1602 17.122 12.1954 17.1346 12.2306Z" fill="#A897FF"/>
<path d="M17.3632 12.8842H9.58162C9.47133 12.8842 9.40841 12.7581 9.47623 12.6708C9.50143 12.6383 9.54027 12.6194 9.58127 12.6194H17.2734C17.279 12.6349 17.2847 12.6518 17.2903 12.6673C17.2931 12.6743 17.2945 12.68 17.2973 12.687C17.3183 12.7532 17.3407 12.8194 17.3632 12.8842Z" fill="#A897FF"/>
<path d="M17.5735 13.5364H9.09837C8.99139 13.5364 8.92874 13.4152 8.99041 13.3274C9.01512 13.2922 9.05516 13.2716 9.09804 13.2716H17.4908C17.5189 13.3589 17.5469 13.4477 17.5735 13.5364Z" fill="#A897FF"/>
<path d="M17.7699 14.19H8.65744C8.55253 14.19 8.48874 14.0735 8.54595 13.9852C8.5703 13.9476 8.61195 13.9252 8.65661 13.9252H17.6927C17.6956 13.9337 17.697 13.9407 17.6998 13.9492C17.7236 14.0294 17.7474 14.1097 17.7699 14.19Z" fill="#A897FF"/>
<path d="M17.9508 14.8422H8.25525C8.15286 14.8422 8.08905 14.7311 8.14118 14.6426C8.16509 14.602 8.2085 14.5774 8.25545 14.5774H17.8792C17.9045 14.6662 17.9283 14.7535 17.9508 14.8422Z" fill="#A897FF"/>
<path d="M18.1191 15.4958H7.88866C7.78887 15.4958 7.72468 15.3898 7.77181 15.3014C7.79485 15.2582 7.8399 15.231 7.8887 15.231H18.0531C18.0672 15.2888 18.0812 15.3451 18.0952 15.4029C18.1036 15.4339 18.1106 15.4649 18.1191 15.4958Z" fill="#A897FF"/>
<path d="M18.2719 16.1481H7.55706C7.45942 16.1481 7.39476 16.047 7.43745 15.9588C7.45975 15.9128 7.5066 15.8832 7.55761 15.8832H18.2102C18.2327 15.9706 18.2523 16.0593 18.2719 16.1481Z" fill="#A897FF"/>
<path d="M18.4122 16.8017H7.25817C7.16266 16.8017 7.09812 16.7032 7.13657 16.6154C7.15762 16.5673 7.20502 16.5368 7.25731 16.5368H18.3575C18.3687 16.5861 18.3786 16.634 18.3884 16.6833C18.3968 16.7228 18.4052 16.7622 18.4122 16.8017Z" fill="#A897FF"/>
<path d="M18.5384 17.4539H6.98752C6.89417 17.4539 6.83003 17.3597 6.86456 17.2726C6.88467 17.2219 6.93351 17.189 6.98788 17.189H18.4893C18.4907 17.1975 18.4921 17.2045 18.4936 17.2116C18.495 17.2158 18.495 17.2214 18.4964 17.2257C18.5104 17.3017 18.5258 17.3778 18.5384 17.4539Z" fill="#A897FF"/>
<path d="M18.652 18.1075H6.74637C6.65546 18.1075 6.59119 18.0186 6.62107 17.9324C6.63976 17.8784 6.6905 17.8427 6.74739 17.8427H18.6072C18.6128 17.8694 18.617 17.8962 18.6212 17.9229C18.6296 17.9694 18.638 18.0159 18.645 18.0624C18.6478 18.0779 18.6492 18.092 18.652 18.1075Z" fill="#A897FF"/>
<path d="M18.753 18.7597H6.53408C6.44511 18.7597 6.38086 18.6745 6.40709 18.5891C6.42428 18.5331 6.47612 18.4949 6.53447 18.4949H18.7137C18.7137 18.4949 18.7151 18.5019 18.7151 18.5061C18.7277 18.5906 18.7404 18.6752 18.753 18.7597Z" fill="#A897FF"/>
<path d="M18.8427 19.4133H6.34659C6.25987 19.4133 6.19653 19.3315 6.21911 19.2474C6.23476 19.1891 6.28749 19.1485 6.34759 19.1485H18.8077C18.8203 19.2372 18.8315 19.326 18.8427 19.4133Z" fill="#A897FF"/>
<path d="M18.9185 20.0655H6.1869C6.10193 20.0655 6.03867 19.9866 6.05771 19.9035C6.07149 19.8433 6.12504 19.8007 6.18654 19.8007H18.889C18.8932 19.8288 18.896 19.857 18.8988 19.8852C18.9016 19.9105 18.9044 19.9345 18.9072 19.9598C18.9115 19.9951 18.9157 20.0303 18.9185 20.0655Z" fill="#A897FF"/>
<path d="M18.983 20.7191H6.05187C5.96858 20.7191 5.9054 20.6433 5.92131 20.5612C5.93343 20.4986 5.98825 20.4543 6.05171 20.4543H18.9591C18.9676 20.543 18.976 20.6318 18.983 20.7191Z" fill="#A897FF"/>
<path d="M19.0349 21.3713H5.94045C5.85953 21.3713 5.79726 21.2988 5.80917 21.2185C5.81879 21.1536 5.87438 21.1065 5.93965 21.1065H19.0138C19.0181 21.1516 19.0223 21.198 19.0251 21.2431C19.0279 21.2854 19.0321 21.3291 19.0349 21.3713Z" fill="#A897FF"/>
<path d="M19.0755 22.0249H5.85216C5.77366 22.0249 5.71249 21.9566 5.72156 21.8783C5.72938 21.8107 5.78641 21.7601 5.85415 21.7601H19.0601C19.0601 21.7671 19.0615 21.7756 19.0615 21.7826C19.0671 21.8643 19.0713 21.9446 19.0755 22.0249Z" fill="#A897FF"/>
<path d="M19.105 22.6644V22.6771H5.7896C5.71267 22.6771 5.6521 22.6113 5.65823 22.5343C5.66371 22.4654 5.72094 22.4123 5.78971 22.4123H19.0952C19.0994 22.4968 19.1022 22.5813 19.105 22.6644Z" fill="#A897FF"/>
<path d="M19.1232 23.3307H5.74905C5.67398 23.3307 5.61382 23.2678 5.61714 23.1925C5.62026 23.1213 5.67878 23.0659 5.74971 23.0659H19.1162C19.119 23.1547 19.1204 23.242 19.1232 23.3307Z" fill="#A897FF"/>
<path d="M19.1289 23.9759V23.9829H5.73211C5.65871 23.9829 5.59922 23.9232 5.60011 23.8495C5.60098 23.7766 5.66025 23.7181 5.73282 23.7181H19.1275C19.1289 23.804 19.1289 23.89 19.1289 23.9759Z" fill="#A897FF"/>
<path d="M19.1261 24.3717C19.1261 24.421 19.1261 24.4703 19.1247 24.5196C19.1247 24.5591 19.1247 24.5985 19.1247 24.6366H5.73778C5.66603 24.6366 5.60712 24.5793 5.60509 24.5073C5.603 24.4328 5.66283 24.3717 5.73705 24.3717H19.1261Z" fill="#A897FF"/>
<path d="M19.1134 25.0239C19.112 25.1127 19.1092 25.2014 19.105 25.2888H5.76642C5.69656 25.2888 5.63829 25.2347 5.63376 25.1647C5.6288 25.0881 5.68986 25.0239 5.76633 25.0239H19.1134Z" fill="#A897FF"/>
<path d="M19.091 25.6775C19.0896 25.7184 19.0868 25.7592 19.0854 25.8001C19.0826 25.848 19.0812 25.8945 19.0784 25.9424H5.81728C5.74903 25.9424 5.69155 25.8907 5.68493 25.8225C5.67734 25.7443 5.73899 25.6775 5.81715 25.6775H19.091Z" fill="#A897FF"/>
<path d="M19.0559 26.3297C19.0559 26.3297 19.0545 26.3368 19.0545 26.3396V26.3424C19.0503 26.4269 19.0447 26.51 19.0377 26.5946H5.89096C5.8249 26.5946 5.76888 26.5463 5.76019 26.4805C5.74965 26.4008 5.81167 26.3297 5.89176 26.3297H19.0559Z" fill="#A897FF"/>
<path d="M19.0083 26.9834C19.0069 27.0059 19.0041 27.0284 19.0027 27.051C18.9971 27.1172 18.99 27.182 18.9844 27.2482H5.9898C5.92532 27.2482 5.87016 27.2022 5.85966 27.1383C5.84635 27.0572 5.90886 26.9834 5.99062 26.9834H19.0083Z" fill="#A897FF"/>
<path d="M18.9493 27.6356C18.9409 27.7229 18.9311 27.8116 18.9227 27.9004H6.11282C6.04975 27.9004 5.99525 27.8557 5.98257 27.7937C5.96579 27.7116 6.02848 27.6356 6.11188 27.6356H18.9493Z" fill="#A897FF"/>
<path d="M18.8792 28.2892C18.8694 28.3709 18.8596 28.4526 18.8498 28.5357C18.8484 28.5413 18.8484 28.5484 18.847 28.554H6.25991C6.19874 28.554 6.14528 28.5127 6.13082 28.453C6.11054 28.3693 6.17429 28.2892 6.2601 28.2892H18.8792Z" fill="#A897FF"/>
<path d="M18.7951 28.9414C18.7895 28.9864 18.7825 29.0315 18.7769 29.0766C18.7741 29.0991 18.7713 29.1217 18.7671 29.1442C18.7657 29.1653 18.7614 29.1851 18.7586 29.2062H6.43277C6.37351 29.2062 6.32142 29.1673 6.30515 29.11C6.28109 29.0253 6.34464 28.9414 6.43232 28.9414H18.7951Z" fill="#A897FF"/>
<path d="M18.6997 29.595C18.6871 29.6837 18.673 29.7711 18.6576 29.8598H6.63144C6.57442 29.8598 6.52378 29.8236 6.50608 29.7692C6.47814 29.6833 6.5423 29.595 6.6323 29.595H18.6997Z" fill="#A897FF"/>
<path d="M18.5917 30.2472C18.5861 30.2838 18.5791 30.3204 18.5721 30.3585C18.5637 30.4092 18.5538 30.4613 18.5454 30.512H6.85736C6.80163 30.512 6.75186 30.4775 6.73271 30.425C6.70118 30.3384 6.76522 30.2472 6.85698 30.2472H18.5917Z" fill="#A897FF"/>
<path d="M18.4711 30.9008C18.4543 30.9895 18.4375 31.0783 18.4192 31.1656H7.11279C7.05909 31.1656 7.01071 31.1336 6.99016 31.0837C6.95413 30.9964 7.01831 30.9008 7.11245 30.9008H18.4711Z" fill="#A897FF"/>
<path d="M18.3379 31.553C18.3197 31.6389 18.3 31.7263 18.2818 31.8122C18.2818 31.8136 18.2804 31.8164 18.2804 31.8178H7.3949C7.34325 31.8178 7.29631 31.7881 7.27488 31.7409C7.23493 31.6529 7.29948 31.553 7.39576 31.553H18.3379Z" fill="#A897FF"/>
<path d="M18.1907 32.2066C18.1696 32.2954 18.1486 32.3827 18.1275 32.4714H7.71169C7.66159 32.4714 7.61561 32.4429 7.59285 32.3981C7.54809 32.3099 7.61202 32.2066 7.71057 32.2066H18.1907Z" fill="#A897FF"/>
<path d="M18.0294 32.8588C18.0237 32.8799 18.0195 32.8997 18.0139 32.9208H18.0125C17.9999 32.9771 17.9845 33.0349 17.969 33.0927C17.9662 33.1025 17.9634 33.1138 17.9606 33.1236H8.05864C8.01122 33.1236 7.96743 33.0985 7.94396 33.0571C7.89377 32.9686 7.95804 32.8588 8.05948 32.8588H18.0294Z" fill="#A897FF"/>
<path d="M17.854 33.5124C17.8442 33.5533 17.8316 33.5941 17.8204 33.635C17.8064 33.6829 17.7937 33.7294 17.7797 33.7773H8.44179C8.39569 33.7773 8.35275 33.7535 8.32854 33.7141C8.27409 33.6255 8.33844 33.5124 8.44212 33.5124H17.854Z" fill="#A897FF"/>
<path d="M17.6647 34.1646C17.638 34.2534 17.6114 34.3421 17.5833 34.4295H8.86143C8.81747 34.4295 8.77622 34.4078 8.75145 34.3713C8.69148 34.283 8.75535 34.1646 8.86177 34.1646H17.6647Z" fill="#A897FF"/>
<path d="M17.46 34.8182C17.4501 34.8506 17.4403 34.883 17.4291 34.9154C17.4109 34.9718 17.3926 35.0281 17.373 35.0831H9.3226C9.28038 35.0831 9.24074 35.0631 9.21569 35.029C9.15135 34.9413 9.21402 34.8182 9.32249 34.8182H17.46Z" fill="#A897FF"/>
<path d="M17.2412 35.4704C17.2103 35.5592 17.1781 35.6479 17.1472 35.7353H9.82757C9.78769 35.7353 9.74998 35.7175 9.72474 35.6865C9.65411 35.5997 9.71592 35.4704 9.8275 35.4704H17.2412Z" fill="#A897FF"/>
<path d="M17.0041 36.1241C16.9775 36.1959 16.9494 36.2691 16.9214 36.341C16.9186 36.3508 16.9158 36.3593 16.9116 36.3692C16.9088 36.3762 16.906 36.3818 16.9046 36.3889H10.3834C10.3457 36.3889 10.3098 36.3729 10.2846 36.3448C10.2081 36.2592 10.2689 36.1241 10.3834 36.1241H17.0041Z" fill="#A897FF"/>
<path d="M16.7517 36.7763C16.7166 36.865 16.6802 36.9523 16.6423 37.0411H10.9925C10.957 37.0411 10.9232 37.027 10.8983 37.0015C10.8165 36.9176 10.8759 36.7763 10.9929 36.7763H16.7517Z" fill="#A897FF"/>
<path d="M16.4796 37.4299C16.4529 37.4961 16.4249 37.5595 16.3954 37.6243C16.3926 37.6327 16.3884 37.6426 16.3842 37.651C16.3786 37.6651 16.3716 37.6806 16.3646 37.6947H11.6673C11.6342 37.6947 11.6022 37.6823 11.5778 37.6597C11.4891 37.5779 11.5476 37.4299 11.668 37.4299H16.4796Z" fill="#A897FF"/>
<path d="M16.1921 38.0821L16.1416 38.1919C16.1178 38.2441 16.0939 38.2948 16.0687 38.3469H12.4166C12.3858 38.3469 12.3558 38.3361 12.332 38.3165C12.2358 38.2372 12.2925 38.0821 12.417 38.0821H16.1921Z" fill="#A897FF"/>
<path d="M15.8822 38.7357C15.8401 38.8244 15.7952 38.9132 15.7504 39.0005H13.2598C13.2314 39.0005 13.2038 38.9917 13.1808 38.975C13.0757 38.8988 13.1301 38.7357 13.2597 38.7357H15.8822Z" fill="#A897FF"/>
<path d="M15.5526 39.3879C15.5456 39.402 15.54 39.4146 15.533 39.4273C15.5245 39.4428 15.5161 39.4583 15.5077 39.4738C15.4769 39.5344 15.446 39.5935 15.4138 39.6527H14.2114C14.186 39.6527 14.1613 39.6456 14.1398 39.632C14.0273 39.5604 14.0787 39.3879 14.212 39.3879H15.5526Z" fill="#A897FF"/>
<path d="M15.202 40.0415C15.1711 40.0978 15.1403 40.1542 15.108 40.2091C15.0257 40.1642 15.0584 40.0415 15.152 40.0415H15.202Z" fill="#A897FF"/>
</svg>
