<svg width="200" height="200" viewBox="0 0 200 200" fill="none" xmlns="http://www.w3.org/2000/svg">
<g clip-path="url(#clip0_287_99)">
<path d="M196.936 75.1254C197.134 75.8987 196.57 76.6719 195.778 76.7255C193.232 76.9092 190.686 77.093 188.148 77.3226C179.36 78.1265 170.541 78.6241 161.752 79.5122C156.493 80.0404 151.211 80.2394 145.944 80.6758C140.845 81.0969 135.769 81.6711 130.669 82.1151C119.053 83.1256 107.422 84.0749 95.7981 85.1085C89.6546 85.652 83.496 86.119 77.383 86.9535C75.9653 87.1449 74.5476 87.3286 73.1299 87.4894C73.107 87.0453 73.0765 86.609 73.046 86.1649C73.0384 86.0118 73.0231 85.8664 73.0155 85.7133C73.0003 85.4836 72.9774 85.2463 72.9622 85.0166C72.9088 84.2663 72.8478 83.5237 72.7792 82.7811C78.8693 81.449 96.5755 79.3973 101.911 78.8155C108.542 78.0882 115.181 77.3992 121.828 76.7485C130.959 75.8451 140.09 74.9953 149.222 74.1302C156.242 73.4642 163.262 72.7828 170.289 72.1627C177.927 71.4967 185.564 70.8612 193.194 70.2182C194.55 70.1033 195.793 70.9837 196.166 72.3005C196.433 73.2345 196.685 74.1761 196.929 75.1254H196.936Z" fill="white"/>
<path d="M194.063 125.86C195.412 125.798 196.425 127.092 196.044 128.394C195.846 129.083 195.633 129.772 195.419 130.461C195.015 131.755 193.834 132.643 192.485 132.65C180.35 132.757 122.186 133.194 107.597 132.405C100.508 132.022 93.4123 131.647 86.3694 130.721C82.3449 130.193 78.2747 129.818 74.3188 128.799C73.3813 128.562 72.4514 128.317 71.5596 127.965C71.5825 127.842 71.5977 127.72 71.613 127.597C71.6435 127.353 71.6816 127.108 71.7121 126.863C71.7883 126.327 71.8645 125.783 71.9331 125.24C71.956 125.063 71.9712 124.903 71.9941 124.742L72.1465 123.517C72.1618 123.349 72.177 123.249 72.1923 123.119C76.8036 125.071 91.4686 125.775 95.1349 125.974C105.272 126.526 115.417 126.878 125.57 126.962C135.586 127.054 145.609 126.962 155.632 126.878C165.449 126.794 175.243 126.327 185.053 126.189C187.386 126.158 191.395 125.982 194.063 125.86Z" fill="white"/>
<path d="M192.545 61.8505C192.797 62.4706 192.378 63.1673 191.707 63.2285C184.84 63.8869 177.964 64.5912 171.089 65.1807C162.537 65.908 154 66.8037 145.471 67.6841C137.864 68.4803 130.257 69.3148 122.658 70.1875C115.478 71.0143 108.306 71.8641 101.141 72.7828C93.3891 73.7857 85.6374 74.7962 77.962 76.2891C76.3003 76.6106 74.6463 76.9781 72.9923 77.3379C72.7941 77.3762 72.5502 77.4145 72.3978 77.537C72.3597 77.5676 72.3216 77.6059 72.2758 77.6365C72.2606 77.4834 72.2454 77.3303 72.2225 77.1772C72.1386 76.4728 72.0548 75.7685 71.971 75.0718H71.9633C71.9024 74.5742 71.8414 74.0843 71.7652 73.5943C71.7118 73.1656 71.7271 73.2881 71.6813 72.9818C72.5731 72.7139 73.968 72.155 74.8293 71.9024C79.1891 70.6086 83.6557 69.8966 88.0994 69.1157C96.3389 67.6765 104.601 66.398 112.909 65.3644C120.41 64.4381 127.895 63.2362 135.418 62.4936C144.114 61.6361 152.75 60.2887 161.462 59.5385C169.077 58.8877 176.676 57.9231 184.291 57.2341C185.335 57.1422 186.387 57.0351 187.431 56.9202C189.123 56.7365 190.731 57.6705 191.425 59.2322C191.806 60.0973 192.18 60.9701 192.538 61.8505H192.545Z" fill="white"/>
<path d="M185.952 48.6751C186.265 49.2033 185.937 49.877 185.327 49.9459C174.214 51.1632 126.995 56.8054 116.904 58.2753C110.676 59.1787 104.479 60.2811 98.2674 61.2534C92.7109 62.1261 87.2001 63.2132 81.7198 64.4458C78.2746 65.219 74.7913 65.9999 71.529 67.4238C71.3079 67.5157 71.1021 67.6152 70.8963 67.7301H70.8887C70.8506 67.4774 70.8125 67.2248 70.7668 66.9722C70.7439 66.8267 70.721 66.6812 70.6905 66.5358C70.5686 65.8315 70.4466 65.1271 70.3171 64.4228C70.2485 64.0094 70.1646 63.596 70.0884 63.1826C70.0808 63.1596 70.0808 63.129 70.0732 63.106C71.8796 61.9041 73.9376 61.2916 75.9803 60.6562C82.7716 58.5509 89.7078 57.081 96.682 55.7719C128.565 49.7851 158.825 46.2865 179.748 43.7372C181.524 43.5228 183.262 44.342 184.23 45.8501C184.71 46.5927 185.427 47.7947 185.952 48.6751Z" fill="white"/>
<path d="M188.918 140.046C190.305 140.038 191.227 141.485 190.64 142.74C190.267 143.544 189.878 144.348 189.482 145.137C188.895 146.308 187.706 147.051 186.402 147.028C175.282 146.844 123.268 145.933 114.579 145.29C106.393 144.693 81.758 142.878 69.8294 138.162V138.147C69.9361 137.603 70.0428 137.029 70.1571 136.455C70.2257 136.103 70.2867 135.751 70.3477 135.391C70.3934 135.115 70.4468 134.832 70.4925 134.556C70.5459 134.281 70.5916 134.021 70.6297 133.753L70.7059 133.293C71.0794 133.423 71.7959 133.73 72.1617 133.852C79.3494 136.256 86.8496 136.891 94.3117 137.665C112.155 139.51 130.075 140.061 148.002 140.329C149.816 140.352 179.375 140.115 188.91 140.046H188.918Z" fill="white"/>
<path d="M200 102.364C200.008 103.444 199.162 104.332 198.087 104.385C190.198 104.776 182.324 105.319 174.428 105.664C164.504 106.1 154.58 106.667 144.648 107.027C132.819 107.471 120.989 107.984 107.117 108.114C100.059 108.206 90.9731 108.428 81.8799 108.114C79.0444 108.022 76.2014 108.03 73.3812 107.555L73.3583 107.524C73.4117 106.851 73.4422 106.185 73.4498 105.511C73.4727 104.768 73.4879 104.018 73.4955 103.26C73.4955 102.954 73.4727 102.908 73.4955 102.625C74.2882 102.648 75.6907 102.808 76.4682 102.839C83.572 103.061 90.6758 102.816 97.7796 102.663C102.338 102.563 106.903 102.426 111.469 102.227C122.239 101.752 133.009 101.27 143.772 100.734C156.607 100.098 169.443 99.4246 182.279 98.7203C187.492 98.4293 192.568 98.0083 197.881 97.7021C198.925 97.6408 199.825 98.4523 199.893 99.5088C199.962 100.565 199.992 101.553 200 102.364Z" fill="white"/>
<path d="M199.405 88.5688C199.52 89.5794 198.758 90.4828 197.744 90.544C194.184 90.7737 186.333 91.2713 181.874 91.5699C170.822 92.2895 159.77 92.9709 148.726 93.7288C137.293 94.525 125.852 95.0226 114.419 95.7346C104.296 96.37 77.2607 97.5413 73.8841 97.5413C73.7622 97.5413 73.6326 97.5566 73.5106 97.5566C73.5106 97.3193 73.503 97.082 73.503 96.8446C73.503 96.6839 73.503 96.5307 73.503 96.37C73.4878 95.8877 73.4801 95.413 73.4649 94.9307C73.4496 94.2187 73.4268 93.5144 73.3963 92.8177V92.7488H73.4039C73.4725 92.7412 73.5411 92.7412 73.6097 92.7335C76.308 92.5268 79.0062 92.3507 81.7044 92.1593C92.2001 91.4091 102.696 90.5976 113.199 89.9162C126.401 89.0665 139.587 88.0023 152.796 87.1832C164.648 86.4482 176.486 85.4453 188.323 84.5496C191.074 84.3429 193.841 84.251 196.593 83.9984C197.812 83.8836 198.91 84.7486 199.085 85.9659C199.207 86.831 199.314 87.7037 199.413 88.5765L199.405 88.5688Z" fill="white"/>
<path d="M198.72 116.367C198.559 117.538 197.591 118.426 196.418 118.495C194.222 118.617 192.02 118.77 189.817 118.839C176.844 119.268 163.879 119.926 150.898 120.034C149.084 120.049 130.143 120.447 122.491 120.386C112.048 120.302 101.606 120.294 91.1712 119.697C85.4699 119.375 79.7837 119.077 74.151 118.074C73.6784 117.99 73.2058 117.852 72.7409 117.722C72.779 117.339 72.8095 116.964 72.84 116.581C72.8476 116.458 72.8629 116.336 72.8705 116.214C72.9315 115.509 72.9848 114.805 73.0305 114.101C73.0686 113.641 73.0991 113.189 73.122 112.73C73.122 112.723 73.122 112.669 73.122 112.661C74.1357 112.86 75.1571 113.212 76.1861 113.335C79.677 113.756 83.1756 114.032 86.6818 114.123C97.3756 114.399 108.069 114.545 118.771 114.376C130.989 114.177 143.208 113.993 155.418 113.542C164.412 113.212 173.422 112.99 182.408 112.478C187.271 112.202 192.134 112.118 196.982 111.773C198.186 111.689 199.169 112.7 199.032 113.901C198.941 114.667 198.834 115.54 198.72 116.359V116.367Z" fill="white"/>
<path d="M182.309 157.286C181.959 157.799 181.593 158.312 181.234 158.817C180.198 160.264 178.529 161.122 176.76 161.122C175.975 161.122 175.182 161.122 174.397 161.122C166.836 160.999 159.267 160.747 151.706 160.425C136.965 159.805 122.239 158.886 107.574 157.225C99.6318 156.322 91.7124 155.235 83.8845 153.596C78.892 152.555 73.9071 151.384 69.189 149.332C68.5945 149.072 68.0229 148.796 67.4741 148.482H67.4664C67.4969 148.367 67.5274 148.26 67.5579 148.145C67.7408 147.449 67.9161 146.744 68.0915 146.04C68.2058 145.558 68.3201 145.083 68.4345 144.601C68.5031 144.318 68.564 144.034 68.6326 143.751C70.058 144.478 71.6434 144.915 73.2288 145.374C79.7 147.234 86.2931 148.482 92.9549 149.409C103.595 150.894 114.282 151.858 124.998 152.555C138.375 153.428 151.76 153.956 165.167 154.124C169.367 154.178 176.432 154.201 180.716 154.216C182.279 154.216 183.201 155.992 182.317 157.279L182.309 157.286Z" fill="white"/>
<path d="M176.791 35.6987C177.21 36.204 176.905 36.9772 176.257 37.0614C168.025 38.1409 131.393 43.1324 127.384 43.8137C120.806 44.9314 114.228 46.0874 107.666 47.3047C103.222 48.1315 98.7859 49.0043 94.3803 50.0072C88.4502 51.3622 82.5126 52.6866 76.7274 54.6082C75.6679 54.9604 70.462 56.7595 68.9223 57.571C68.9071 57.4868 68.8842 57.4102 68.869 57.326C68.8004 57.0274 68.7394 56.7365 68.6708 56.4456C68.4726 55.5728 68.2668 54.7077 68.0534 53.8427C67.9543 53.4522 68.0229 53.7202 67.9086 53.2761C68.3659 52.8091 70.0961 51.8598 70.6907 51.6148C75.7137 49.5478 80.7747 47.5956 86.0645 46.2788C90.9427 45.0692 95.8361 43.9285 100.722 42.7496C105.036 41.7007 109.388 40.8127 113.733 40.0088C118.215 39.182 122.696 38.3093 127.194 37.5437C132.034 36.7169 160.434 32.445 169.55 31.0823C171.31 30.822 173.079 31.4574 174.268 32.7819C175.129 33.7388 175.968 34.7034 176.783 35.691L176.791 35.6987Z" fill="white"/>
<path d="M170.602 171.327C170.274 171.656 169.938 171.985 169.603 172.314C167.789 174.075 165.319 174.994 162.804 174.887C162.614 174.879 162.415 174.871 162.225 174.864C152.682 174.412 143.147 173.807 133.627 172.98C124.244 172.169 114.876 171.112 105.562 169.727C97.5358 168.54 89.5478 167.124 81.6818 165.126C75.988 163.679 70.3324 162.056 65.1646 159.147C64.936 159.016 64.6997 158.886 64.4786 158.748C64.7454 157.952 64.9969 157.148 65.2485 156.345C65.3628 155.977 65.4695 155.617 65.5762 155.25C65.7134 154.829 65.8354 154.408 65.9573 153.979C66.8491 154.423 67.7943 154.79 68.7089 155.189C73.7548 157.409 79.0979 158.695 84.4486 159.943C90.2567 161.298 96.141 162.247 102.033 163.112C110.097 164.299 118.215 165.141 126.34 165.868C138.192 166.925 160.312 167.866 169.397 168.226C170.975 168.287 171.73 170.209 170.609 171.327H170.602Z" fill="white"/>
<path d="M164.161 23.0132C164.793 23.5491 164.473 24.5826 163.65 24.6822C159.275 25.2181 154.93 25.9453 150.571 26.6344C144.351 27.6066 138.154 28.7167 131.957 29.8115C125.639 30.9292 119.35 32.246 113.062 33.5321C106.812 34.803 100.592 36.1963 94.4183 37.7963C86.659 39.8021 78.9073 41.8845 71.5443 45.1764C69.7683 45.9726 67.9619 46.5468 66.6356 48.1085C66.6127 48.1315 66.5899 48.1621 66.567 48.1851C66.5594 48.1698 66.5594 48.1468 66.5518 48.1315C66.4222 47.6492 66.285 47.1669 66.1402 46.6922C66.0182 46.2559 65.8886 45.8118 65.7591 45.3831C65.7438 45.3372 65.7362 45.2989 65.721 45.253C65.599 44.8396 65.4771 44.4338 65.3551 44.0281C66.7728 41.6395 69.3872 40.5907 71.811 39.4347C75.2867 37.7887 78.9454 36.6097 82.5811 35.3695C90.8664 32.5445 99.3346 30.3703 107.841 28.4028C112.612 27.2927 117.369 26.1061 122.209 25.2793C127.445 24.3836 132.62 23.1051 137.849 22.1558C143.993 21.0381 150.167 20.0581 156.333 19.0093C157.743 18.772 159.206 19.1012 160.35 19.9739C161.646 20.9615 162.918 21.972 164.161 23.0209V23.0132Z" fill="white"/>
<path d="M153.467 185.076C153.109 185.306 152.75 185.528 152.392 185.75C149.877 187.304 146.912 187.94 143.977 187.656C137.902 187.074 131.82 186.5 125.76 185.674C120.867 185.007 115.958 184.364 111.08 183.591C103.656 182.405 96.2551 181.042 88.9455 179.258C81.5139 177.444 74.1281 175.461 67.1233 172.299C64.9358 171.311 62.7939 170.232 60.8503 168.816C61.0485 168.326 61.239 167.828 61.4296 167.331C61.4601 167.246 61.4982 167.162 61.5287 167.07C61.6811 166.68 61.8259 166.289 61.9708 165.891C62.047 165.7 62.1232 165.501 62.1918 165.309C62.3519 164.873 62.5119 164.437 62.672 163.993C62.9997 164.199 63.3427 164.398 63.6781 164.597C69.5014 167.966 75.904 169.857 82.3676 171.579C88.5415 173.225 94.784 174.473 101.065 175.599C109.472 177.107 117.925 178.225 126.408 179.189C132.163 179.848 137.925 180.383 143.695 180.896C145.982 181.103 149.557 181.348 152.575 181.555C154.412 181.677 155.022 184.089 153.467 185.076Z" fill="white"/>
<path d="M148.116 12.0273C148.68 12.3259 148.551 13.168 147.925 13.2828C145.143 13.7881 142.361 14.2934 139.579 14.8216C136.431 15.4111 133.276 15.993 130.143 16.6743C123.71 18.083 117.269 19.484 110.867 21.0151C106.476 22.0639 102.101 23.2046 97.7337 24.3836C93.0842 25.6468 88.4576 27.0018 83.9148 28.5483C77.6494 30.6842 71.3993 32.9273 65.8122 36.6327C64.9814 37.1762 64.2116 37.781 63.5713 38.5236H63.5637C63.518 38.4088 63.4799 38.2787 63.4341 38.1562C63.1902 37.4518 62.9387 36.7399 62.6872 36.0432C62.5195 35.5609 62.3442 35.0786 62.1612 34.6039C62.085 34.3972 62.0088 34.1905 61.9326 33.9838C62.3289 33.5092 62.8091 33.0881 63.2893 32.69C66.704 29.8651 70.6447 27.9205 74.6768 26.175C79.1662 24.2228 83.7624 22.5233 88.4119 21.0381C94.9669 18.9404 101.545 16.9346 108.229 15.3039C114.182 13.857 120.12 12.3412 126.088 10.9785C129.358 10.2359 132.635 9.56219 135.913 8.88849C138.642 8.32962 141.47 8.68944 143.97 9.922C145.326 10.588 146.828 11.346 148.124 12.035L148.116 12.0273Z" fill="white"/>
<path d="M128.367 193.176C130.143 193.436 130.311 195.932 128.588 196.445C127.918 196.644 127.079 196.874 126.195 197.096C122.087 198.152 117.795 198.282 113.618 197.532C113.596 197.532 113.58 197.532 113.558 197.524C107.033 196.346 100.508 195.113 94.0677 193.521C88.9456 192.25 83.8312 190.925 78.8158 189.264C73.8005 187.61 68.8613 185.781 64.1127 183.476C61.5517 182.228 58.6553 180.529 56.4449 178.776L56.7116 178.355C56.9174 177.934 57.108 177.543 57.2909 177.137L57.5653 176.54C57.6034 176.464 57.6339 176.379 57.672 176.303C57.954 175.683 58.2361 175.063 58.5028 174.435C58.541 174.358 58.5791 174.274 58.6096 174.198C58.6324 174.152 58.6553 174.098 58.6705 174.052C62.6417 177.061 67.2226 178.936 71.8492 180.72C75.4773 182.121 79.1588 183.346 82.9089 184.364C87.4288 185.582 91.9793 186.73 96.5602 187.725C102.132 188.935 107.727 190.014 113.359 190.941C117.856 191.676 122.376 192.296 126.889 192.962C127.384 193.038 127.872 193.107 128.367 193.176Z" fill="white"/>
<path d="M124.366 2.64145C125.219 2.85581 125.197 4.07306 124.343 4.27211C117.597 5.84918 110.897 7.58702 104.236 9.47032C97.452 11.3766 90.7445 13.5355 84.1209 15.947C78.5186 17.9834 72.9773 20.1576 67.7714 23.0898C64.9055 24.6975 62.0243 26.3588 59.9892 29.0382C59.974 29.0076 59.9587 28.9693 59.9435 28.9387C59.8825 28.7933 59.8215 28.6478 59.7605 28.5023C59.6233 28.1655 59.4861 27.8286 59.3413 27.4994C59.0212 26.7415 58.3504 25.2257 58.0151 24.4755C58.3123 24.1845 58.2285 24.2688 58.4648 24.0085C60.2636 21.5357 62.9313 19.9509 65.5534 18.3279C70.7212 15.1432 76.2777 12.7623 81.9105 10.5651C85.9959 8.96504 90.1576 7.55639 94.3193 6.14775C97.955 4.91518 101.614 3.75152 105.295 2.67207C107.14 2.12852 108.984 1.60793 110.836 1.10265C112.368 0.681592 113.977 0.605035 115.555 0.850017C118.535 1.31701 121.477 1.91416 124.366 2.64145Z" fill="white"/>
<path d="M91.6057 0.000232374C91.7353 -0.00742331 91.7734 0.176313 91.6591 0.222247C89.0371 1.17921 82.7869 3.54481 78.7472 5.18313C74.212 7.02049 69.8217 9.17174 65.599 11.6369C61.9175 13.7958 58.2284 16.0312 55.7665 19.6906C55.5454 19.2236 55.3168 18.7643 55.0805 18.305C54.8442 17.8227 54.6003 17.3404 54.3488 16.8657C54.0896 16.3528 53.8228 15.8552 53.556 15.3499C54.7299 13.2216 56.6811 11.6139 58.6476 10.0751L58.701 10.0368C61.6355 7.74778 64.913 5.94104 68.4345 4.76972C75.8127 2.29694 83.572 0.673932 91.6057 0.000232374Z" fill="white"/>
<path d="M89.1894 199.148C89.7077 199.285 89.5552 200.051 89.0293 199.997C75.5991 198.527 62.9692 194.378 51.6732 188.1C51.8485 187.802 52.0162 187.496 52.1839 187.189C52.5726 186.493 52.9537 185.788 53.3348 185.076C53.5559 184.671 53.7617 184.273 53.9751 183.851H53.9827C56.8868 186.378 60.2786 188.2 63.7162 189.953C69.57 192.939 75.7515 195.105 81.9864 197.05C84.3722 197.792 86.7808 198.497 89.1894 199.155V199.148Z" fill="white"/>
<path d="M53.2358 14.7454H49.8521C49.1101 14.7454 48.8412 13.7821 49.482 13.4064C49.5944 13.3405 49.722 13.3062 49.8521 13.3062H52.4584C52.527 13.421 52.588 13.5282 52.6489 13.643C52.8471 14.0105 53.0377 14.3779 53.2358 14.7454Z" fill="white"/>
<path d="M55.0804 18.2977H44.2465C43.5382 18.2977 43.2505 17.3876 43.835 16.9858C43.9555 16.903 44.0988 16.8584 44.2447 16.8584H54.3487C54.6002 17.3331 54.8441 17.8154 55.0804 18.2977Z" fill="white"/>
<path d="M56.8106 21.8422H39.3909C38.6974 21.8422 38.3945 20.9734 38.9465 20.5519C39.0737 20.4548 39.2289 20.403 39.3886 20.403H56.117C56.1551 20.4719 56.1856 20.5331 56.216 20.602C56.4142 21.0154 56.6124 21.4288 56.8106 21.8422Z" fill="white"/>
<path d="M58.4263 25.3945H35.0544C34.3878 25.3945 34.0739 24.5718 34.5775 24.1331C34.7091 24.0185 34.8783 23.9552 35.0525 23.9552H57.7861C57.8775 24.1619 57.9766 24.3763 58.0681 24.5906C58.19 24.8586 58.3044 25.1265 58.4263 25.3945Z" fill="white"/>
<path d="M59.9434 28.9391H31.1888C30.5405 28.9391 30.2173 28.1543 30.6844 27.7028C30.8192 27.5726 30.9998 27.4998 31.1868 27.4998H59.3412C59.4861 27.829 59.6233 28.1658 59.7605 28.5027C59.8214 28.6481 59.8824 28.7936 59.9434 28.9391Z" fill="white"/>
<path d="M61.3688 32.4913H27.6956C27.066 32.4913 26.7368 31.7382 27.1686 31.278C27.3044 31.1333 27.4937 31.052 27.6916 31.052H60.7971C60.9953 31.5267 61.1782 32.009 61.3688 32.4913Z" fill="white"/>
<path d="M62.6874 36.0359H24.529C23.9132 36.0359 23.5765 35.3175 23.9783 34.8488C24.1156 34.6885 24.3165 34.5966 24.5271 34.5966H62.1615L62.4816 35.4694C62.5502 35.6531 62.6188 35.8445 62.6874 36.0359Z" fill="white"/>
<path d="M63.9299 39.5881H21.6387C21.0393 39.5881 20.6974 38.9028 21.0659 38.428C21.2029 38.2515 21.414 38.1489 21.6368 38.1489H63.442C63.4725 38.2331 63.503 38.3249 63.5335 38.4091C63.5487 38.4474 63.5564 38.478 63.5716 38.5163C63.686 38.8761 63.8079 39.236 63.9299 39.5881Z" fill="white"/>
<path d="M65.0731 43.1327H19.0124C18.4309 43.1327 18.0905 42.4737 18.4256 41.9965C18.5599 41.8053 18.7775 41.6934 19.0105 41.6934H64.6234C64.7758 42.1681 64.9283 42.6504 65.0731 43.1327Z" fill="white"/>
<path d="M66.1402 46.6849H16.616C16.0458 46.6849 15.6992 46.0516 16.0101 45.5715C16.1424 45.3672 16.3688 45.2457 16.6115 45.2457H65.7209C65.7362 45.2916 65.7438 45.3299 65.759 45.3758C65.8886 45.8122 66.0182 46.2486 66.1402 46.6849Z" fill="white"/>
<path d="M67.1232 50.2295H14.4302C13.8737 50.2295 13.5269 49.6255 13.8102 49.1444C13.9402 48.9239 14.1761 48.7902 14.4313 48.7902H66.7345C66.8717 49.2726 67.0013 49.7472 67.1232 50.2295Z" fill="white"/>
<path d="M68.0378 53.7817H12.4379C11.8955 53.7817 11.5467 53.2051 11.8028 52.7249C11.928 52.4901 12.1728 52.3425 12.4381 52.3425H67.6796C67.7558 52.6564 67.832 52.9626 67.9082 53.2765C67.954 53.4449 67.9921 53.6133 68.0378 53.7817Z" fill="white"/>
<path d="M68.8686 57.3263H10.6357C10.105 57.3263 9.75358 56.7773 9.9856 56.298C10.1068 56.0475 10.3614 55.8871 10.6387 55.8871H68.5332C68.6552 56.3617 68.7619 56.844 68.8686 57.3263Z" fill="white"/>
<path d="M69.6311 60.8786H9.01125C8.49216 60.8786 8.1414 60.3436 8.35039 59.8663C8.4648 59.6051 8.72239 59.4393 9.00656 59.4393H69.3339C69.3949 59.7073 69.4482 59.9675 69.5016 60.2355C69.5473 60.4499 69.593 60.6642 69.6311 60.8786Z" fill="white"/>
<path d="M70.317 64.4232H7.54035C7.03301 64.4232 6.6844 63.9115 6.87208 63.4381C6.98137 63.1624 7.24682 62.9839 7.54227 62.9839H70.0503C70.0579 63.0298 70.0655 63.0681 70.0731 63.1064C70.0807 63.1294 70.0808 63.16 70.0884 63.1829C70.1646 63.5963 70.2484 64.0098 70.317 64.4232Z" fill="white"/>
<path d="M70.9345 67.9754H6.22974C5.73569 67.9754 5.38639 67.4923 5.54874 67.0236C5.65033 66.7303 5.92612 66.5361 6.23529 66.5361H70.6906C70.7211 66.6816 70.7439 66.827 70.7668 66.9725C70.8125 67.2251 70.8583 67.4778 70.8964 67.7304C70.9116 67.8146 70.9193 67.8912 70.9345 67.9754Z" fill="white"/>
<path d="M71.4831 71.52H5.07598C4.59244 71.52 4.2433 71.0572 4.38581 70.5931C4.47927 70.2887 4.76099 70.0807 5.07811 70.0807H71.2697C71.2697 70.0807 71.2773 70.119 71.2773 70.1419C71.3459 70.6013 71.4145 71.0606 71.4831 71.52Z" fill="white"/>
<path d="M71.9709 75.0722H4.05704C3.58574 75.0722 3.2415 74.6277 3.36419 74.1707C3.44923 73.8539 3.73584 73.6329 4.06248 73.6329H71.7804C71.849 74.1152 71.9099 74.5975 71.9709 75.0722Z" fill="white"/>
<path d="M72.3824 78.6168H3.18915C2.72736 78.6168 2.38355 78.1882 2.48702 77.7362C2.56191 77.409 2.85295 77.1775 3.1872 77.1775H72.2224C72.2452 77.3306 72.2605 77.4837 72.2757 77.6369C72.291 77.7747 72.3062 77.9048 72.3215 78.0426C72.3443 78.234 72.3672 78.4254 72.3824 78.6168Z" fill="white"/>
<path d="M72.7331 82.169H2.4553C2.00262 82.169 1.65924 81.757 1.7457 81.3107C1.81157 80.9706 2.10952 80.7298 2.45442 80.7298H72.6035C72.6493 81.2121 72.695 81.6944 72.7331 82.169Z" fill="white"/>
<path d="M73.0151 85.7136H1.84977C1.40996 85.7136 1.07152 85.3198 1.13629 84.8828C1.18853 84.5304 1.49065 84.2743 1.84538 84.2743H72.9008C72.9237 84.5193 72.9465 84.772 72.9618 85.0169C72.977 85.2466 72.9999 85.4839 73.0151 85.7136Z" fill="white"/>
<path d="M73.2361 89.2658H1.3699C0.943279 89.2658 0.610807 88.8944 0.660106 88.4688C0.702645 88.1015 1.01259 87.8266 1.38071 87.8266H73.1523C73.1523 87.8648 73.1599 87.9108 73.1599 87.9491C73.1904 88.3931 73.2132 88.8295 73.2361 89.2658Z" fill="white"/>
<path d="M73.3962 92.7415V92.8104H1.02988C0.611817 92.8104 0.282606 92.4526 0.315943 92.034C0.345745 91.6598 0.656748 91.3712 1.03048 91.3712H73.3429C73.3658 91.8305 73.381 92.2898 73.3962 92.7415Z" fill="white"/>
<path d="M73.4953 96.3626H0.80955C0.401514 96.3626 0.0745966 96.0207 0.0925945 95.6113C0.109597 95.2245 0.427632 94.9234 0.813108 94.9234H73.4572C73.4725 95.4057 73.4801 95.8803 73.4953 96.3626Z" fill="white"/>
<path d="M73.5259 99.869V99.9072H0.717436C0.318566 99.9072 -0.00475828 99.5825 5.3009e-05 99.1819C0.00481039 98.7858 0.326909 98.468 0.72131 98.468H73.5183C73.5259 98.935 73.5259 99.402 73.5259 99.869Z" fill="white"/>
<path d="M73.5107 102.02C73.5107 102.288 73.5107 102.556 73.5031 102.824C73.5031 103.038 73.5031 103.253 73.5031 103.459H0.748271C0.358306 103.459 0.0381429 103.148 0.027155 102.757C0.0157893 102.352 0.340913 102.02 0.744284 102.02H73.5107Z" fill="white"/>
<path d="M73.4421 105.565C73.4344 106.047 73.4192 106.529 73.3963 107.004H0.903945C0.524234 107.004 0.207567 106.71 0.182933 106.33C0.155969 105.913 0.487815 105.565 0.903456 105.565H73.4421Z" fill="white"/>
<path d="M73.3202 109.117C73.3125 109.339 73.2973 109.561 73.2897 109.783C73.2744 110.043 73.2668 110.296 73.2516 110.556H1.18034C0.809412 110.556 0.497022 110.276 0.461024 109.905C0.419803 109.48 0.754865 109.117 1.17961 109.117H73.3202Z" fill="white"/>
<path d="M73.1294 112.662C73.1294 112.662 73.1218 112.7 73.1218 112.715V112.731C73.0989 113.19 73.0684 113.642 73.0303 114.101H1.58078C1.22176 114.101 0.917321 113.839 0.870068 113.481C0.81278 113.048 1.14987 112.662 1.58512 112.662H73.1294Z" fill="white"/>
<path d="M72.8706 116.214C72.863 116.336 72.8477 116.459 72.8401 116.581C72.8096 116.941 72.7715 117.293 72.741 117.653H2.11797C1.76751 117.653 1.46772 117.403 1.41066 117.056C1.33832 116.615 1.67804 116.214 2.12239 116.214H72.8706Z" fill="white"/>
<path d="M72.5501 119.758C72.5044 120.233 72.451 120.715 72.4053 121.198H2.78656C2.44376 121.198 2.14758 120.955 2.07863 120.618C1.98745 120.172 2.32814 119.758 2.78144 119.758H72.5501Z" fill="white"/>
<path d="M72.1692 123.311C72.1159 123.755 72.0625 124.199 72.0092 124.65C72.0015 124.681 72.0015 124.719 71.9939 124.75H3.58596C3.25351 124.75 2.96294 124.526 2.88436 124.201C2.77412 123.746 3.12062 123.311 3.58699 123.311H72.1692Z" fill="white"/>
<path d="M71.712 126.855C71.6815 127.1 71.6434 127.345 71.6129 127.59C71.5977 127.713 71.5825 127.835 71.5596 127.958C71.552 128.073 71.5291 128.18 71.5138 128.295H4.5254C4.20332 128.295 3.92022 128.083 3.83182 127.772C3.70103 127.312 4.04642 126.855 4.52296 126.855H71.712Z" fill="white"/>
<path d="M71.1934 130.407C71.1248 130.89 71.0486 131.364 70.9648 131.847H5.60513C5.29522 131.847 5.02001 131.65 4.92382 131.354C4.772 130.887 5.12067 130.407 5.6098 130.407H71.1934Z" fill="white"/>
<path d="M70.6066 133.952C70.5761 134.151 70.538 134.35 70.4999 134.557C70.4541 134.832 70.4008 135.116 70.355 135.391H6.83293C6.53009 135.391 6.25959 135.204 6.15552 134.918C5.98415 134.448 6.33219 133.952 6.83086 133.952H70.6066Z" fill="white"/>
<path d="M69.9513 137.504C69.8598 137.987 69.7683 138.469 69.6693 138.944H8.22114C7.92931 138.944 7.66639 138.769 7.55469 138.499C7.35887 138.024 7.70767 137.504 8.2193 137.504H69.9513Z" fill="white"/>
<path d="M69.2271 141.049C69.128 141.516 69.0213 141.991 68.9222 142.458C68.9222 142.465 68.9146 142.48 68.9146 142.488H9.75434C9.47364 142.488 9.21854 142.326 9.10208 142.07C8.88498 141.592 9.23578 141.049 9.75902 141.049H69.2271Z" fill="white"/>
<path d="M68.4269 144.601C68.3126 145.083 68.1983 145.558 68.0839 146.04H11.476C11.2038 146.04 10.9539 145.885 10.8302 145.642C10.5869 145.163 10.9344 144.601 11.4699 144.601H68.4269Z" fill="white"/>
<path d="M67.5503 148.146C67.5198 148.261 67.497 148.368 67.4665 148.483H67.4589C67.3903 148.789 67.3064 149.103 67.2226 149.417C67.2073 149.47 67.1921 149.531 67.1768 149.585H13.3616C13.1039 149.585 12.8659 149.448 12.7384 149.223C12.4656 148.742 12.8149 148.146 13.3662 148.146H67.5503Z" fill="white"/>
<path d="M66.5975 151.698C66.5441 151.92 66.4755 152.142 66.4146 152.364C66.3383 152.624 66.2697 152.877 66.1935 153.137H15.444C15.1934 153.137 14.9601 153.008 14.8285 152.794C14.5326 152.312 14.8823 151.698 15.4458 151.698H66.5975Z" fill="white"/>
<path d="M65.5684 155.243C65.4236 155.725 65.2788 156.207 65.1264 156.682H17.7246C17.4857 156.682 17.2615 156.564 17.1269 156.366C16.801 155.886 17.1481 155.243 17.7265 155.243H65.5684Z" fill="white"/>
<path d="M64.4558 158.795C64.4024 158.971 64.349 159.147 64.2881 159.323C64.189 159.629 64.0899 159.935 63.9832 160.234H20.231C20.0016 160.234 19.7861 160.126 19.65 159.94C19.3003 159.464 19.6409 158.795 20.2304 158.795H64.4558Z" fill="white"/>
<path d="M63.2667 162.339C63.099 162.822 62.9237 163.304 62.756 163.779H22.9754C22.7587 163.779 22.5537 163.682 22.4165 163.513C22.0327 163.042 22.3686 162.339 22.975 162.339H63.2667Z" fill="white"/>
<path d="M61.9784 165.892C61.8336 166.282 61.6812 166.68 61.5287 167.071C61.5135 167.124 61.4982 167.17 61.4754 167.224C61.4601 167.262 61.4449 167.293 61.4373 167.331H25.9962C25.7912 167.331 25.5961 167.244 25.4591 167.091C25.0433 166.626 25.3738 165.892 25.996 165.892H61.9784Z" fill="white"/>
<path d="M60.6064 169.436C60.4159 169.918 60.2177 170.393 60.0119 170.875H29.3065C29.1137 170.875 28.9297 170.799 28.7948 170.66C28.3501 170.204 28.673 169.436 29.3085 169.436H60.6064Z" fill="white"/>
<path d="M59.1276 172.988C58.9828 173.348 58.8304 173.693 58.6703 174.045C58.6551 174.091 58.6322 174.144 58.6093 174.19C58.5789 174.267 58.5407 174.351 58.5026 174.428H32.9741C32.7939 174.428 32.6201 174.36 32.4875 174.238C32.0055 173.793 32.3232 172.988 32.9778 172.988H59.1276Z" fill="white"/>
<path d="M57.5652 176.533L57.2908 177.13C57.1612 177.413 57.0317 177.689 56.8945 177.972H37.0463C36.8788 177.972 36.7156 177.914 36.5862 177.807C36.0635 177.376 36.3719 176.533 37.0482 176.533H57.5652Z" fill="white"/>
<path d="M55.8809 180.085C55.6522 180.568 55.4083 181.05 55.1644 181.524H41.6286C41.4743 181.524 41.3244 181.476 41.1992 181.386C40.6285 180.971 40.924 180.085 41.6281 180.085H55.8809Z" fill="white"/>
<path d="M54.0897 183.63C54.0516 183.706 54.0211 183.775 53.983 183.844C53.9372 183.928 53.8915 184.013 53.8458 184.097C53.6781 184.426 53.5104 184.748 53.3351 185.069H46.8005C46.6626 185.069 46.528 185.03 46.4116 184.956C45.7998 184.567 46.0796 183.63 46.8037 183.63H54.0897Z" fill="white"/>
<path d="M52.1841 187.182C52.0164 187.488 51.8487 187.794 51.6734 188.093C51.2261 187.849 51.4036 187.182 51.9127 187.182H52.1841Z" fill="white"/>
</g>
<defs>
<clipPath id="clip0_287_99">
<rect width="200" height="200" fill="white"/>
</clipPath>
</defs>
</svg>
