<svg width="48" height="48" viewBox="0 0 48 48" fill="none" xmlns="http://www.w3.org/2000/svg">
<path d="M0 24C0 10.7452 10.7452 0 24 0C37.2548 0 48 10.7452 48 24C48 37.2548 37.2548 48 24 48C10.7452 48 0 37.2548 0 24Z" fill="#7300FF"/>
<path fill-rule="evenodd" clip-rule="evenodd" d="M23.996 9.19995L14.7999 24.5811L23.996 30.0614L33.196 24.5811L23.996 9.19995Z" fill="#A897FF"/>
<path fill-rule="evenodd" clip-rule="evenodd" d="M17.0492 28.0774L16.8543 28.4227C16.7296 28.6409 16.4294 28.6528 16.2852 28.4505L15.7238 27.6528C15.6459 27.5417 14.7999 26.3711 14.7999 26.3711C14.7999 26.3711 16.0084 27.0616 16.1721 27.1568L16.9284 27.6092C17.0882 27.7044 17.1428 27.9147 17.0492 28.0774Z" fill="#A897FF"/>
<path fill-rule="evenodd" clip-rule="evenodd" d="M19.404 29.4781L18.601 30.8987C18.4762 31.117 18.1761 31.1329 18.0318 30.9265L17.4705 30.1249C17.3925 30.0138 17.3847 29.8709 17.451 29.7519L18.2267 28.3789H18.2306L19.2793 29.0019C19.4391 29.0971 19.4937 29.3074 19.4001 29.4701L19.404 29.4781Z" fill="#A897FF"/>
<path fill-rule="evenodd" clip-rule="evenodd" d="M21.7581 30.883L20.343 33.3791C20.2183 33.5973 19.9181 33.6092 19.7739 33.4068L19.2125 32.6092C19.1346 32.4981 19.1268 32.3552 19.193 32.2362L20.4132 30.0854C20.5068 29.9187 20.7173 29.8631 20.8771 29.9623L21.6334 30.4147C21.7932 30.51 21.8478 30.7203 21.7542 30.883H21.7581Z" fill="#A897FF"/>
<path fill-rule="evenodd" clip-rule="evenodd" d="M24.5769 31.4705L22.0897 35.8555C21.965 36.0737 21.6648 36.0857 21.5206 35.8833L20.9553 35.0817C20.8774 34.9705 20.8696 34.8277 20.9358 34.7086L22.7641 31.4824C22.8577 31.3157 23.0682 31.2602 23.228 31.3594L23.8206 31.7126C23.9258 31.7761 24.0584 31.7761 24.1636 31.7126L24.573 31.4705H24.5769Z" fill="#A897FF"/>
<path fill-rule="evenodd" clip-rule="evenodd" d="M28.6975 29.7681L23.5751 38.8L22.7058 37.5658C22.6278 37.4547 22.62 37.3118 22.6863 37.1928L26.569 30.3395C26.6002 30.2879 26.6392 30.2443 26.6898 30.2125L28.2297 29.2958C28.5298 29.1173 28.869 29.4585 28.6936 29.7641L28.6975 29.7681Z" fill="#A897FF"/>
<path fill-rule="evenodd" clip-rule="evenodd" d="M33.1999 26.3393L31.0013 29.4584C30.7518 29.8155 30.2177 29.4623 30.4321 29.0854L31.3287 27.506C31.3599 27.4544 31.3989 27.4107 31.4496 27.3829L33.196 26.3432L33.1999 26.3393Z" fill="#A897FF"/>
</svg>
