<svg width="48" height="48" viewBox="0 0 48 48" fill="none" xmlns="http://www.w3.org/2000/svg">
<path d="M0 24C0 10.7452 10.7452 0 24 0C37.2548 0 48 10.7452 48 24C48 37.2548 37.2548 48 24 48C10.7452 48 0 37.2548 0 24Z" fill="#7300FF"/>
<path d="M24.9232 30.684C24.7483 30.708 24.5612 30.72 24.366 30.72H23.0238L20.3964 35.2H20.494V38.232L24.9232 30.684ZM32.4272 25.908L27.0991 34.98C27.9248 34.84 28.6691 34.636 29.3402 34.36L33.1999 27.788C33.0779 27.06 32.8217 26.432 32.4272 25.908ZM33.0982 30.364L31.5934 32.924C32.3499 32.204 32.8501 31.348 33.0982 30.364ZM24.8581 38.8H25.3746V37.92L24.8581 38.8ZM31.2965 22.144C32.1221 21.288 32.5329 20.148 32.5329 18.72C32.5329 16.82 31.7642 15.36 30.2227 14.336C29.0067 13.512 27.3838 13.028 25.3746 12.864V9.19995H20.494V12.8H14.7999V25.532L15.5239 24.3C15.6337 24.112 15.833 24 16.0486 24H16.0567C16.5244 24 16.8173 24.496 16.5854 24.896L14.7999 27.936V31.132L18.8102 24.3C18.92 24.112 19.1193 24 19.3349 24H19.343C19.8107 24 20.1036 24.496 19.8717 24.896L14.7999 33.536V35.2H15.6988L20.7868 26.532V26.112H21.0309L22.0965 24.3C22.2063 24.112 22.4056 24 22.6212 24H22.6293C23.097 24 23.3899 24.496 23.158 24.896L22.4422 26.112H24.3172L25.3828 24.3C25.4926 24.112 25.6919 24 25.9074 24H25.9156C26.3833 24 26.6761 24.496 26.4443 24.896L25.6227 26.3C25.9156 26.396 26.1718 26.536 26.3833 26.72C26.6029 26.896 26.7697 27.104 26.8876 27.34L28.6731 24.3C28.783 24.112 28.9822 24 29.1978 24H29.2019C29.6696 24 29.9624 24.496 29.7306 24.896L21.5678 38.8H23.4468L25.3746 35.516V35.168C25.4479 35.164 25.517 35.16 25.5861 35.156L31.5364 25.02C30.6254 24.316 29.3971 23.884 27.8475 23.712C29.3239 23.496 30.4708 22.976 31.2965 22.144ZM25.8302 21.12C25.3746 21.524 24.7361 21.728 23.9104 21.728H20.7868V17.248H23.9104C24.7361 17.248 25.3746 17.448 25.8302 17.856C26.306 18.26 26.546 18.804 26.546 19.488C26.546 20.172 26.306 20.712 25.8302 21.12ZM20.7868 30.72V28.936L17.1101 35.2H18.9851L21.6125 30.72H20.7868Z" fill="#A897FF"/>
</svg>
